<svg width="690" height="649" viewBox="0 0 690 649" fill="none" xmlns="http://www.w3.org/2000/svg">
    <path d="M550.147 157.263C503.773 137.217 454.55 139.608 414.67 162.375C403.932 117.727 371.95 80.2335 325.576 60.1872C288.644 44.2717 246.906 43.6559 209.521 58.4749C172.135 73.2939 142.154 102.337 126.155 139.234C58.2017 296.433 236.28 524.43 243.935 533.976C245.942 536.514 248.548 538.515 251.519 539.799C254.49 541.083 257.733 541.611 260.957 541.334C273.155 540.37 561.24 513.884 629.193 356.684C645.109 319.752 645.724 278.015 630.905 240.629C616.086 203.243 587.043 173.262 550.147 157.263Z" fill="url(#paint0_radial_145_15)" fill-opacity="0.03"/>
    <path d="M440.738 246.193C419.059 236.822 396.048 237.939 377.405 248.583C372.385 227.71 357.434 210.183 335.755 200.811C318.489 193.371 298.978 193.083 281.5 200.011C264.023 206.939 250.008 220.516 242.528 237.764C210.761 311.253 294.01 417.838 297.589 422.3C298.527 423.487 299.745 424.422 301.134 425.022C302.523 425.623 304.039 425.869 305.546 425.74C311.248 425.289 445.924 412.907 477.691 339.419C485.131 322.154 485.419 302.642 478.491 285.165C471.564 267.688 457.986 253.672 440.738 246.193Z" fill="url(#paint1_radial_145_15)" fill-opacity="0.03"/>
    <path d="M391.582 286.148C380.998 281.573 369.764 282.118 360.662 287.315C358.211 277.125 350.912 268.567 340.328 263.992C331.899 260.36 322.373 260.219 313.84 263.602C305.308 266.984 298.465 273.612 294.814 282.033C279.305 317.911 319.948 369.947 321.695 372.125C322.153 372.705 322.748 373.161 323.426 373.454C324.104 373.747 324.844 373.868 325.58 373.805C328.364 373.585 394.113 367.54 409.622 331.662C413.255 323.233 413.395 313.707 410.013 305.175C406.631 296.642 400.002 289.799 391.582 286.148Z" fill="url(#paint2_radial_145_15)" fill-opacity="0.03"/>
    <defs>
        <radialGradient id="paint0_radial_145_15" cx="0" cy="0" r="1" gradientUnits="userSpaceOnUse" gradientTransform="translate(344.69 324.262) rotate(113.378) scale(234.813 274.013)">
            <stop stop-color="#0B4819"/>
            <stop offset="1" stop-color="#1BAE3C"/>
        </radialGradient>
        <radialGradient id="paint1_radial_145_15" cx="0" cy="0" r="1" gradientUnits="userSpaceOnUse" gradientTransform="translate(344.69 324.262) rotate(113.378) scale(109.771 128.097)">
            <stop stop-color="#0B4819"/>
            <stop offset="1" stop-color="#1BAE3C"/>
        </radialGradient>
        <radialGradient id="paint2_radial_145_15" cx="0" cy="0" r="1" gradientUnits="userSpaceOnUse" gradientTransform="translate(344.69 324.262) rotate(113.378) scale(53.5914 62.538)">
            <stop stop-color="#0B4819"/>
            <stop offset="1" stop-color="#1BAE3C"/>
        </radialGradient>
    </defs>
</svg>
