<svg width="219" height="175" viewBox="0 0 219 175" fill="none" xmlns="http://www.w3.org/2000/svg">
    <g filter="url(#filter0_d_49_616)">
        <path fill-rule="evenodd" clip-rule="evenodd" d="M203.5 98.5002L201 105L198 109.5L199.5 117L198 133L193.5 143.5L184 151.5L171 156L158 154L148.5 149L141.5 142L137.5 131.5V117L141.5 103.5L137.5 101L100.5 89.0002L99 91.5002L94.5 94.0002L90.5 92.5002L88 88.0002L105.5 39.5002L110.5 38.0002L116 42.0002V47.5002L173.5 66.5002L176 62.0002L179 58.5002H185.5L188.5 61.0002L189.5 65.5002V70.0002L188.5 73.0002L191.5 74.5002L198 78.5002L203.5 89.0002V98.5002ZM193 121C193 134.255 182.255 145 169 145C155.745 145 145 134.255 145 121C145 107.745 155.745 97.0002 169 97.0002C182.255 97.0002 193 107.745 193 121ZM169 128C172.314 128 175 125.314 175 122C175 118.687 172.314 116 169 116C165.686 116 163 118.687 163 122C163 125.314 165.686 128 169 128Z" fill="white"/>
    </g>
    <path d="M116.092 45.845L136.439 52.896L151.548 58.1338L173.506 65.7891L188.817 71.2284L189.421 71.6313C195.062 73.6458 199.494 77.6749 201.71 82.7113C204.127 87.7476 204.53 93.5898 202.516 99.2306C201.307 102.454 199.494 105.476 197.077 107.692" stroke="#00CB00" stroke-width="4.0291" stroke-miterlimit="10" stroke-linecap="round" stroke-linejoin="round"/>
    <path d="M143.691 101.648L137.043 99.2306L121.934 93.9928L101.788 86.7404" stroke="#00CB00" stroke-width="4.0291" stroke-miterlimit="10" stroke-linecap="round" stroke-linejoin="round"/>
    <path d="M93.1258 91.9782C96.3491 93.1869 99.9752 91.3738 101.184 88.1505L116.495 44.4348C117.703 41.2116 115.89 37.5854 112.667 36.3766C109.444 35.1679 105.817 36.981 104.609 40.2043L89.2981 83.92C88.2909 87.3447 89.9025 90.7695 93.1258 91.9782Z" stroke="#00CB00" stroke-width="4.0291" stroke-miterlimit="10" stroke-linecap="round" stroke-linejoin="round"/>
    <path d="M188.817 71.4298L190.026 68.005C191.436 63.7745 189.22 59.141 184.989 57.7308C180.759 56.3207 176.125 58.5367 174.715 62.7672L173.506 66.192" stroke="#00CB00" stroke-width="4.0291" stroke-miterlimit="10" stroke-linecap="round" stroke-linejoin="round"/>
    <path d="M137.043 99.2306L151.548 58.3352" stroke="#00CB00" stroke-width="4.0291" stroke-miterlimit="10" stroke-linecap="round" stroke-linejoin="round"/>
    <path d="M121.934 93.9927L136.439 53.0974" stroke="#00CB00" stroke-width="4.0291" stroke-miterlimit="10" stroke-linecap="round" stroke-linejoin="round"/>
    <path d="M184.989 57.7309C184.989 57.7309 189.623 46.6508 197.077 51.8887C205.336 57.328 209.164 46.0465 209.164 46.0465" stroke="#00CB00" stroke-width="4.0291" stroke-miterlimit="10" stroke-linecap="round" stroke-linejoin="round"/>
    <path d="M168.671 153.825C150.981 153.825 136.64 139.484 136.64 121.794C136.64 104.103 150.981 89.7622 168.671 89.7622C186.362 89.7622 200.703 104.103 200.703 121.794C200.703 139.484 186.362 153.825 168.671 153.825Z" stroke="#00CB00" stroke-width="4.0291" stroke-miterlimit="10" stroke-linecap="round" stroke-linejoin="round"/>
    <path d="M168.671 144.961C155.876 144.961 145.504 134.588 145.504 121.794C145.504 108.999 155.876 98.6262 168.671 98.6262C181.466 98.6262 191.839 108.999 191.839 121.794C191.839 134.588 181.466 144.961 168.671 144.961Z" stroke="#00CB00" stroke-width="4.0291" stroke-miterlimit="10" stroke-linecap="round" stroke-linejoin="round"/>
    <path d="M168.671 98.6262V114.944" stroke="#00CB00" stroke-width="4.0291" stroke-miterlimit="10" stroke-linecap="round" stroke-linejoin="round"/>
    <path d="M168.671 128.844V145.162" stroke="#00CB00" stroke-width="4.0291" stroke-miterlimit="10" stroke-linecap="round" stroke-linejoin="round"/>
    <path d="M145.303 121.794H161.621" stroke="#00CB00" stroke-width="4.0291" stroke-miterlimit="10" stroke-linecap="round" stroke-linejoin="round"/>
    <path d="M175.521 121.794H191.839" stroke="#00CB00" stroke-width="4.0291" stroke-miterlimit="10" stroke-linecap="round" stroke-linejoin="round"/>
    <path d="M152.152 105.476L163.635 116.959" stroke="#00CB00" stroke-width="4.0291" stroke-miterlimit="10" stroke-linecap="round" stroke-linejoin="round"/>
    <path d="M173.506 126.83L184.989 138.313" stroke="#00CB00" stroke-width="4.0291" stroke-miterlimit="10" stroke-linecap="round" stroke-linejoin="round"/>
    <path d="M152.152 138.313L163.635 126.83" stroke="#00CB00" stroke-width="4.0291" stroke-miterlimit="10" stroke-linecap="round" stroke-linejoin="round"/>
    <path d="M173.506 116.959L184.989 105.476" stroke="#00CB00" stroke-width="4.0291" stroke-miterlimit="10" stroke-linecap="round" stroke-linejoin="round"/>
    <path d="M168.671 128.643C164.889 128.643 161.822 125.576 161.822 121.794C161.822 118.011 164.889 114.944 168.671 114.944C172.454 114.944 175.521 118.011 175.521 121.794C175.521 125.576 172.454 128.643 168.671 128.643Z" stroke="#00CB00" stroke-width="4.0291" stroke-miterlimit="10" stroke-linecap="round" stroke-linejoin="round"/>
    <g filter="url(#filter1_d_49_616)">
        <path d="M53.5396 25.8147C49.6506 24.1336 45.5228 24.3341 42.1784 26.2434C41.2779 22.4991 38.5958 19.3549 34.7069 17.6738C31.6097 16.3391 28.1096 16.2875 24.9744 17.5302C21.8392 18.7729 19.325 21.2086 17.9833 24.3027C12.2847 37.4856 27.2185 56.6056 27.8604 57.4061C28.0288 57.619 28.2473 57.7868 28.4964 57.8945C28.7455 58.0021 29.0175 58.0464 29.2879 58.0232C30.3108 57.9423 54.4699 55.7212 60.1685 42.5383C61.5032 39.4411 61.5548 35.941 60.3121 32.8058C59.0693 29.6706 56.6337 27.1564 53.5396 25.8147Z" fill="white"/>
        <path d="M55.2902 25.1252C51.1377 23.3302 46.7301 23.5442 43.159 25.5829C42.1975 21.5849 39.3337 18.2276 35.1812 16.4326C31.8741 15.0074 28.1367 14.9523 24.7891 16.2792C21.4414 17.6062 18.7567 20.2069 17.3241 23.5107C11.2393 37.5871 27.1852 58.003 27.8706 58.8577C28.0504 59.085 28.2838 59.2642 28.5498 59.3792C28.8158 59.4942 29.1062 59.5414 29.3949 59.5166C30.4871 59.4303 56.2836 57.0586 62.3684 42.9823C63.7936 39.6752 63.8487 35.9378 62.5218 32.5901C61.1948 29.2424 58.5941 26.5578 55.2902 25.1252ZM30.041 55.9295C27.294 52.2026 15.8745 35.6981 20.5416 24.9016C21.6048 22.4506 23.5967 20.5214 26.0803 19.5369C28.564 18.5525 31.3367 18.5931 33.7904 19.65C37.7016 21.3407 40.0848 24.8435 40.0098 28.7825C40.0035 29.13 40.1006 29.4715 40.2887 29.7636C40.4769 30.0557 40.7477 30.2854 41.0667 30.4232C41.3857 30.5611 41.7385 30.6011 42.0802 30.538C42.4219 30.4749 42.7372 30.3117 42.986 30.069C45.8065 27.3097 49.9882 26.6519 53.8994 28.3426C56.3504 29.4059 58.2796 31.3978 59.2641 33.8814C60.2485 36.365 60.2079 39.1377 59.151 41.5914C54.4909 52.3719 34.6346 55.3734 30.041 55.9295Z" fill="#00CB00"/>
    </g>
    <path d="M70.0197 38.5093L76.5217 41.2546L83.0236 44" stroke="#00CB00" stroke-width="4" stroke-linecap="round"/>
    <path d="M68.028 50.0107L74.5299 52.7561L81.0319 55.5014" stroke="#00CB00" stroke-width="4" stroke-linecap="round"/>
    <path d="M57.0336 58.0186L63.5356 60.7639L70.0376 63.5093" stroke="#00CB00" stroke-width="4" stroke-linecap="round"/>
    <defs>
        <filter id="filter0_d_49_616" x="73" y="27.0002" width="145.5" height="148" filterUnits="userSpaceOnUse" color-interpolation-filters="sRGB">
            <feFlood flood-opacity="0" result="BackgroundImageFix"/>
            <feColorMatrix in="SourceAlpha" type="matrix" values="0 0 0 0 0 0 0 0 0 0 0 0 0 0 0 0 0 0 127 0" result="hardAlpha"/>
            <feOffset dy="4"/>
            <feGaussianBlur stdDeviation="7.5"/>
            <feComposite in2="hardAlpha" operator="out"/>
            <feColorMatrix type="matrix" values="0 0 0 0 0 0 0 0 0 0 0 0 0 0 0 0 0 0 0.1 0"/>
            <feBlend mode="normal" in2="BackgroundImageFix" result="effect1_dropShadow_49_616"/>
            <feBlend mode="normal" in="SourceGraphic" in2="effect1_dropShadow_49_616" result="shape"/>
        </filter>
        <filter id="filter1_d_49_616" x="0.942627" y="0.322357" width="77.536" height="74.2007" filterUnits="userSpaceOnUse" color-interpolation-filters="sRGB">
            <feFlood flood-opacity="0" result="BackgroundImageFix"/>
            <feColorMatrix in="SourceAlpha" type="matrix" values="0 0 0 0 0 0 0 0 0 0 0 0 0 0 0 0 0 0 127 0" result="hardAlpha"/>
            <feOffset/>
            <feGaussianBlur stdDeviation="7.5"/>
            <feComposite in2="hardAlpha" operator="out"/>
            <feColorMatrix type="matrix" values="0 0 0 0 0 0 0 0 0 0 0 0 0 0 0 0 0 0 0.1 0"/>
            <feBlend mode="normal" in2="BackgroundImageFix" result="effect1_dropShadow_49_616"/>
            <feBlend mode="normal" in="SourceGraphic" in2="effect1_dropShadow_49_616" result="shape"/>
        </filter>
    </defs>
</svg>
