<svg width="26" height="26" viewBox="0 0 26 26" fill="none" xmlns="http://www.w3.org/2000/svg">
    <path d="M13 0C20.1798 0 26 5.82021 26 13C26 20.1798 20.1798 26 13 26C5.82021 26 0 20.1798 0 13C0 5.82021 5.82021 0 13 0ZM13 2.16667C7.01675 2.16667 2.16667 7.01675 2.16667 13C2.16667 18.9832 7.01675 23.8333 13 23.8333C18.9832 23.8333 23.8333 18.9832 23.8333 13C23.8333 7.01675 18.9832 2.16667 13 2.16667ZM18.8435 8.62875C19.2064 8.99167 19.2064 9.57992 18.8435 9.94229L11.6068 17.179C11.4327 17.3529 11.1965 17.4507 10.9503 17.4507C10.7041 17.4507 10.468 17.3529 10.2938 17.179L7.23612 14.1207C7.06201 13.9465 6.96422 13.7103 6.96427 13.464C6.96432 13.2177 7.06221 12.9816 7.2364 12.8074C7.41058 12.6333 7.6468 12.5355 7.89309 12.5356C8.13937 12.5356 8.37555 12.6335 8.54967 12.8077L10.2938 14.5519C10.6568 14.9148 11.2445 14.9148 11.6074 14.5519L17.53 8.62929C17.8929 8.26638 18.4806 8.26583 18.8435 8.62875Z" fill="currentColor"/>
</svg>
