<svg viewBox="0 0 629 390" fill="none" xmlns="http://www.w3.org/2000/svg">
    <g filter="url(#filter0_d_146_19)">
        <rect x="21" y="17" width="587" height="348" rx="11.0863" fill="#22272E"/>
    </g>
    <ellipse cx="54" cy="50.9999" rx="10" ry="9.99991" fill="#FF5F57"/>
    <ellipse cx="87.9148" cy="50.9999" rx="10" ry="9.99991" fill="#FEBC2E"/>
    <ellipse cx="121.83" cy="50.9999" rx="10" ry="9.99991" fill="#28C840"/>
    <path d="M50 131C49.6797 130.977 49.125 130.875 48.3359 130.695C47.6016 130.523 46.8281 130.266 46.0156 129.922V126.852C46.8203 127.328 47.6016 127.695 48.3594 127.953C49.1094 128.203 49.8164 128.336 50.4805 128.352V124.496C48.9414 124.191 47.7969 123.664 47.0469 122.914C46.2969 122.18 45.9219 121.191 45.9219 119.949C45.9219 118.652 46.3203 117.617 47.1172 116.844C47.9141 116.07 48.8789 115.637 50.0117 115.543V112.766H52.6016L52.6133 115.543C52.8555 115.582 53.2773 115.652 53.8789 115.754C54.1445 115.801 54.4258 115.863 54.7227 115.941C55.0273 116.012 55.3555 116.102 55.707 116.211V119.211C55.4492 119.039 55.1797 118.895 54.8984 118.777C54.625 118.652 54.3555 118.547 54.0898 118.461C53.4727 118.273 52.8203 118.156 52.1328 118.109V121.707C53.6797 121.949 54.8438 122.473 55.625 123.277C56.4062 124.066 56.7969 125.133 56.7969 126.477C56.7969 127.148 56.6914 127.746 56.4805 128.27C56.2695 128.785 55.9531 129.25 55.5312 129.664C55.0547 130.125 54.5273 130.453 53.9492 130.648C53.3789 130.844 52.9336 130.961 52.6133 131L52.6016 134.527H50.0117L50 131ZM50.4805 118.109C49.9883 118.172 49.625 118.332 49.3906 118.59C49.2812 118.699 49.1914 118.844 49.1211 119.023C49.0508 119.203 49.0156 119.418 49.0156 119.668C49.0156 120.113 49.1406 120.484 49.3906 120.781C49.6406 121.078 50.0039 121.293 50.4805 121.426V118.109ZM52.1328 128.352C52.4141 128.312 52.6445 128.242 52.8242 128.141C53.0039 128.039 53.1562 127.918 53.2812 127.777C53.5547 127.457 53.6914 127.062 53.6914 126.594C53.6914 126.117 53.5586 125.723 53.293 125.41C53.168 125.27 53.0117 125.148 52.8242 125.047C52.6367 124.945 52.4062 124.867 52.1328 124.812V128.352Z" fill="#8C8C8C"/>
    <path d="M77.9141 120.512H74.7266V117.875H77.9141V116.961C77.9141 115.906 78.0547 115.074 78.3359 114.465C78.625 113.848 79.1055 113.41 79.7773 113.152C80.457 112.895 81.3828 112.766 82.5547 112.766H85.3789V115.402H82.6953C82.1953 115.402 81.8438 115.5 81.6406 115.695C81.4453 115.891 81.3477 116.234 81.3477 116.727V117.875H85.3789V120.512H81.3477V131H77.9141V120.512ZM92.375 120.512H89.1875V117.875H92.375V116.961C92.375 115.906 92.5156 115.074 92.7969 114.465C93.0859 113.848 93.5664 113.41 94.2383 113.152C94.918 112.895 95.8438 112.766 97.0156 112.766H99.8398V115.402H97.1562C96.6562 115.402 96.3047 115.5 96.1016 115.695C95.9062 115.891 95.8086 116.234 95.8086 116.727V117.875H99.8398V120.512H95.8086V131H92.375V120.512ZM102.805 117.875H104.961L105.301 119.234C105.496 118.711 105.805 118.301 106.227 118.004C106.648 117.707 107.121 117.559 107.645 117.559C108.199 117.559 108.695 117.719 109.133 118.039C109.57 118.352 109.836 118.734 109.93 119.188C110.438 118.102 111.273 117.559 112.438 117.559C113.539 117.559 114.305 117.945 114.734 118.719C115.164 119.5 115.379 121.129 115.379 123.605V131H112.566V122.574C112.566 121.621 112.492 120.973 112.344 120.629C112.195 120.293 111.922 120.125 111.523 120.125C111.141 120.125 110.875 120.289 110.727 120.617C110.562 120.977 110.48 121.629 110.48 122.574V131H107.703V122.574C107.703 121.652 107.625 121.004 107.469 120.629C107.32 120.293 107.051 120.125 106.66 120.125C106.262 120.125 105.992 120.281 105.852 120.594C105.695 120.906 105.617 121.566 105.617 122.574V131H102.805V117.875ZM118.062 117.875H121.145L121.484 119.844C122.211 118.32 123.375 117.559 124.977 117.559C126.453 117.559 127.609 118.172 128.445 119.398C129.281 120.617 129.699 122.305 129.699 124.461C129.699 126.617 129.281 128.305 128.445 129.523C127.609 130.734 126.461 131.34 125 131.34C123.461 131.34 122.289 130.609 121.484 129.148V135.992H118.062V117.875ZM123.887 128.48C124.605 128.48 125.18 128.109 125.609 127.367C126.047 126.617 126.266 125.613 126.266 124.355C126.266 123.129 126.055 122.16 125.633 121.449C125.219 120.73 124.648 120.371 123.922 120.371C123.18 120.371 122.586 120.742 122.141 121.484C121.703 122.219 121.484 123.199 121.484 124.426C121.484 125.652 121.703 126.637 122.141 127.379C122.578 128.113 123.16 128.48 123.887 128.48ZM138.641 131.34C136.383 131.34 134.664 130.758 133.484 129.594C132.312 128.422 131.727 126.73 131.727 124.52C131.727 123.121 131.969 121.902 132.453 120.863C132.938 119.816 133.66 119.004 134.621 118.426C135.59 117.848 136.801 117.559 138.254 117.559C139.449 117.559 140.484 117.836 141.359 118.391C142.234 118.945 142.91 119.719 143.387 120.711C143.871 121.695 144.113 122.844 144.113 124.156V125.551H135.219C135.219 127.598 136.414 128.621 138.805 128.621C140.375 128.621 141.961 128.148 143.562 127.203V130.355C141.969 131.012 140.328 131.34 138.641 131.34ZM140.656 122.973C140.656 122.066 140.434 121.383 139.988 120.922C139.543 120.453 138.906 120.219 138.078 120.219C137.234 120.219 136.574 120.457 136.098 120.934C135.621 121.41 135.34 122.09 135.254 122.973H140.656ZM152.059 135.969C150.574 135.969 149.137 135.754 147.746 135.324V132.172C149.012 132.875 150.332 133.227 151.707 133.227C152.73 133.227 153.473 133 153.934 132.547C154.402 132.094 154.637 131.379 154.637 130.402V128.984C153.965 130.219 152.855 130.836 151.309 130.836C150.387 130.836 149.609 130.648 148.977 130.273C148.352 129.891 147.848 129.387 147.465 128.762C147.082 128.129 146.805 127.43 146.633 126.664C146.461 125.898 146.375 125.125 146.375 124.344C146.375 123.578 146.457 122.801 146.621 122.012C146.785 121.215 147.051 120.477 147.418 119.797C147.793 119.117 148.285 118.57 148.895 118.156C149.512 117.742 150.27 117.535 151.168 117.535C152.777 117.535 153.934 118.207 154.637 119.551L154.977 117.875H158.07V130.016C158.07 132.117 157.598 133.633 156.652 134.562C155.707 135.5 154.176 135.969 152.059 135.969ZM152.211 128.117C152.922 128.117 153.504 127.754 153.957 127.027C154.41 126.301 154.637 125.367 154.637 124.227C154.637 123.086 154.41 122.156 153.957 121.438C153.512 120.711 152.934 120.348 152.223 120.348C151.512 120.348 150.93 120.711 150.477 121.438C150.031 122.156 149.809 123.086 149.809 124.227C149.809 125.367 150.031 126.301 150.477 127.027C150.922 127.754 151.5 128.117 152.211 128.117ZM299.07 159.094C297.445 159.094 296.273 158.668 295.555 157.816C294.844 156.957 294.488 155.559 294.488 153.621V143.402H291.008V140.766H297.922V153.621C297.922 154.637 298.082 155.363 298.402 155.801C298.73 156.238 299.273 156.457 300.031 156.457H302.773V159.094H299.07ZM309.582 144.316C309.348 144.316 309.23 144.199 309.23 143.965V140.66C309.23 140.426 309.348 140.309 309.582 140.309H312.312C312.547 140.309 312.664 140.426 312.664 140.66V143.965C312.664 144.199 312.547 144.316 312.312 144.316H309.582ZM313.812 159.141C312.188 159.141 311.016 158.715 310.297 157.863C309.586 157.004 309.23 155.605 309.23 153.668V148.512H306.453V145.875H312.664V153.668C312.664 154.684 312.824 155.41 313.145 155.848C313.473 156.285 314.016 156.504 314.773 156.504H317.516V159.141H313.812ZM327.43 159.34C325.828 159.34 324.664 158.578 323.938 157.055L323.598 159H320.516V140.766H323.938V147.738C324.766 146.285 325.93 145.559 327.43 145.559C328.898 145.559 330.051 146.168 330.887 147.387C331.73 148.598 332.152 150.281 332.152 152.438C332.152 154.594 331.734 156.285 330.898 157.512C330.062 158.73 328.906 159.34 327.43 159.34ZM326.34 156.527C327.059 156.527 327.633 156.156 328.062 155.414C328.5 154.664 328.719 153.66 328.719 152.402C328.719 151.176 328.508 150.207 328.086 149.496C327.672 148.777 327.102 148.418 326.375 148.418C325.633 148.418 325.039 148.789 324.594 149.531C324.156 150.266 323.938 151.246 323.938 152.473C323.938 153.699 324.156 154.684 324.594 155.426C325.031 156.16 325.613 156.527 326.34 156.527ZM338.715 152.156L334.25 145.875H338.258L340.438 149.789L342.629 145.875H346.637L342.219 152.156L347.023 159H343.016L340.438 154.582L337.871 159H333.863L338.715 152.156ZM349.027 156.469C349.027 156.203 349.125 155.961 349.32 155.742L350.902 154.055C351.77 153.117 352.457 152.379 352.965 151.84C353.473 151.301 353.871 150.871 354.16 150.551C354.449 150.23 354.715 149.938 354.957 149.672C355.246 149.336 355.496 149.031 355.707 148.758C355.918 148.477 356.09 148.191 356.223 147.902C356.48 147.379 356.609 146.852 356.609 146.32C356.609 145.57 356.371 144.98 355.895 144.551C355.418 144.121 354.75 143.906 353.891 143.906C353.242 143.906 352.551 144.027 351.816 144.27C351.434 144.395 351.039 144.547 350.633 144.727C350.234 144.898 349.824 145.105 349.402 145.348V142.125C349.871 141.953 350.316 141.809 350.738 141.691C351.16 141.574 351.535 141.484 351.863 141.422C352.668 141.266 353.449 141.188 354.207 141.188C355.059 141.188 355.852 141.293 356.586 141.504C357.328 141.707 357.977 142.031 358.531 142.477C359.031 142.883 359.418 143.379 359.691 143.965C359.973 144.551 360.113 145.25 360.113 146.062C360.113 146.703 359.996 147.332 359.762 147.949C359.473 148.645 359.078 149.312 358.578 149.953C358.305 150.297 357.906 150.742 357.383 151.289C356.859 151.836 356.121 152.586 355.168 153.539C354.598 154.117 354.148 154.543 353.82 154.816C353.492 155.082 353.227 155.285 353.023 155.426C352.82 155.566 352.617 155.742 352.414 155.953H360.137V159H349.027V156.469ZM369.688 159.363C368.664 159.363 367.773 159.191 367.016 158.848C366.266 158.496 365.641 157.949 365.141 157.207C364.625 156.449 364.25 155.508 364.016 154.383C363.789 153.258 363.676 151.969 363.676 150.516C363.676 148.969 363.812 147.609 364.086 146.438C364.359 145.258 364.812 144.266 365.445 143.461C366.633 141.961 368.387 141.211 370.707 141.211C371.324 141.211 371.906 141.27 372.453 141.387C373.031 141.504 373.617 141.68 374.211 141.914V145.055C373.617 144.703 373.027 144.438 372.441 144.258C371.895 144.086 371.344 144 370.789 144C368.297 144 367.008 145.66 366.922 148.98C367.305 148.449 367.773 148.066 368.328 147.832C368.578 147.723 368.871 147.633 369.207 147.562C369.551 147.492 369.938 147.457 370.367 147.457C371.945 147.457 373.156 147.949 374 148.934C374.859 149.926 375.289 151.348 375.289 153.199C375.289 154.145 375.168 155.008 374.926 155.789C374.691 156.562 374.332 157.219 373.848 157.758C372.879 158.828 371.492 159.363 369.688 159.363ZM369.676 156.574C370.027 156.574 370.352 156.512 370.648 156.387C370.945 156.254 371.199 156.043 371.41 155.754C371.809 155.215 372.008 154.434 372.008 153.41C372.008 152.387 371.809 151.602 371.41 151.055C371.012 150.508 370.43 150.234 369.664 150.234C369.273 150.234 368.938 150.305 368.656 150.445C368.383 150.586 368.152 150.785 367.965 151.043C367.566 151.598 367.367 152.383 367.367 153.398C367.367 153.938 367.418 154.402 367.52 154.793C367.629 155.184 367.777 155.508 367.965 155.766C368.168 156.047 368.414 156.254 368.703 156.387C369 156.512 369.324 156.574 369.676 156.574ZM382.848 159.34C382.512 159.34 382.152 159.324 381.77 159.293C381.387 159.262 381.004 159.215 380.621 159.152C380.23 159.09 379.836 159.012 379.438 158.918C379.047 158.816 378.66 158.707 378.277 158.59V155.473C378.629 155.645 378.961 155.785 379.273 155.895C379.586 156.004 379.922 156.102 380.281 156.188C380.938 156.352 381.617 156.434 382.32 156.434C383.562 156.434 384.492 156.172 385.109 155.648C385.742 155.117 386.059 154.379 386.059 153.434C386.059 152.441 385.75 151.684 385.133 151.16C384.523 150.629 383.664 150.363 382.555 150.363C382.281 150.363 381.988 150.383 381.676 150.422C381.371 150.453 381.062 150.508 380.75 150.586C380.43 150.664 380.102 150.766 379.766 150.891C379.438 151.016 379.137 151.145 378.863 151.277V141.504H388.367V144.551H381.664V147.797C381.742 147.766 381.867 147.727 382.039 147.68C382.211 147.625 382.387 147.582 382.566 147.551C382.707 147.527 382.875 147.512 383.07 147.504C383.266 147.488 383.445 147.48 383.609 147.48C384.438 147.48 385.215 147.621 385.941 147.902C386.668 148.176 387.293 148.578 387.816 149.109C388.324 149.625 388.719 150.246 389 150.973C389.281 151.699 389.422 152.512 389.422 153.41C389.422 155.246 388.844 156.695 387.688 157.758C386.539 158.812 384.926 159.34 382.848 159.34Z" fill="white"/>
    <path d="M176.738 122.258H186.008V125.668H176.738V122.258ZM193.895 116.316C193.66 116.316 193.543 116.199 193.543 115.965V112.66C193.543 112.426 193.66 112.309 193.895 112.309H196.625C196.859 112.309 196.977 112.426 196.977 112.66V115.965C196.977 116.199 196.859 116.316 196.625 116.316H193.895ZM198.125 131.141C196.5 131.141 195.328 130.715 194.609 129.863C193.898 129.004 193.543 127.605 193.543 125.668V120.512H190.766V117.875H196.977V125.668C196.977 126.684 197.137 127.41 197.457 127.848C197.785 128.285 198.328 128.504 199.086 128.504H201.828V131.141H198.125ZM176.738 150.258H186.008V153.668H176.738V150.258ZM189.547 145.875H193.027L195.828 156.117L198.641 145.875H202.121L197.949 159H193.719L189.547 145.875ZM211.379 159.34C209.301 159.34 207.684 158.734 206.527 157.523C205.379 156.312 204.805 154.625 204.805 152.461C204.805 150.289 205.375 148.594 206.516 147.375C207.656 146.148 209.242 145.535 211.273 145.535C212.664 145.535 213.996 145.871 215.27 146.543V149.684C214.254 148.793 213.109 148.348 211.836 148.348C210.688 148.348 209.809 148.703 209.199 149.414C208.59 150.125 208.285 151.137 208.285 152.449C208.285 153.754 208.586 154.762 209.188 155.473C209.797 156.176 210.664 156.527 211.789 156.527C213.125 156.527 214.285 156.078 215.27 155.18V158.332C214.105 159.004 212.809 159.34 211.379 159.34ZM224.75 159.34C223.508 159.34 222.43 159.062 221.516 158.508C220.609 157.945 219.91 157.148 219.418 156.117C218.926 155.086 218.68 153.867 218.68 152.461C218.68 151.055 218.926 149.836 219.418 148.805C219.918 147.766 220.625 146.965 221.539 146.402C222.461 145.84 223.551 145.559 224.809 145.559C226.051 145.559 227.121 145.836 228.02 146.391C228.918 146.938 229.609 147.723 230.094 148.746C230.586 149.77 230.832 150.984 230.832 152.391C230.832 153.82 230.582 155.055 230.082 156.094C229.59 157.133 228.891 157.934 227.984 158.496C227.078 159.059 226 159.34 224.75 159.34ZM224.762 156.551C225.566 156.551 226.207 156.184 226.684 155.449C227.16 154.707 227.398 153.707 227.398 152.449C227.398 151.184 227.16 150.184 226.684 149.449C226.207 148.715 225.566 148.348 224.762 148.348C223.949 148.348 223.305 148.719 222.828 149.461C222.352 150.195 222.113 151.191 222.113 152.449C222.113 153.707 222.352 154.707 222.828 155.449C223.305 156.184 223.949 156.551 224.762 156.551ZM237.77 159.34C236.293 159.34 235.137 158.73 234.301 157.512C233.465 156.285 233.047 154.602 233.047 152.461C233.047 150.297 233.469 148.605 234.312 147.387C235.156 146.168 236.316 145.559 237.793 145.559C239.262 145.559 240.418 146.285 241.262 147.738V140.766H244.684V159H241.602L241.262 157.055C240.535 158.578 239.371 159.34 237.77 159.34ZM238.859 156.527C239.586 156.527 240.168 156.16 240.605 155.426C241.043 154.684 241.262 153.699 241.262 152.473C241.262 151.246 241.039 150.266 240.594 149.531C240.156 148.789 239.566 148.418 238.824 148.418C238.098 148.418 237.523 148.777 237.102 149.496C236.688 150.207 236.48 151.176 236.48 152.402C236.48 153.66 236.695 154.664 237.125 155.414C237.562 156.156 238.141 156.527 238.859 156.527ZM254.328 159.34C252.07 159.34 250.352 158.758 249.172 157.594C248 156.422 247.414 154.73 247.414 152.52C247.414 151.121 247.656 149.902 248.141 148.863C248.625 147.816 249.348 147.004 250.309 146.426C251.277 145.848 252.488 145.559 253.941 145.559C255.137 145.559 256.172 145.836 257.047 146.391C257.922 146.945 258.598 147.719 259.074 148.711C259.559 149.695 259.801 150.844 259.801 152.156V153.551H250.906C250.906 155.598 252.102 156.621 254.492 156.621C256.062 156.621 257.648 156.148 259.25 155.203V158.355C257.656 159.012 256.016 159.34 254.328 159.34ZM256.344 150.973C256.344 150.066 256.121 149.383 255.676 148.922C255.23 148.453 254.594 148.219 253.766 148.219C252.922 148.219 252.262 148.457 251.785 148.934C251.309 149.41 251.027 150.09 250.941 150.973H256.344ZM269.223 159.34C267.145 159.34 265.527 158.734 264.371 157.523C263.223 156.312 262.648 154.625 262.648 152.461C262.648 150.289 263.219 148.594 264.359 147.375C265.5 146.148 267.086 145.535 269.117 145.535C270.508 145.535 271.84 145.871 273.113 146.543V149.684C272.098 148.793 270.953 148.348 269.68 148.348C268.531 148.348 267.652 148.703 267.043 149.414C266.434 150.125 266.129 151.137 266.129 152.449C266.129 153.754 266.43 154.762 267.031 155.473C267.641 156.176 268.508 156.527 269.633 156.527C270.969 156.527 272.129 156.078 273.113 155.18V158.332C271.949 159.004 270.652 159.34 269.223 159.34Z" fill="#B2B2B2"/>
    <path d="M222.816 116.316C222.582 116.316 222.465 116.199 222.465 115.965V112.66C222.465 112.426 222.582 112.309 222.816 112.309H225.547C225.781 112.309 225.898 112.426 225.898 112.66V115.965C225.898 116.199 225.781 116.316 225.547 116.316H222.816ZM227.047 131.141C225.422 131.141 224.25 130.715 223.531 129.863C222.82 129.004 222.465 127.605 222.465 125.668V120.512H219.688V117.875H225.898V125.668C225.898 126.684 226.059 127.41 226.379 127.848C226.707 128.285 227.25 128.504 228.008 128.504H230.75V131.141H227.047ZM234.008 117.875H237.078L237.418 119.844C237.66 119.109 238.074 118.547 238.66 118.156C239.254 117.758 239.973 117.559 240.816 117.559C242.035 117.559 242.961 117.977 243.594 118.812C244.227 119.648 244.543 120.871 244.543 122.48V131H241.133V123.008C241.133 122.086 241 121.414 240.734 120.992C240.477 120.562 240.074 120.348 239.527 120.348C238.863 120.348 238.344 120.629 237.969 121.191C237.602 121.754 237.418 122.52 237.418 123.488V131H234.008V117.875ZM248.211 117.875H251.293L251.633 119.844C252.359 118.32 253.523 117.559 255.125 117.559C256.602 117.559 257.758 118.172 258.594 119.398C259.43 120.617 259.848 122.305 259.848 124.461C259.848 126.617 259.43 128.305 258.594 129.523C257.758 130.734 256.609 131.34 255.148 131.34C253.609 131.34 252.438 130.609 251.633 129.148V135.992H248.211V117.875ZM254.035 128.48C254.754 128.48 255.328 128.109 255.758 127.367C256.195 126.617 256.414 125.613 256.414 124.355C256.414 123.129 256.203 122.16 255.781 121.449C255.367 120.73 254.797 120.371 254.07 120.371C253.328 120.371 252.734 120.742 252.289 121.484C251.852 122.219 251.633 123.199 251.633 124.426C251.633 125.652 251.852 126.637 252.289 127.379C252.727 128.113 253.309 128.48 254.035 128.48ZM266.539 131.34C265.32 131.34 264.391 130.922 263.75 130.086C263.109 129.242 262.789 128.02 262.789 126.418V117.875H266.223V125.891C266.223 127.648 266.762 128.527 267.84 128.527C268.496 128.527 269.004 128.254 269.363 127.707C269.73 127.16 269.914 126.395 269.914 125.41V117.875H273.348V131H270.254L269.914 129.055C269.391 130.578 268.266 131.34 266.539 131.34ZM285.066 131.047C283.777 131.047 282.766 130.914 282.031 130.648C281.297 130.383 280.777 129.926 280.473 129.277C280.176 128.629 280.027 127.738 280.027 126.605V120.512H276.676V117.875H280.027V114.289L283.461 112.766V117.875H287.949V120.512H283.461V126.77C283.461 127.348 283.605 127.766 283.895 128.023C284.191 128.281 284.664 128.41 285.312 128.41H287.949V131.047H285.066ZM297.008 131.492C296.703 131.492 296.434 131.438 296.199 131.328C295.965 131.227 295.75 131.078 295.555 130.883C295.148 130.477 294.945 129.965 294.945 129.348C294.945 128.707 295.148 128.184 295.555 127.777C295.953 127.379 296.441 127.18 297.02 127.18C297.605 127.18 298.098 127.379 298.496 127.777C298.895 128.176 299.094 128.699 299.094 129.348C299.094 129.973 298.895 130.484 298.496 130.883C298.09 131.289 297.594 131.492 297.008 131.492ZM305.258 117.875H307.414L307.754 119.234C307.949 118.711 308.258 118.301 308.68 118.004C309.102 117.707 309.574 117.559 310.098 117.559C310.652 117.559 311.148 117.719 311.586 118.039C312.023 118.352 312.289 118.734 312.383 119.188C312.891 118.102 313.727 117.559 314.891 117.559C315.992 117.559 316.758 117.945 317.188 118.719C317.617 119.5 317.832 121.129 317.832 123.605V131H315.02V122.574C315.02 121.621 314.945 120.973 314.797 120.629C314.648 120.293 314.375 120.125 313.977 120.125C313.594 120.125 313.328 120.289 313.18 120.617C313.016 120.977 312.934 121.629 312.934 122.574V131H310.156V122.574C310.156 121.652 310.078 121.004 309.922 120.629C309.773 120.293 309.504 120.125 309.113 120.125C308.715 120.125 308.445 120.281 308.305 120.594C308.148 120.906 308.07 121.566 308.07 122.574V131H305.258V117.875ZM320.516 117.875H323.598L323.938 119.844C324.664 118.32 325.828 117.559 327.43 117.559C328.906 117.559 330.062 118.172 330.898 119.398C331.734 120.617 332.152 122.305 332.152 124.461C332.152 126.617 331.734 128.305 330.898 129.523C330.062 130.734 328.914 131.34 327.453 131.34C325.914 131.34 324.742 130.609 323.938 129.148V135.992H320.516V117.875ZM326.34 128.48C327.059 128.48 327.633 128.109 328.062 127.367C328.5 126.617 328.719 125.613 328.719 124.355C328.719 123.129 328.508 122.16 328.086 121.449C327.672 120.73 327.102 120.371 326.375 120.371C325.633 120.371 325.039 120.742 324.594 121.484C324.156 122.219 323.938 123.199 323.938 124.426C323.938 125.652 324.156 126.637 324.594 127.379C325.031 128.113 325.613 128.48 326.34 128.48ZM341.352 127.227H334.414V123.875L341.047 113.504H344.668V124.262H346.59V127.227H344.668V131H341.352V127.227ZM341.352 124.262V117.348L336.934 124.262H341.352Z" fill="#4696DF"/>
    <path d="M181.367 187.34C180.125 187.34 179.047 187.062 178.133 186.508C177.227 185.945 176.527 185.148 176.035 184.117C175.543 183.086 175.297 181.867 175.297 180.461C175.297 179.055 175.543 177.836 176.035 176.805C176.535 175.766 177.242 174.965 178.156 174.402C179.078 173.84 180.168 173.559 181.426 173.559C182.668 173.559 183.738 173.836 184.637 174.391C185.535 174.938 186.227 175.723 186.711 176.746C187.203 177.77 187.449 178.984 187.449 180.391C187.449 181.82 187.199 183.055 186.699 184.094C186.207 185.133 185.508 185.934 184.602 186.496C183.695 187.059 182.617 187.34 181.367 187.34ZM181.379 184.551C182.184 184.551 182.824 184.184 183.301 183.449C183.777 182.707 184.016 181.707 184.016 180.449C184.016 179.184 183.777 178.184 183.301 177.449C182.824 176.715 182.184 176.348 181.379 176.348C180.566 176.348 179.922 176.719 179.445 177.461C178.969 178.195 178.73 179.191 178.73 180.449C178.73 181.707 178.969 182.707 179.445 183.449C179.922 184.184 180.566 184.551 181.379 184.551ZM194.234 187.34C193.016 187.34 192.086 186.922 191.445 186.086C190.805 185.242 190.484 184.02 190.484 182.418V173.875H193.918V181.891C193.918 183.648 194.457 184.527 195.535 184.527C196.191 184.527 196.699 184.254 197.059 183.707C197.426 183.16 197.609 182.395 197.609 181.41V173.875H201.043V187H197.949L197.609 185.055C197.086 186.578 195.961 187.34 194.234 187.34ZM212.762 187.047C211.473 187.047 210.461 186.914 209.727 186.648C208.992 186.383 208.473 185.926 208.168 185.277C207.871 184.629 207.723 183.738 207.723 182.605V176.512H204.371V173.875H207.723V170.289L211.156 168.766V173.875H215.645V176.512H211.156V182.77C211.156 183.348 211.301 183.766 211.59 184.023C211.887 184.281 212.359 184.41 213.008 184.41H215.645V187.047H212.762ZM219.289 173.875H222.371L222.711 175.844C223.438 174.32 224.602 173.559 226.203 173.559C227.68 173.559 228.836 174.172 229.672 175.398C230.508 176.617 230.926 178.305 230.926 180.461C230.926 182.617 230.508 184.305 229.672 185.523C228.836 186.734 227.688 187.34 226.227 187.34C224.688 187.34 223.516 186.609 222.711 185.148V191.992H219.289V173.875ZM225.113 184.48C225.832 184.48 226.406 184.109 226.836 183.367C227.273 182.617 227.492 181.613 227.492 180.355C227.492 179.129 227.281 178.16 226.859 177.449C226.445 176.73 225.875 176.371 225.148 176.371C224.406 176.371 223.812 176.742 223.367 177.484C222.93 178.219 222.711 179.199 222.711 180.426C222.711 181.652 222.93 182.637 223.367 183.379C223.805 184.113 224.387 184.48 225.113 184.48ZM237.617 187.34C236.398 187.34 235.469 186.922 234.828 186.086C234.188 185.242 233.867 184.02 233.867 182.418V173.875H237.301V181.891C237.301 183.648 237.84 184.527 238.918 184.527C239.574 184.527 240.082 184.254 240.441 183.707C240.809 183.16 240.992 182.395 240.992 181.41V173.875H244.426V187H241.332L240.992 185.055C240.469 186.578 239.344 187.34 237.617 187.34ZM256.145 187.047C254.855 187.047 253.844 186.914 253.109 186.648C252.375 186.383 251.855 185.926 251.551 185.277C251.254 184.629 251.105 183.738 251.105 182.605V176.512H247.754V173.875H251.105V170.289L254.539 168.766V173.875H259.027V176.512H254.539V182.77C254.539 183.348 254.684 183.766 254.973 184.023C255.27 184.281 255.742 184.41 256.391 184.41H259.027V187.047H256.145ZM268.086 187.492C267.781 187.492 267.512 187.438 267.277 187.328C267.043 187.227 266.828 187.078 266.633 186.883C266.227 186.477 266.023 185.965 266.023 185.348C266.023 184.707 266.227 184.184 266.633 183.777C267.031 183.379 267.52 183.18 268.098 183.18C268.684 183.18 269.176 183.379 269.574 183.777C269.973 184.176 270.172 184.699 270.172 185.348C270.172 185.973 269.973 186.484 269.574 186.883C269.168 187.289 268.672 187.492 268.086 187.492ZM276.336 173.875H278.492L278.832 175.234C279.027 174.711 279.336 174.301 279.758 174.004C280.18 173.707 280.652 173.559 281.176 173.559C281.73 173.559 282.227 173.719 282.664 174.039C283.102 174.352 283.367 174.734 283.461 175.188C283.969 174.102 284.805 173.559 285.969 173.559C287.07 173.559 287.836 173.945 288.266 174.719C288.695 175.5 288.91 177.129 288.91 179.605V187H286.098V178.574C286.098 177.621 286.023 176.973 285.875 176.629C285.727 176.293 285.453 176.125 285.055 176.125C284.672 176.125 284.406 176.289 284.258 176.617C284.094 176.977 284.012 177.629 284.012 178.574V187H281.234V178.574C281.234 177.652 281.156 177.004 281 176.629C280.852 176.293 280.582 176.125 280.191 176.125C279.793 176.125 279.523 176.281 279.383 176.594C279.227 176.906 279.148 177.566 279.148 178.574V187H276.336V173.875ZM291.594 173.875H294.676L295.016 175.844C295.742 174.32 296.906 173.559 298.508 173.559C299.984 173.559 301.141 174.172 301.977 175.398C302.812 176.617 303.23 178.305 303.23 180.461C303.23 182.617 302.812 184.305 301.977 185.523C301.141 186.734 299.992 187.34 298.531 187.34C296.992 187.34 295.82 186.609 295.016 185.148V191.992H291.594V173.875ZM297.418 184.48C298.137 184.48 298.711 184.109 299.141 183.367C299.578 182.617 299.797 181.613 299.797 180.355C299.797 179.129 299.586 178.16 299.164 177.449C298.75 176.73 298.18 176.371 297.453 176.371C296.711 176.371 296.117 176.742 295.672 177.484C295.234 178.219 295.016 179.199 295.016 180.426C295.016 181.652 295.234 182.637 295.672 183.379C296.109 184.113 296.691 184.48 297.418 184.48ZM312.43 183.227H305.492V179.875L312.125 169.504H315.746V180.262H317.668V183.227H315.746V187H312.43V183.227ZM312.43 180.262V173.348L308.012 180.262H312.43Z" fill="#00CB00"/>
    <path d="M24 223L606 223" stroke="#2D3239" stroke-width="3" stroke-linecap="round"/>
    <path d="M54.8447 264.54C54.6299 264.54 54.5225 264.433 54.5225 264.218V261.188C54.5225 260.974 54.6299 260.866 54.8447 260.866H57.3477C57.5625 260.866 57.6699 260.974 57.6699 261.188V264.218C57.6699 264.433 57.5625 264.54 57.3477 264.54H54.8447ZM58.7227 278.129C57.2331 278.129 56.1589 277.739 55.5 276.958C54.8483 276.17 54.5225 274.888 54.5225 273.112V268.386H51.9766V265.969H57.6699V273.112C57.6699 274.043 57.8167 274.709 58.1104 275.11C58.4111 275.511 58.9089 275.712 59.6035 275.712H62.1172V278.129H58.7227ZM65.1035 265.969H67.918L68.2295 267.773C68.4515 267.1 68.8311 266.585 69.3682 266.227C69.9124 265.861 70.5713 265.679 71.3447 265.679C72.4619 265.679 73.3105 266.062 73.8906 266.828C74.4707 267.594 74.7607 268.715 74.7607 270.19V278H71.6348V270.674C71.6348 269.829 71.513 269.213 71.2695 268.826C71.0332 268.432 70.6644 268.235 70.1631 268.235C69.5544 268.235 69.0781 268.493 68.7344 269.009C68.3978 269.524 68.2295 270.226 68.2295 271.114V278H65.1035V265.969ZM78.123 265.969H80.9482L81.2598 267.773C81.9258 266.377 82.9928 265.679 84.4609 265.679C85.8145 265.679 86.8743 266.241 87.6406 267.365C88.4069 268.482 88.79 270.029 88.79 272.006C88.79 273.982 88.4069 275.529 87.6406 276.646C86.8743 277.757 85.8216 278.312 84.4824 278.312C83.0716 278.312 81.9974 277.642 81.2598 276.303V282.576H78.123V265.969ZM83.4619 275.69C84.1208 275.69 84.6471 275.35 85.041 274.67C85.4421 273.982 85.6426 273.062 85.6426 271.909C85.6426 270.785 85.4492 269.897 85.0625 269.245C84.6829 268.586 84.1602 268.257 83.4941 268.257C82.8138 268.257 82.2695 268.597 81.8613 269.277C81.4603 269.951 81.2598 270.849 81.2598 271.974C81.2598 273.098 81.4603 274 81.8613 274.681C82.2624 275.354 82.7959 275.69 83.4619 275.69ZM94.9238 278.312C93.8066 278.312 92.9544 277.928 92.3672 277.162C91.7799 276.389 91.4863 275.268 91.4863 273.8V265.969H94.6338V273.316C94.6338 274.928 95.1279 275.733 96.1162 275.733C96.7178 275.733 97.1833 275.483 97.5127 274.981C97.8493 274.48 98.0176 273.778 98.0176 272.876V265.969H101.165V278H98.3291L98.0176 276.217C97.5378 277.613 96.5065 278.312 94.9238 278.312ZM111.907 278.043C110.726 278.043 109.798 277.921 109.125 277.678C108.452 277.434 107.976 277.015 107.696 276.421C107.424 275.826 107.288 275.01 107.288 273.972V268.386H104.216V265.969H107.288V262.682L110.436 261.285V265.969H114.55V268.386H110.436V274.122C110.436 274.652 110.568 275.035 110.833 275.271C111.105 275.508 111.538 275.626 112.133 275.626H114.55V278.043H111.907ZM122.854 278.451C122.574 278.451 122.327 278.401 122.112 278.301C121.897 278.208 121.701 278.072 121.521 277.893C121.149 277.52 120.963 277.051 120.963 276.485C120.963 275.898 121.149 275.418 121.521 275.046C121.887 274.681 122.334 274.498 122.864 274.498C123.401 274.498 123.853 274.681 124.218 275.046C124.583 275.411 124.766 275.891 124.766 276.485C124.766 277.058 124.583 277.527 124.218 277.893C123.845 278.265 123.391 278.451 122.854 278.451ZM130.416 265.969H132.393L132.704 267.215C132.883 266.735 133.166 266.359 133.553 266.087C133.939 265.815 134.373 265.679 134.853 265.679C135.361 265.679 135.816 265.826 136.217 266.119C136.618 266.406 136.861 266.757 136.947 267.172C137.413 266.176 138.179 265.679 139.246 265.679C140.256 265.679 140.958 266.033 141.352 266.742C141.745 267.458 141.942 268.951 141.942 271.222V278H139.364V270.276C139.364 269.403 139.296 268.808 139.16 268.493C139.024 268.185 138.773 268.031 138.408 268.031C138.057 268.031 137.814 268.182 137.678 268.482C137.527 268.812 137.452 269.41 137.452 270.276V278H134.906V270.276C134.906 269.431 134.835 268.837 134.691 268.493C134.555 268.185 134.308 268.031 133.95 268.031C133.585 268.031 133.338 268.174 133.209 268.461C133.066 268.747 132.994 269.353 132.994 270.276V278H130.416V265.969ZM144.402 265.969H147.228L147.539 267.773C148.205 266.377 149.272 265.679 150.74 265.679C152.094 265.679 153.154 266.241 153.92 267.365C154.686 268.482 155.069 270.029 155.069 272.006C155.069 273.982 154.686 275.529 153.92 276.646C153.154 277.757 152.101 278.312 150.762 278.312C149.351 278.312 148.277 277.642 147.539 276.303V282.576H144.402V265.969ZM149.741 275.69C150.4 275.69 150.926 275.35 151.32 274.67C151.721 273.982 151.922 273.062 151.922 271.909C151.922 270.785 151.729 269.897 151.342 269.245C150.962 268.586 150.439 268.257 149.773 268.257C149.093 268.257 148.549 268.597 148.141 269.277C147.74 269.951 147.539 270.849 147.539 271.974C147.539 273.098 147.74 274 148.141 274.681C148.542 275.354 149.075 275.69 149.741 275.69ZM163.502 274.541H157.143V271.469L163.223 261.962H166.542V271.823H168.304V274.541H166.542V278H163.502V274.541ZM163.502 271.823V265.485L159.452 271.823H163.502Z" fill="#4696DF"/>
    <path d="M57.6172 325.312C56.4785 325.312 55.4902 325.057 54.6523 324.549C53.8216 324.033 53.1807 323.303 52.7295 322.357C52.2783 321.412 52.0527 320.295 52.0527 319.006C52.0527 317.717 52.2783 316.6 52.7295 315.654C53.1878 314.702 53.8359 313.968 54.6738 313.452C55.5189 312.937 56.5179 312.679 57.6709 312.679C58.8096 312.679 59.7907 312.933 60.6143 313.441C61.4378 313.943 62.0716 314.662 62.5156 315.601C62.9668 316.539 63.1924 317.652 63.1924 318.941C63.1924 320.252 62.9632 321.383 62.5049 322.336C62.0537 323.288 61.4128 324.022 60.582 324.538C59.7513 325.054 58.763 325.312 57.6172 325.312ZM57.6279 322.755C58.3656 322.755 58.9528 322.418 59.3896 321.745C59.8265 321.065 60.0449 320.148 60.0449 318.995C60.0449 317.835 59.8265 316.918 59.3896 316.245C58.9528 315.572 58.3656 315.235 57.6279 315.235C56.8831 315.235 56.2923 315.576 55.8555 316.256C55.4186 316.929 55.2002 317.842 55.2002 318.995C55.2002 320.148 55.4186 321.065 55.8555 321.745C56.2923 322.418 56.8831 322.755 57.6279 322.755ZM69.4121 325.312C68.2949 325.312 67.4427 324.928 66.8555 324.162C66.2682 323.389 65.9746 322.268 65.9746 320.8V312.969H69.1221V320.316C69.1221 321.928 69.6162 322.733 70.6045 322.733C71.2061 322.733 71.6715 322.483 72.001 321.981C72.3376 321.48 72.5059 320.778 72.5059 319.876V312.969H75.6533V325H72.8174L72.5059 323.217C72.026 324.613 70.9948 325.312 69.4121 325.312ZM86.3955 325.043C85.2139 325.043 84.2865 324.921 83.6133 324.678C82.9401 324.434 82.4639 324.015 82.1846 323.421C81.9124 322.826 81.7764 322.01 81.7764 320.972V315.386H78.7041V312.969H81.7764V309.682L84.9238 308.285V312.969H89.0381V315.386H84.9238V321.122C84.9238 321.652 85.0563 322.035 85.3213 322.271C85.5934 322.508 86.0267 322.626 86.6211 322.626H89.0381V325.043H86.3955ZM92.3789 312.969H95.2041L95.5156 314.773C96.1816 313.377 97.2487 312.679 98.7168 312.679C100.07 312.679 101.13 313.241 101.896 314.365C102.663 315.482 103.046 317.029 103.046 319.006C103.046 320.982 102.663 322.529 101.896 323.646C101.13 324.757 100.077 325.312 98.7383 325.312C97.3275 325.312 96.2533 324.642 95.5156 323.303V329.576H92.3789V312.969ZM97.7178 322.69C98.3766 322.69 98.903 322.35 99.2969 321.67C99.6979 320.982 99.8984 320.062 99.8984 318.909C99.8984 317.785 99.7051 316.897 99.3184 316.245C98.9388 315.586 98.416 315.257 97.75 315.257C97.0697 315.257 96.5254 315.597 96.1172 316.277C95.7161 316.951 95.5156 317.849 95.5156 318.974C95.5156 320.098 95.7161 321 96.1172 321.681C96.5182 322.354 97.0518 322.69 97.7178 322.69ZM109.18 325.312C108.062 325.312 107.21 324.928 106.623 324.162C106.036 323.389 105.742 322.268 105.742 320.8V312.969H108.89V320.316C108.89 321.928 109.384 322.733 110.372 322.733C110.974 322.733 111.439 322.483 111.769 321.981C112.105 321.48 112.273 320.778 112.273 319.876V312.969H115.421V325H112.585L112.273 323.217C111.794 324.613 110.762 325.312 109.18 325.312ZM126.163 325.043C124.981 325.043 124.054 324.921 123.381 324.678C122.708 324.434 122.231 324.015 121.952 323.421C121.68 322.826 121.544 322.01 121.544 320.972V315.386H118.472V312.969H121.544V309.682L124.691 308.285V312.969H128.806V315.386H124.691V321.122C124.691 321.652 124.824 322.035 125.089 322.271C125.361 322.508 125.794 322.626 126.389 322.626H128.806V325.043H126.163ZM137.109 325.451C136.83 325.451 136.583 325.401 136.368 325.301C136.153 325.208 135.956 325.072 135.777 324.893C135.405 324.52 135.219 324.051 135.219 323.485C135.219 322.898 135.405 322.418 135.777 322.046C136.143 321.681 136.59 321.498 137.12 321.498C137.657 321.498 138.108 321.681 138.474 322.046C138.839 322.411 139.021 322.891 139.021 323.485C139.021 324.058 138.839 324.527 138.474 324.893C138.101 325.265 137.646 325.451 137.109 325.451ZM144.672 312.969H146.648L146.96 314.215C147.139 313.735 147.422 313.359 147.809 313.087C148.195 312.815 148.629 312.679 149.108 312.679C149.617 312.679 150.072 312.826 150.473 313.119C150.874 313.406 151.117 313.757 151.203 314.172C151.669 313.176 152.435 312.679 153.502 312.679C154.512 312.679 155.214 313.033 155.607 313.742C156.001 314.458 156.198 315.951 156.198 318.222V325H153.62V317.276C153.62 316.403 153.552 315.808 153.416 315.493C153.28 315.185 153.029 315.031 152.664 315.031C152.313 315.031 152.07 315.182 151.934 315.482C151.783 315.812 151.708 316.41 151.708 317.276V325H149.162V317.276C149.162 316.431 149.09 315.837 148.947 315.493C148.811 315.185 148.564 315.031 148.206 315.031C147.841 315.031 147.594 315.174 147.465 315.461C147.322 315.747 147.25 316.353 147.25 317.276V325H144.672V312.969ZM158.658 312.969H161.483L161.795 314.773C162.461 313.377 163.528 312.679 164.996 312.679C166.35 312.679 167.41 313.241 168.176 314.365C168.942 315.482 169.325 317.029 169.325 319.006C169.325 320.982 168.942 322.529 168.176 323.646C167.41 324.757 166.357 325.312 165.018 325.312C163.607 325.312 162.533 324.642 161.795 323.303V329.576H158.658V312.969ZM163.997 322.69C164.656 322.69 165.182 322.35 165.576 321.67C165.977 320.982 166.178 320.062 166.178 318.909C166.178 317.785 165.984 316.897 165.598 316.245C165.218 315.586 164.695 315.257 164.029 315.257C163.349 315.257 162.805 315.597 162.396 316.277C161.995 316.951 161.795 317.849 161.795 318.974C161.795 320.098 161.995 321 162.396 321.681C162.798 322.354 163.331 322.69 163.997 322.69ZM177.758 321.541H171.398V318.469L177.479 308.962H180.798V318.823H182.56V321.541H180.798V325H177.758V321.541ZM177.758 318.823V312.485L173.708 318.823H177.758Z" fill="#00CB00"/>
    <rect x="223" y="249" width="348" height="35" rx="5" fill="#4696DF"/>
    <path d="M247.262 274H244.244V265.738C244.244 265.51 244.247 265.23 244.254 264.898C244.26 264.56 244.27 264.215 244.283 263.863C244.296 263.505 244.309 263.183 244.322 262.896C244.251 262.981 244.104 263.128 243.883 263.336C243.668 263.538 243.466 263.72 243.277 263.883L241.637 265.201L240.182 263.385L244.781 259.723H247.262V274ZM261.148 266.861C261.148 268.014 261.057 269.042 260.875 269.947C260.699 270.852 260.413 271.62 260.016 272.252C259.625 272.883 259.111 273.365 258.473 273.697C257.835 274.029 257.06 274.195 256.148 274.195C255.003 274.195 254.062 273.906 253.326 273.326C252.59 272.74 252.047 271.9 251.695 270.807C251.344 269.706 251.168 268.391 251.168 266.861C251.168 265.318 251.327 264 251.646 262.906C251.972 261.806 252.499 260.963 253.229 260.377C253.958 259.791 254.931 259.498 256.148 259.498C257.288 259.498 258.225 259.791 258.961 260.377C259.703 260.956 260.253 261.796 260.611 262.896C260.969 263.99 261.148 265.312 261.148 266.861ZM254.166 266.861C254.166 267.949 254.225 268.857 254.342 269.586C254.465 270.309 254.671 270.852 254.957 271.217C255.243 271.581 255.641 271.764 256.148 271.764C256.65 271.764 257.044 271.585 257.33 271.227C257.623 270.862 257.831 270.318 257.955 269.596C258.079 268.867 258.141 267.955 258.141 266.861C258.141 265.774 258.079 264.866 257.955 264.137C257.831 263.408 257.623 262.861 257.33 262.496C257.044 262.125 256.65 261.939 256.148 261.939C255.641 261.939 255.243 262.125 254.957 262.496C254.671 262.861 254.465 263.408 254.342 264.137C254.225 264.866 254.166 265.774 254.166 266.861ZM272.613 265.816C272.613 266.637 272.551 267.451 272.428 268.258C272.311 269.065 272.102 269.827 271.803 270.543C271.503 271.253 271.083 271.884 270.543 272.438C270.003 272.984 269.316 273.414 268.482 273.727C267.649 274.039 266.64 274.195 265.455 274.195C265.175 274.195 264.846 274.182 264.469 274.156C264.091 274.137 263.779 274.104 263.531 274.059V271.637C263.792 271.702 264.068 271.754 264.361 271.793C264.654 271.826 264.951 271.842 265.25 271.842C266.441 271.842 267.359 271.653 268.004 271.275C268.655 270.898 269.111 270.374 269.371 269.703C269.638 269.033 269.791 268.258 269.83 267.379H269.713C269.524 267.691 269.299 267.975 269.039 268.229C268.785 268.476 268.46 268.674 268.062 268.824C267.665 268.967 267.161 269.039 266.549 269.039C265.735 269.039 265.025 268.863 264.42 268.512C263.821 268.154 263.355 267.639 263.023 266.969C262.698 266.292 262.535 265.475 262.535 264.518C262.535 263.482 262.73 262.597 263.121 261.861C263.518 261.119 264.081 260.549 264.811 260.152C265.54 259.755 266.399 259.557 267.389 259.557C268.118 259.557 268.798 259.684 269.43 259.938C270.061 260.185 270.615 260.566 271.09 261.08C271.572 261.594 271.946 262.245 272.213 263.033C272.48 263.821 272.613 264.749 272.613 265.816ZM267.447 261.979C266.861 261.979 266.383 262.18 266.012 262.584C265.641 262.988 265.455 263.619 265.455 264.479C265.455 265.169 265.615 265.715 265.934 266.119C266.253 266.523 266.738 266.725 267.389 266.725C267.838 266.725 268.229 266.627 268.561 266.432C268.893 266.23 269.15 265.979 269.332 265.68C269.521 265.374 269.615 265.061 269.615 264.742C269.615 264.41 269.57 264.081 269.479 263.756C269.387 263.43 269.251 263.134 269.068 262.867C268.886 262.6 268.658 262.385 268.385 262.223C268.118 262.06 267.805 261.979 267.447 261.979ZM286.373 274L282.936 262.799H282.848C282.861 263.066 282.88 263.469 282.906 264.01C282.939 264.544 282.968 265.113 282.994 265.719C283.02 266.324 283.033 266.871 283.033 267.359V274H280.328V259.723H284.449L287.828 270.641H287.887L291.471 259.723H295.592V274H292.77V267.242C292.77 266.793 292.776 266.275 292.789 265.689C292.809 265.104 292.831 264.547 292.857 264.02C292.883 263.486 292.903 263.085 292.916 262.818H292.828L289.146 274H286.373ZM299.195 259.723H303.639C305.54 259.723 306.979 259.99 307.955 260.523C308.932 261.057 309.42 261.995 309.42 263.336C309.42 263.876 309.332 264.365 309.156 264.801C308.987 265.237 308.74 265.595 308.414 265.875C308.089 266.155 307.691 266.337 307.223 266.422V266.52C307.698 266.617 308.128 266.786 308.512 267.027C308.896 267.262 309.202 267.607 309.43 268.062C309.664 268.512 309.781 269.111 309.781 269.859C309.781 270.725 309.57 271.467 309.146 272.086C308.723 272.704 308.118 273.18 307.33 273.512C306.549 273.837 305.618 274 304.537 274H299.195V259.723ZM302.223 265.377H303.98C304.859 265.377 305.468 265.24 305.807 264.967C306.145 264.687 306.314 264.277 306.314 263.736C306.314 263.189 306.113 262.799 305.709 262.564C305.312 262.324 304.68 262.203 303.814 262.203H302.223V265.377ZM302.223 267.779V271.5H304.195C305.107 271.5 305.742 271.324 306.1 270.973C306.458 270.621 306.637 270.149 306.637 269.557C306.637 269.205 306.559 268.896 306.402 268.629C306.246 268.362 305.982 268.154 305.611 268.004C305.247 267.854 304.742 267.779 304.098 267.779H302.223Z" fill="#062B4D"/>
    <rect x="224" y="299" width="348" height="35" rx="5" fill="#00CB00" fill-opacity="0.3"/>
    <rect x="223" y="299" width="100" height="35" rx="5" fill="#00CB00"/>
    <path d="M249.225 312.916C249.225 313.574 249.088 314.143 248.814 314.625C248.541 315.107 248.17 315.501 247.701 315.807C247.239 316.113 246.718 316.337 246.139 316.48V316.539C247.285 316.682 248.154 317.034 248.746 317.594C249.345 318.154 249.645 318.902 249.645 319.84C249.645 320.673 249.439 321.419 249.029 322.076C248.626 322.734 248.001 323.251 247.154 323.629C246.308 324.007 245.217 324.195 243.883 324.195C243.095 324.195 242.359 324.13 241.676 324C240.999 323.876 240.361 323.684 239.762 323.424V320.855C240.374 321.168 241.015 321.406 241.686 321.568C242.356 321.725 242.981 321.803 243.561 321.803C244.641 321.803 245.396 321.617 245.826 321.246C246.262 320.868 246.48 320.341 246.48 319.664C246.48 319.267 246.38 318.932 246.178 318.658C245.976 318.385 245.624 318.176 245.123 318.033C244.628 317.89 243.935 317.818 243.043 317.818H241.959V315.504H243.062C243.941 315.504 244.609 315.423 245.064 315.26C245.527 315.09 245.839 314.863 246.002 314.576C246.171 314.283 246.256 313.951 246.256 313.58C246.256 313.072 246.1 312.675 245.787 312.389C245.475 312.102 244.954 311.959 244.225 311.959C243.769 311.959 243.352 312.018 242.975 312.135C242.604 312.245 242.268 312.382 241.969 312.545C241.669 312.701 241.406 312.854 241.178 313.004L239.781 310.924C240.341 310.52 240.995 310.185 241.744 309.918C242.499 309.651 243.398 309.518 244.439 309.518C245.911 309.518 247.076 309.814 247.936 310.406C248.795 310.999 249.225 311.835 249.225 312.916ZM261.148 316.861C261.148 318.014 261.057 319.042 260.875 319.947C260.699 320.852 260.413 321.62 260.016 322.252C259.625 322.883 259.111 323.365 258.473 323.697C257.835 324.029 257.06 324.195 256.148 324.195C255.003 324.195 254.062 323.906 253.326 323.326C252.59 322.74 252.047 321.9 251.695 320.807C251.344 319.706 251.168 318.391 251.168 316.861C251.168 315.318 251.327 314 251.646 312.906C251.972 311.806 252.499 310.963 253.229 310.377C253.958 309.791 254.931 309.498 256.148 309.498C257.288 309.498 258.225 309.791 258.961 310.377C259.703 310.956 260.253 311.796 260.611 312.896C260.969 313.99 261.148 315.312 261.148 316.861ZM254.166 316.861C254.166 317.949 254.225 318.857 254.342 319.586C254.465 320.309 254.671 320.852 254.957 321.217C255.243 321.581 255.641 321.764 256.148 321.764C256.65 321.764 257.044 321.585 257.33 321.227C257.623 320.862 257.831 320.318 257.955 319.596C258.079 318.867 258.141 317.955 258.141 316.861C258.141 315.774 258.079 314.866 257.955 314.137C257.831 313.408 257.623 312.861 257.33 312.496C257.044 312.125 256.65 311.939 256.148 311.939C255.641 311.939 255.243 312.125 254.957 312.496C254.671 312.861 254.465 313.408 254.342 314.137C254.225 314.866 254.166 315.774 254.166 316.861ZM274.928 324L271.49 312.799H271.402C271.415 313.066 271.435 313.469 271.461 314.01C271.493 314.544 271.523 315.113 271.549 315.719C271.575 316.324 271.588 316.871 271.588 317.359V324H268.883V309.723H273.004L276.383 320.641H276.441L280.025 309.723H284.146V324H281.324V317.242C281.324 316.793 281.331 316.275 281.344 315.689C281.363 315.104 281.386 314.547 281.412 314.02C281.438 313.486 281.458 313.085 281.471 312.818H281.383L277.701 324H274.928ZM287.75 309.723H292.193C294.094 309.723 295.533 309.99 296.51 310.523C297.486 311.057 297.975 311.995 297.975 313.336C297.975 313.876 297.887 314.365 297.711 314.801C297.542 315.237 297.294 315.595 296.969 315.875C296.643 316.155 296.246 316.337 295.777 316.422V316.52C296.253 316.617 296.682 316.786 297.066 317.027C297.451 317.262 297.757 317.607 297.984 318.062C298.219 318.512 298.336 319.111 298.336 319.859C298.336 320.725 298.124 321.467 297.701 322.086C297.278 322.704 296.673 323.18 295.885 323.512C295.104 323.837 294.173 324 293.092 324H287.75V309.723ZM290.777 315.377H292.535C293.414 315.377 294.023 315.24 294.361 314.967C294.7 314.687 294.869 314.277 294.869 313.736C294.869 313.189 294.667 312.799 294.264 312.564C293.867 312.324 293.235 312.203 292.369 312.203H290.777V315.377ZM290.777 317.779V321.5H292.75C293.661 321.5 294.296 321.324 294.654 320.973C295.012 320.621 295.191 320.149 295.191 319.557C295.191 319.205 295.113 318.896 294.957 318.629C294.801 318.362 294.537 318.154 294.166 318.004C293.801 317.854 293.297 317.779 292.652 317.779H290.777Z" fill="#0B4819"/>
    <path d="M382.596 319.859V317.418H387.84V319.859H382.596ZM390.662 324L396.023 312.262H388.982V309.723H399.227V311.617L393.826 324H390.662ZM410.672 324H400.691V321.9L404.275 318.277C404.998 317.535 405.577 316.917 406.014 316.422C406.456 315.921 406.775 315.465 406.971 315.055C407.173 314.645 407.273 314.205 407.273 313.736C407.273 313.17 407.114 312.747 406.795 312.467C406.482 312.18 406.062 312.037 405.535 312.037C404.982 312.037 404.445 312.164 403.924 312.418C403.403 312.672 402.859 313.033 402.293 313.502L400.652 311.559C401.062 311.207 401.495 310.875 401.951 310.562C402.413 310.25 402.947 309.999 403.553 309.811C404.165 309.615 404.897 309.518 405.75 309.518C406.688 309.518 407.492 309.687 408.162 310.025C408.839 310.364 409.36 310.826 409.725 311.412C410.089 311.992 410.271 312.649 410.271 313.385C410.271 314.173 410.115 314.892 409.803 315.543C409.49 316.194 409.035 316.839 408.436 317.477C407.843 318.115 407.127 318.821 406.287 319.596L404.451 321.324V321.461H410.672V324ZM415.32 309.518C416.44 309.518 417.29 309.908 417.869 310.689C418.449 311.471 418.738 312.568 418.738 313.98C418.738 315.393 418.465 316.497 417.918 317.291C417.371 318.085 416.505 318.482 415.32 318.482C414.22 318.482 413.383 318.085 412.811 317.291C412.238 316.497 411.951 315.393 411.951 313.98C411.951 312.568 412.218 311.471 412.752 310.689C413.292 309.908 414.148 309.518 415.32 309.518ZM415.34 311.559C415.021 311.559 414.786 311.76 414.637 312.164C414.487 312.568 414.412 313.18 414.412 314C414.412 314.82 414.487 315.436 414.637 315.846C414.786 316.256 415.021 316.461 415.34 316.461C415.659 316.461 415.893 316.259 416.043 315.855C416.199 315.445 416.277 314.827 416.277 314C416.277 313.18 416.199 312.568 416.043 312.164C415.893 311.76 415.659 311.559 415.34 311.559ZM425.457 309.723L417.537 324H415.193L423.113 309.723H425.457ZM425.32 315.221C426.44 315.221 427.29 315.611 427.869 316.393C428.449 317.174 428.738 318.271 428.738 319.684C428.738 321.09 428.465 322.19 427.918 322.984C427.371 323.779 426.505 324.176 425.32 324.176C424.22 324.176 423.383 323.779 422.811 322.984C422.238 322.19 421.951 321.09 421.951 319.684C421.951 318.271 422.218 317.174 422.752 316.393C423.292 315.611 424.148 315.221 425.32 315.221ZM425.34 317.262C425.021 317.262 424.786 317.464 424.637 317.867C424.487 318.271 424.412 318.883 424.412 319.703C424.412 320.523 424.487 321.139 424.637 321.549C424.786 321.959 425.021 322.164 425.34 322.164C425.659 322.164 425.893 321.962 426.043 321.559C426.199 321.148 426.277 320.53 426.277 319.703C426.277 318.883 426.199 318.271 426.043 317.867C425.893 317.464 425.659 317.262 425.34 317.262ZM442.156 315.318H439.578V324H436.6V315.318H434.959V313.883L436.6 313.082V312.281C436.6 311.35 436.756 310.628 437.068 310.113C437.387 309.592 437.833 309.228 438.406 309.02C438.986 308.805 439.669 308.697 440.457 308.697C441.036 308.697 441.564 308.746 442.039 308.844C442.514 308.935 442.902 309.039 443.201 309.156L442.439 311.344C442.212 311.272 441.964 311.207 441.697 311.148C441.43 311.09 441.124 311.061 440.779 311.061C440.363 311.061 440.057 311.188 439.861 311.441C439.673 311.689 439.578 312.008 439.578 312.398V313.082H442.156V315.318ZM446.844 313.082V324H443.865V313.082H446.844ZM445.359 308.805C445.802 308.805 446.183 308.909 446.502 309.117C446.821 309.319 446.98 309.7 446.98 310.26C446.98 310.813 446.821 311.197 446.502 311.412C446.183 311.62 445.802 311.725 445.359 311.725C444.91 311.725 444.526 311.62 444.207 311.412C443.895 311.197 443.738 310.813 443.738 310.26C443.738 309.7 443.895 309.319 444.207 309.117C444.526 308.909 444.91 308.805 445.359 308.805ZM452.947 324H449.969V308.805H452.947V324ZM460.584 312.877C461.593 312.877 462.462 313.072 463.191 313.463C463.921 313.847 464.484 314.407 464.881 315.143C465.278 315.878 465.477 316.777 465.477 317.838V319.283H458.436C458.468 320.123 458.719 320.784 459.188 321.266C459.663 321.741 460.32 321.979 461.16 321.979C461.857 321.979 462.495 321.907 463.074 321.764C463.654 321.62 464.249 321.406 464.861 321.119V323.424C464.321 323.691 463.755 323.886 463.162 324.01C462.576 324.133 461.863 324.195 461.023 324.195C459.93 324.195 458.96 323.993 458.113 323.59C457.273 323.186 456.613 322.571 456.131 321.744C455.656 320.917 455.418 319.876 455.418 318.619C455.418 317.343 455.633 316.282 456.062 315.436C456.499 314.583 457.104 313.945 457.879 313.521C458.654 313.092 459.555 312.877 460.584 312.877ZM460.604 314.996C460.024 314.996 459.542 315.182 459.158 315.553C458.781 315.924 458.562 316.507 458.504 317.301H462.684C462.677 316.858 462.596 316.464 462.439 316.119C462.29 315.774 462.062 315.501 461.756 315.299C461.456 315.097 461.072 314.996 460.604 314.996ZM480.711 320.758C480.711 321.5 480.535 322.128 480.184 322.643C479.839 323.15 479.321 323.538 478.631 323.805C477.941 324.065 477.081 324.195 476.053 324.195C475.291 324.195 474.637 324.146 474.09 324.049C473.549 323.951 473.003 323.788 472.449 323.561V321.1C473.042 321.367 473.676 321.588 474.354 321.764C475.037 321.933 475.636 322.018 476.15 322.018C476.73 322.018 477.143 321.933 477.391 321.764C477.645 321.588 477.771 321.36 477.771 321.08C477.771 320.898 477.719 320.735 477.615 320.592C477.518 320.442 477.303 320.276 476.971 320.094C476.639 319.905 476.118 319.661 475.408 319.361C474.725 319.075 474.161 318.785 473.719 318.492C473.283 318.199 472.957 317.854 472.742 317.457C472.534 317.053 472.43 316.542 472.43 315.924C472.43 314.915 472.82 314.156 473.602 313.648C474.389 313.134 475.441 312.877 476.756 312.877C477.433 312.877 478.077 312.945 478.689 313.082C479.308 313.219 479.943 313.437 480.594 313.736L479.695 315.885C479.155 315.65 478.644 315.458 478.162 315.309C477.687 315.159 477.202 315.084 476.707 315.084C476.271 315.084 475.942 315.143 475.721 315.26C475.499 315.377 475.389 315.556 475.389 315.797C475.389 315.973 475.444 316.129 475.555 316.266C475.672 316.402 475.893 316.555 476.219 316.725C476.551 316.887 477.036 317.099 477.674 317.359C478.292 317.613 478.829 317.88 479.285 318.16C479.741 318.434 480.092 318.775 480.34 319.186C480.587 319.589 480.711 320.113 480.711 320.758ZM486.014 313.082V324H483.035V313.082H486.014ZM484.529 308.805C484.972 308.805 485.353 308.909 485.672 309.117C485.991 309.319 486.15 309.7 486.15 310.26C486.15 310.813 485.991 311.197 485.672 311.412C485.353 311.62 484.972 311.725 484.529 311.725C484.08 311.725 483.696 311.62 483.377 311.412C483.064 311.197 482.908 310.813 482.908 310.26C482.908 309.7 483.064 309.319 483.377 309.117C483.696 308.909 484.08 308.805 484.529 308.805ZM496.746 324H488.123V322.242L493.182 315.357H488.426V313.082H496.57V315.016L491.648 321.725H496.746V324ZM503.416 312.877C504.425 312.877 505.294 313.072 506.023 313.463C506.753 313.847 507.316 314.407 507.713 315.143C508.11 315.878 508.309 316.777 508.309 317.838V319.283H501.268C501.3 320.123 501.551 320.784 502.02 321.266C502.495 321.741 503.152 321.979 503.992 321.979C504.689 321.979 505.327 321.907 505.906 321.764C506.486 321.62 507.081 321.406 507.693 321.119V323.424C507.153 323.691 506.587 323.886 505.994 324.01C505.408 324.133 504.695 324.195 503.855 324.195C502.762 324.195 501.792 323.993 500.945 323.59C500.105 323.186 499.445 322.571 498.963 321.744C498.488 320.917 498.25 319.876 498.25 318.619C498.25 317.343 498.465 316.282 498.895 315.436C499.331 314.583 499.936 313.945 500.711 313.521C501.486 313.092 502.387 312.877 503.416 312.877ZM503.436 314.996C502.856 314.996 502.374 315.182 501.99 315.553C501.613 315.924 501.395 316.507 501.336 317.301H505.516C505.509 316.858 505.428 316.464 505.271 316.119C505.122 315.774 504.894 315.501 504.588 315.299C504.288 315.097 503.904 314.996 503.436 314.996Z" fill="#00CB00"/>
    <defs>
        <filter id="filter0_d_146_19" x="0.76034" y="0.808271" width="627.479" height="388.479" filterUnits="userSpaceOnUse" color-interpolation-filters="sRGB">
            <feFlood flood-opacity="0" result="BackgroundImageFix"/>
            <feColorMatrix in="SourceAlpha" type="matrix" values="0 0 0 0 0 0 0 0 0 0 0 0 0 0 0 0 0 0 127 0" result="hardAlpha"/>
            <feOffset dy="4.04793"/>
            <feGaussianBlur stdDeviation="10.1198"/>
            <feComposite in2="hardAlpha" operator="out"/>
            <feColorMatrix type="matrix" values="0 0 0 0 0 0 0 0 0 0 0 0 0 0 0 0 0 0 0.25 0"/>
            <feBlend mode="normal" in2="BackgroundImageFix" result="effect1_dropShadow_146_19"/>
            <feBlend mode="normal" in="SourceGraphic" in2="effect1_dropShadow_146_19" result="shape"/>
        </filter>
    </defs>
</svg>
