<svg width="20" height="18" viewBox="0 0 20 18" fill="none"
     xmlns="http://www.w3.org/2000/svg"
>
    <path d="M1.44446 4.95C2.10279 5.82778 2.32224 7.58333 2.32224 8.9C2.32224 10.2167 2.10279 11.9722 1.44446 12.85M3.60379 2.19114C3.41726 1.61006 3.84781 1 4.45831 1H15.9862C16.5967 1 17.0272 1.61006 16.8407 2.19114C16.3228 3.80889 15.4889 6.74506 15.4889 8.9C15.4889 11.0549 16.3228 13.9911 16.8407 15.6089C17.0272 16.1904 16.5967 16.8 15.9862 16.8H4.45831C3.84781 16.8 3.41726 16.1899 3.60379 15.6089C4.12168 13.9911 4.95557 11.0549 4.95557 8.9C4.95557 6.74506 4.12168 3.80889 3.60379 2.19114Z"
          stroke="currentColor" stroke-width="1.75556" stroke-linecap="round"
          stroke-linejoin="round"/>
    <path d="M7.58887 5.16943H12.8555M7.58887 8.89999H12.8555M7.58887 12.4111H9.34442"
          stroke="currentColor" stroke-width="1.75556" stroke-linecap="round"/>
    <path d="M19 4.95001C18.3416 5.82779 18.1222 7.58335 18.1222 8.90001C18.1222 10.2167 18.3416 11.5333 19 12.85"
          stroke="currentColor" stroke-width="1.75556" stroke-linecap="round"
          stroke-linejoin="round"/>
</svg>