<svg width="149" height="146" viewBox="0 0 149 146" fill="none" xmlns="http://www.w3.org/2000/svg">
    <g filter="url(#filter0_d_77_124)">
        <circle cx="73" cy="48" r="25" fill="white"/>
        <circle cx="73" cy="48" r="26" stroke="#00CB00" stroke-width="2"/>
    </g>
    <path d="M84.7114 54.693C84.5562 54.3826 84.401 54.0722 84.401 53.7618C84.401 53.141 84.0906 52.6754 83.6249 52.2098C83.4697 52.0546 83.1593 51.8994 83.0041 51.8994C83.9354 49.1057 82.5385 46.3121 80.9865 44.2945C79.7449 42.4321 77.8825 41.0353 78.0377 38.5521C78.0377 35.6033 78.3481 30.1712 72.9161 30.6368C67.3288 30.9472 68.8808 36.6897 68.7256 38.7073C68.7256 40.4145 67.9496 42.1217 66.708 43.5185C66.3976 43.8289 66.0872 44.2945 65.932 44.6049C64.38 46.4673 63.604 48.9505 63.604 51.2786C63.2936 51.589 62.9832 51.8994 62.828 52.2098C62.6728 52.365 62.5176 52.5202 62.5176 52.6754C62.3624 52.8306 62.052 52.9858 61.7416 53.141C61.1208 53.2962 60.6552 53.6066 60.3448 54.2274C60.1896 54.693 60.0344 55.3138 60.1896 55.9346C60.3448 56.245 60.3448 56.5554 60.1896 57.021C59.8792 57.6418 59.8792 58.4178 60.1896 59.1938C60.6552 59.8146 61.4312 59.9698 62.5176 60.125C63.2936 60.125 64.2248 60.4354 65.0008 60.7458C65.7768 61.2114 66.708 61.5218 67.6392 61.5218C68.1048 61.5218 68.7256 61.3666 69.1912 61.2114C69.6569 60.901 69.9673 60.5906 70.1225 60.125C70.7433 60.125 71.6745 59.8146 72.7609 59.8146C73.6921 59.8146 74.6233 60.125 75.8649 59.9698C75.8649 60.125 75.8649 60.2802 76.0201 60.4354C76.3305 61.2114 77.1065 61.8322 78.0377 61.9874H78.3481C79.5897 61.8322 80.8313 61.2114 81.6073 60.2802C82.2281 59.6594 83.0041 59.1938 83.7801 58.8834C84.7114 58.4178 85.3322 58.1074 85.4874 57.3314C85.6426 56.245 85.3322 55.6242 84.7114 54.693ZM74.0025 34.8273C74.9337 34.9825 75.7097 35.7585 75.5545 36.6897C75.5545 37.1553 75.3993 37.6209 75.0889 38.0865H74.9337C74.6233 37.9313 74.4681 37.9313 74.3129 37.7761C74.4681 37.6209 74.4681 37.3105 74.6233 37.0001C74.6233 36.3793 74.3129 35.9137 74.0025 35.9137C73.5369 35.9137 73.2265 36.3793 73.2265 37.0001V37.1553C73.0713 37.0001 72.7609 37.0001 72.6057 36.8449V36.6897C72.4505 35.9137 73.0713 34.9825 74.0025 34.8273ZM73.5369 37.9313C73.6921 38.0865 74.0025 38.2417 74.1577 38.2417C74.3129 38.2417 74.6233 38.3969 74.7785 38.5521C75.0889 38.7073 75.3993 38.8625 75.3993 39.3281C75.3993 39.7937 74.9337 40.2593 74.0025 40.5697C73.6921 40.7249 73.5369 40.7249 73.3817 40.8801C72.9161 41.1905 72.4505 41.3457 71.8297 41.3457C71.3641 41.3457 70.8985 41.0353 70.5881 40.7249C70.4329 40.5697 70.2777 40.4145 69.9673 40.2593C69.8121 40.1041 69.5017 39.7937 69.3465 39.3281C69.3465 39.1729 69.5017 39.0177 69.6569 38.8625C70.1225 38.5521 70.2777 38.3969 70.4329 38.2417L70.5881 38.0865C70.8985 37.6209 71.5193 37.3105 72.1401 37.3105C72.6057 37.4657 73.0713 37.6209 73.5369 37.9313ZM70.2777 35.1377C70.8985 35.1377 71.3641 35.7585 71.5193 36.8449V37.1553C71.3641 37.1553 71.0537 37.3105 70.8985 37.4657V37.1553C70.8985 36.6897 70.5881 36.2241 70.2777 36.3793C69.9673 36.3793 69.8121 36.8449 69.8121 37.3105C69.8121 37.6209 69.9673 37.7761 70.1225 37.9313C70.1225 37.9313 69.9673 38.0865 69.8121 38.0865C69.5017 37.7761 69.1912 37.3105 69.1912 36.8449C69.1912 35.9137 69.6569 35.1377 70.2777 35.1377ZM68.7256 60.125C67.6392 60.5906 66.2424 60.4354 65.3112 59.8146C64.38 59.349 63.604 59.1938 62.5176 59.1938C61.7416 59.0386 60.9656 59.0386 60.8104 58.7282C60.6552 58.4178 60.6552 57.9522 60.9656 57.1762C61.1208 56.7106 61.1208 56.245 60.9656 55.7794C60.8104 55.3138 60.8104 55.0034 60.9656 54.5378C61.1208 54.0722 61.4312 53.917 61.8968 53.7618C62.3624 53.6066 62.6728 53.4514 62.9832 53.141C63.1384 52.9858 63.2936 52.8306 63.4488 52.5202C63.9144 51.8994 64.2248 51.589 64.6904 51.589C65.6216 51.7442 66.3976 53.141 67.0184 54.5378C67.3288 55.0034 67.6392 55.6242 68.1048 56.0898C68.7256 56.8658 69.5017 57.9522 69.5017 58.573C69.5017 59.349 69.1912 59.8146 68.7256 60.125ZM76.3305 56.7106C76.3305 56.8658 76.3305 56.8658 76.1753 57.021C74.3129 58.4178 71.8297 58.573 69.8121 57.4866L68.8808 56.0898C70.2777 55.9346 69.9673 54.0722 67.0184 52.2098C63.9144 50.1922 66.0872 46.4673 67.1736 44.7601C67.3288 44.6049 67.3288 44.7601 66.708 46.0017C66.2424 46.9329 65.3112 49.261 66.5528 50.9682C66.5528 49.7266 66.8632 48.4849 67.3288 47.2433C68.4152 45.2257 69.1912 42.8977 69.6569 40.5697C69.8121 40.7249 69.8121 40.7249 69.9673 40.7249C70.1225 40.8801 70.2777 41.0353 70.4329 41.0353C70.7433 41.5009 71.3641 41.6561 71.8297 41.6561H71.9849C72.6057 41.6561 73.2265 41.5009 73.6921 41.0353C73.8473 40.8801 74.0025 40.7249 74.3129 40.7249C74.7785 40.5697 75.2441 40.2593 75.7097 39.7937C76.3305 41.8113 76.9513 43.6737 77.8825 45.3809C78.5033 46.6225 78.9689 47.8641 79.2793 49.261C79.7449 49.261 80.3657 49.4162 80.8313 49.7266C82.0729 50.3474 82.5385 50.813 82.3833 51.589H82.0729C82.0729 51.1234 81.7625 50.6578 80.6761 50.1922C79.5897 49.7266 78.6585 49.7266 78.3481 50.813C78.1929 50.813 78.0377 50.9682 77.8825 50.9682C76.6409 51.589 76.6409 53.2962 76.4857 55.0034C76.6409 55.6242 76.4857 56.0898 76.3305 56.7106ZM83.4697 57.6418C82.5385 57.9522 81.7625 58.573 81.1417 59.349C80.5209 60.2802 79.4345 60.901 78.1929 60.7458C77.5721 60.7458 76.9513 60.2802 76.7961 59.6594C76.6409 58.7282 76.6409 57.797 77.1065 56.8658C77.2617 56.245 77.4169 55.7794 77.5721 55.1586C77.7273 53.2962 77.7273 52.2098 78.5033 51.7442C78.5033 52.5202 78.9689 52.9858 79.5897 53.2962C80.3657 53.2962 81.1417 53.141 81.7625 52.5202H82.0729C82.5385 52.5202 82.8489 52.5202 83.1593 52.8306C83.4697 53.141 83.6249 53.6066 83.6249 53.917C83.6249 54.3826 83.9353 54.8482 84.0905 55.3138C84.8666 56.0898 84.8666 56.5554 84.8666 56.7106C84.7114 57.021 84.0905 57.3314 83.4697 57.6418ZM69.5017 39.0177C69.3464 39.0177 69.3465 39.0177 69.3465 39.1729C69.3465 39.1729 69.3464 39.3281 69.5017 39.3281C69.6569 39.3281 69.6569 39.4833 69.6569 39.4833C70.1225 40.1041 70.8985 40.4145 71.8297 40.5697C72.6057 40.4145 73.3817 40.2593 74.1577 39.6385L75.0889 39.1729C75.2441 39.1729 75.2441 39.0177 75.2441 39.0177C75.2441 38.8625 75.2441 38.8625 75.0889 38.8625C74.7785 39.0177 74.3129 39.1729 74.0025 39.3281C73.3817 39.7937 72.6057 40.1041 71.8297 40.1041C71.0537 40.1041 70.4329 39.6385 69.9673 39.1729C69.8121 39.1729 69.6569 39.0177 69.5017 39.0177Z" fill="#0B4819" fill-opacity="0.8"/>
    <g filter="url(#filter1_d_77_124)">
        <circle cx="38" cy="104" r="25" fill="white"/>
        <circle cx="38" cy="104" r="26" stroke="#00CB00" stroke-width="2"/>
    </g>
    <path d="M47.7829 105.909V115.336C47.7829 115.591 47.7314 115.844 47.6316 116.079C47.5317 116.314 47.3855 116.527 47.2017 116.704C47.0179 116.882 46.8003 117.02 46.5618 117.112C46.3233 117.203 46.0688 117.246 45.8135 117.237L45.6448 117.223L36.3698 116.064V105.909H47.7829ZM33.8336 105.909V115.747L27.1785 114.915C26.565 114.838 26.0006 114.54 25.5915 114.076C25.1824 113.613 24.9567 113.016 24.9568 112.398V105.909H33.8336ZM45.6448 92.0582C45.8983 92.0265 46.1555 92.0462 46.4012 92.1161C46.6469 92.186 46.876 92.3047 47.0748 92.4651C47.2736 92.6254 47.4381 92.8242 47.5585 93.0495C47.6788 93.2748 47.7525 93.5221 47.7753 93.7765L47.7829 93.9451V103.372H36.3698V93.2172L45.6448 92.0582ZM33.8336 93.5343V103.372H24.9568V96.8834C24.9567 96.2651 25.1824 95.6681 25.5915 95.2045C26.0006 94.741 26.565 94.4428 27.1785 94.3662L33.8336 93.5343Z" fill="#0B4819" fill-opacity="0.8"/>
    <g filter="url(#filter2_d_77_124)">
        <circle cx="107" cy="104" r="25" fill="white"/>
        <circle cx="107" cy="104" r="26" stroke="#00CB00" stroke-width="2"/>
    </g>
    <path d="M117.973 97.6141C117.804 97.7451 114.825 99.4238 114.825 103.157C114.825 107.474 118.616 109.002 118.729 109.04C118.712 109.133 118.127 111.132 116.731 113.168C115.485 114.961 114.185 116.75 112.206 116.75C110.228 116.75 109.719 115.601 107.435 115.601C105.209 115.601 104.418 116.788 102.608 116.788C100.798 116.788 99.5355 115.129 98.0836 113.093C96.4019 110.701 95.0432 106.986 95.0432 103.459C95.0432 97.8033 98.7208 94.8036 102.34 94.8036C104.263 94.8036 105.867 96.0663 107.074 96.0663C108.223 96.0663 110.015 94.7279 112.203 94.7279C113.033 94.7279 116.012 94.8036 117.973 97.6141ZM111.165 92.3334C112.07 91.2598 112.71 89.7701 112.71 88.2805C112.71 88.0739 112.692 87.8644 112.654 87.6957C111.182 87.751 109.431 88.6762 108.375 89.9011C107.545 90.8437 106.771 92.3334 106.771 93.8434C106.771 94.0704 106.809 94.2973 106.827 94.3701C106.92 94.3875 107.071 94.4079 107.222 94.4079C108.543 94.4079 110.205 93.5234 111.165 92.3334Z" fill="#0B4819" fill-opacity="0.8"/>
    <defs>
        <filter id="filter0_d_77_124" x="25.1304" y="0.130434" width="95.7391" height="95.7391" filterUnits="userSpaceOnUse" color-interpolation-filters="sRGB">
            <feFlood flood-opacity="0" result="BackgroundImageFix"/>
            <feColorMatrix in="SourceAlpha" type="matrix" values="0 0 0 0 0 0 0 0 0 0 0 0 0 0 0 0 0 0 127 0" result="hardAlpha"/>
            <feOffset/>
            <feGaussianBlur stdDeviation="10.4348"/>
            <feComposite in2="hardAlpha" operator="out"/>
            <feColorMatrix type="matrix" values="0 0 0 0 0 0 0 0 0 0 0 0 0 0 0 0 0 0 0.1 0"/>
            <feBlend mode="normal" in2="BackgroundImageFix" result="effect1_dropShadow_77_124"/>
            <feBlend mode="normal" in="SourceGraphic" in2="effect1_dropShadow_77_124" result="shape"/>
        </filter>
        <filter id="filter1_d_77_124" x="0.239131" y="66.2391" width="75.5217" height="75.5217" filterUnits="userSpaceOnUse" color-interpolation-filters="sRGB">
            <feFlood flood-opacity="0" result="BackgroundImageFix"/>
            <feColorMatrix in="SourceAlpha" type="matrix" values="0 0 0 0 0 0 0 0 0 0 0 0 0 0 0 0 0 0 127 0" result="hardAlpha"/>
            <feOffset/>
            <feGaussianBlur stdDeviation="5.38043"/>
            <feComposite in2="hardAlpha" operator="out"/>
            <feColorMatrix type="matrix" values="0 0 0 0 0 0 0 0 0 0 0 0 0 0 0 0 0 0 0.1 0"/>
            <feBlend mode="normal" in2="BackgroundImageFix" result="effect1_dropShadow_77_124"/>
            <feBlend mode="normal" in="SourceGraphic" in2="effect1_dropShadow_77_124" result="shape"/>
        </filter>
        <filter id="filter2_d_77_124" x="65" y="62" width="84" height="84" filterUnits="userSpaceOnUse" color-interpolation-filters="sRGB">
            <feFlood flood-opacity="0" result="BackgroundImageFix"/>
            <feColorMatrix in="SourceAlpha" type="matrix" values="0 0 0 0 0 0 0 0 0 0 0 0 0 0 0 0 0 0 127 0" result="hardAlpha"/>
            <feOffset/>
            <feGaussianBlur stdDeviation="7.5"/>
            <feComposite in2="hardAlpha" operator="out"/>
            <feColorMatrix type="matrix" values="0 0 0 0 0 0 0 0 0 0 0 0 0 0 0 0 0 0 0.1 0"/>
            <feBlend mode="normal" in2="BackgroundImageFix" result="effect1_dropShadow_77_124"/>
            <feBlend mode="normal" in="SourceGraphic" in2="effect1_dropShadow_77_124" result="shape"/>
        </filter>
    </defs>
</svg>
