<svg width="18" height="23" viewBox="0 0 18 23" fill="none" xmlns="http://www.w3.org/2000/svg">
    <path fill-rule="evenodd" clip-rule="evenodd" d="M6.47117 21.6334C6.21333 21.8909 5.86382 22.0355 5.4994 22.0355C5.13498 22.0355 4.78547 21.8909 4.52763 21.6334L0.402172 17.5079C0.144651 17.2501 3.8147e-06 16.9005 3.8147e-06 16.5361C3.8147e-06 16.1717 0.144651 15.8222 0.402172 15.5644L4.52763 11.4389C4.65352 11.3038 4.80534 11.1954 4.97402 11.1203C5.14271 11.0451 5.3248 11.0047 5.50944 11.0014C5.69409 10.9982 5.87749 11.0321 6.04872 11.1013C6.21995 11.1705 6.3755 11.2734 6.50608 11.404C6.63666 11.5346 6.73961 11.6901 6.80877 11.8614C6.87793 12.0326 6.9119 12.216 6.90864 12.4006C6.90538 12.5853 6.86497 12.7674 6.78981 12.9361C6.71465 13.1047 6.60628 13.2566 6.47117 13.3824L4.69265 15.161H15.1255C15.4902 15.161 15.8399 15.3059 16.0978 15.5637C16.3557 15.8216 16.5006 16.1714 16.5006 16.5361C16.5006 16.9008 16.3557 17.2506 16.0978 17.5085C15.8399 17.7664 15.4902 17.9113 15.1255 17.9113H4.69265L6.47117 19.6898C6.72869 19.9476 6.87334 20.2972 6.87334 20.6616C6.87334 21.026 6.72869 21.3755 6.47117 21.6334Z" fill="#00CB00"/>
    <path fill-rule="evenodd" clip-rule="evenodd" d="M11.5288 10.6321C11.2713 10.3743 11.1267 10.0248 11.1267 9.66036C11.1267 9.29594 11.2713 8.94643 11.5288 8.68859L13.3074 6.91006H2.87455C2.50983 6.91006 2.16006 6.76517 1.90217 6.50728C1.64428 6.24939 1.4994 5.89962 1.4994 5.53491C1.4994 5.17019 1.64428 4.82042 1.90217 4.56253C2.16006 4.30464 2.50983 4.15975 2.87455 4.15975H13.3074L11.5288 2.38122C11.3937 2.25533 11.2854 2.10351 11.2102 1.93483C11.135 1.76615 11.0946 1.58405 11.0914 1.39941C11.0881 1.21477 11.1221 1.03136 11.1912 0.860129C11.2604 0.688899 11.3633 0.533354 11.4939 0.402772C11.6245 0.27219 11.7801 0.169246 11.9513 0.100083C12.1225 0.030921 12.3059 -0.00304508 12.4906 0.000212669C12.6752 0.00347042 12.8573 0.0438843 13.026 0.119044C13.1947 0.194204 13.3465 0.302573 13.4724 0.43768L17.5978 4.56313C17.8554 4.82097 18 5.17049 18 5.53491C18 5.89932 17.8554 6.24884 17.5978 6.50668L13.4724 10.6321C13.2145 10.8897 12.865 11.0343 12.5006 11.0343C12.1362 11.0343 11.7867 10.8897 11.5288 10.6321Z" fill="#00CB00" fill-opacity="0.5"/>
</svg>
