<svg width="24" height="22" viewBox="0 0 24 22" fill="none" xmlns="http://www.w3.org/2000/svg">
    <path d="M2 11H7.17163C8.01519 11.0001 8.84792 11.19 9.60817 11.5555C10.3684 11.921 11.0367 12.4529 11.5636 13.1116L12.6864 14.5134C13.2133 15.1721 13.8816 15.704 14.6418 16.0695C15.4021 16.435 16.2348 16.6249 17.0784 16.625H22.25M22.25 16.625L18.875 13.25M22.25 16.625L18.875 20M22.25 5.375H16.5372C15.8627 5.37522 15.1968 5.52709 14.5888 5.81938C13.9809 6.11168 13.4464 6.53691 13.025 7.06363L11.2261 9.3125C10.8045 9.83916 10.2698 10.2643 9.66162 10.5564C9.05346 10.8485 8.38741 11.0001 7.71275 11H5.375M22.25 5.375L18.875 2M22.25 5.375L18.875 8.75" stroke="#00CB00" stroke-width="2.25" stroke-linecap="round" stroke-linejoin="round"/>
</svg>
