
<svg width="26" height="25" viewBox="0 0 26 25" fill="none" xmlns="http://www.w3.org/2000/svg">
    <path fill-rule="evenodd" clip-rule="evenodd"
          d="M8.98142 9.5365C8.36033 10.2793 7.48556 10.7651 6.52669 10.8996C5.56783 11.0341 4.59317 10.8078 3.79168 10.2645C2.99018 9.72127 2.41894 8.89979 2.18868 7.95931C1.95843 7.01883 2.08558 6.02636 2.54548 5.1743C3.00537 4.32223 3.76525 3.67128 4.67781 3.34762C5.59037 3.02396 6.59059 3.05066 7.48458 3.42254C8.37857 3.79443 9.10264 4.485 9.51643 5.36038C9.93021 6.23577 10.0042 7.23361 9.72413 8.16046L10.9075 8.84379C11.0036 8.89925 11.0868 8.97455 11.1516 9.06468C11.2163 9.15482 11.2612 9.25771 11.283 9.36652C11.3049 9.47533 11.3034 9.58755 11.2785 9.69571C11.2536 9.80387 11.2059 9.90549 11.1387 9.99379L11.1325 10.0011C11.0096 10.1626 10.8287 10.27 10.6281 10.3006C10.4274 10.3311 10.2228 10.2823 10.0575 10.1646C10.0199 10.137 9.98062 10.112 9.93975 10.0896L8.98142 9.5365ZM3.95329 5.85942C4.25419 5.33672 4.74501 4.95014 5.32367 4.78008C5.90232 4.61002 6.52425 4.66958 7.06011 4.94636C7.59597 5.22315 8.00451 5.69585 8.20074 6.26616C8.39698 6.83647 8.3658 7.46047 8.11371 8.00838C8.05855 8.08076 8.01562 8.1617 7.98663 8.24796C7.66989 8.78281 7.15365 9.16994 6.55148 9.32417C5.94931 9.4784 5.31054 9.3871 4.77569 9.07036C4.24083 8.75362 3.85371 8.23738 3.69948 7.63521C3.54525 7.03304 3.63655 6.39427 3.95329 5.85942ZM14.4189 8.61671C13.5556 8.87979 12.774 9.35974 12.1489 10.0108C11.5238 10.6618 11.0759 11.4621 10.8481 12.3355C10.7402 12.7443 10.6825 13.1648 10.6762 13.5875C10.6713 13.8418 10.601 14.0905 10.472 14.3096C10.343 14.5288 10.1597 14.7109 9.93975 14.8386L8.93975 15.4157C8.3068 14.6829 7.42432 14.2113 6.4634 14.0922C5.50248 13.9731 4.53157 14.2151 3.7389 14.7711C2.94623 15.3272 2.38827 16.1578 2.17319 17.1019C1.9581 18.046 2.10122 19.0363 2.57479 19.8808C3.04836 20.7254 3.81865 21.364 4.73633 21.6729C5.654 21.9819 6.65369 21.939 7.54158 21.5528C8.42947 21.1665 9.14231 20.4643 9.5419 19.5823C9.9415 18.7004 9.99938 17.7014 9.70433 16.7792L24.0054 8.52296C24.1392 8.4457 24.2471 8.33048 24.3155 8.19189C24.3838 8.05329 24.4095 7.89755 24.3893 7.74434C24.3691 7.59114 24.304 7.44736 24.2021 7.33119C24.1002 7.21502 23.9661 7.13168 23.8168 7.09171L22.9804 6.86775C21.9905 6.6023 20.9459 6.62035 19.9658 6.91984L14.4189 8.61671ZM4.81163 15.9396C4.54293 16.0924 4.3071 16.2968 4.11772 16.5411C3.92834 16.7854 3.78915 17.0647 3.70816 17.363C3.62718 17.6613 3.606 17.9727 3.64584 18.2792C3.68568 18.5857 3.78575 18.8813 3.9403 19.149C4.09486 19.4167 4.30083 19.6511 4.54636 19.8389C4.7919 20.0266 5.07214 20.164 5.37097 20.243C5.6698 20.322 5.9813 20.3411 6.28754 20.2992C6.59379 20.2574 6.88873 20.1553 7.15538 19.999C7.6893 19.686 8.07774 19.1745 8.23593 18.5762C8.39413 17.9778 8.30923 17.3412 7.99977 16.8052C7.69031 16.2692 7.18141 15.8774 6.58412 15.7152C5.98683 15.5531 5.34965 15.6337 4.81163 15.9396ZM13.0148 13.2813C13.222 13.2813 13.4207 13.199 13.5672 13.0525C13.7137 12.906 13.796 12.7072 13.796 12.5C13.796 12.2928 13.7137 12.0941 13.5672 11.9476C13.4207 11.8011 13.222 11.7188 13.0148 11.7188C12.8076 11.7188 12.6088 11.8011 12.4623 11.9476C12.3158 12.0941 12.2335 12.2928 12.2335 12.5C12.2335 12.7072 12.3158 12.906 12.4623 13.0525C12.6088 13.199 12.8076 13.2813 13.0148 13.2813Z"
          fill="currentColor" fill-opacity="0.5"/>
    <path d="M17.569 13.1406C17.6878 13.072 17.8225 13.0359 17.9596 13.0359C18.0968 13.0359 18.2315 13.072 18.3502 13.1406L24.0065 16.4062C24.1403 16.4836 24.2482 16.5989 24.3164 16.7375C24.3847 16.8762 24.4103 17.032 24.39 17.1852C24.3697 17.3384 24.3044 17.4822 24.2024 17.5983C24.1004 17.7144 23.9662 17.7977 23.8169 17.8375L22.9815 18.0615C21.9915 18.3266 20.9469 18.3082 19.9669 18.0083L14.6054 16.3687C14.4598 16.3243 14.3303 16.2383 14.2329 16.1213C14.1355 16.0043 14.0744 15.8613 14.0572 15.7101C14.0399 15.5588 14.0672 15.4058 14.1358 15.2698C14.2043 15.1338 14.3111 15.0209 14.4429 14.9448L17.569 13.1406Z"
          fill="currentColor" fill-opacity="0.5"/>
</svg>