<svg width="18" height="23" viewBox="0 0 18 23" fill="none" xmlns="http://www.w3.org/2000/svg">
    <path fill-rule="evenodd" clip-rule="evenodd" d="M11.5288 0.402168C11.7867 0.144647 12.1362 0 12.5006 0C12.865 0 13.2145 0.144647 13.4724 0.402168L17.5978 4.52762C17.8553 4.78546 18 5.13498 18 5.4994C18 5.86381 17.8553 6.21333 17.5978 6.47117L13.4724 10.5966C13.3465 10.7317 13.1947 10.8401 13.026 10.9153C12.8573 10.9904 12.6752 11.0308 12.4906 11.0341C12.3059 11.0373 12.1225 11.0034 11.9513 10.9342C11.78 10.8651 11.6245 10.7621 11.4939 10.6315C11.3633 10.5009 11.2604 10.3454 11.1912 10.1742C11.1221 10.0029 11.0881 9.81953 11.0914 9.63489C11.0946 9.45025 11.135 9.26816 11.2102 9.09947C11.2854 8.93079 11.3937 8.77897 11.5288 8.65308L13.3074 6.87455H2.87454C2.50983 6.87455 2.16005 6.72966 1.90216 6.47177C1.64427 6.21388 1.49939 5.86411 1.49939 5.4994C1.49939 5.13468 1.64427 4.78491 1.90216 4.52702C2.16005 4.26913 2.50983 4.12424 2.87454 4.12424H13.3074L11.5288 2.34571C11.2713 2.08787 11.1267 1.73836 11.1267 1.37394C11.1267 1.00953 11.2713 0.660009 11.5288 0.402168Z" fill="#00CB00"/>
    <path fill-rule="evenodd" clip-rule="evenodd" d="M6.47117 11.4034C6.72869 11.6612 6.87334 12.0107 6.87334 12.3752C6.87334 12.7396 6.72869 13.0891 6.47117 13.3469L4.69264 15.1255H15.1255C15.4902 15.1255 15.8399 15.2703 16.0978 15.5282C16.3557 15.7861 16.5006 16.1359 16.5006 16.5006C16.5006 16.8653 16.3557 17.2151 16.0978 17.473C15.8399 17.7309 15.4902 17.8758 15.1255 17.8758H4.69264L6.47117 19.6543C6.60628 19.7802 6.71464 19.932 6.7898 20.1007C6.86496 20.2694 6.90538 20.4515 6.90863 20.6361C6.91189 20.8208 6.87793 21.0042 6.80876 21.1754C6.7396 21.3466 6.63666 21.5022 6.50608 21.6328C6.37549 21.7633 6.21995 21.8663 6.04872 21.9354C5.87749 22.0046 5.69408 22.0386 5.50944 22.0353C5.3248 22.0321 5.1427 21.9916 4.97402 21.9165C4.80533 21.8413 4.65351 21.7329 4.52762 21.5978L0.402168 17.4724C0.144647 17.2145 0 16.865 0 16.5006C0 16.1362 0.144647 15.7867 0.402168 15.5288L4.52762 11.4034C4.78546 11.1459 5.13498 11.0012 5.49939 11.0012C5.86381 11.0012 6.21333 11.1459 6.47117 11.4034Z" fill="#00CB00" fill-opacity="0.5"/>
</svg>
