<svg width="378" height="246" viewBox="0 0 378 246" fill="none" xmlns="http://www.w3.org/2000/svg">
    <g clip-path="url(#clip0_142_14)">
        <path d="M630.863 218.016C630.669 217.189 630.271 216.422 629.705 215.783C629.138 215.144 628.421 214.654 627.617 214.355L570.824 -1L328.336 -33.8509C328.554 -34.9486 328.405 -36.0866 327.912 -37.0933C327.418 -38.0999 326.607 -38.9206 325.6 -39.4313C324.594 -39.9421 323.446 -40.1152 322.332 -39.9246C321.217 -39.7341 320.195 -39.1901 319.42 -38.3749L173.433 116.292C172.842 116.908 172.414 117.658 172.186 118.477C171.959 119.295 171.939 120.156 172.129 120.984C172.324 121.811 172.722 122.578 173.288 123.217C173.854 123.856 174.571 124.346 175.375 124.645L254.638 154.031L234.695 252.851C234.477 253.949 234.626 255.087 235.12 256.093C235.613 257.1 236.425 257.921 237.431 258.431C238.438 258.942 239.585 259.115 240.7 258.925C241.815 258.734 242.836 258.19 243.611 257.375L629.599 222.708C630.183 222.088 630.604 221.336 630.824 220.518C631.045 219.7 631.058 218.84 630.863 218.016Z" fill="url(#paint0_radial_142_14)" fill-opacity="0.03"/>
        <path d="M570.863 218.016C570.669 217.189 570.271 216.422 569.705 215.783C569.138 215.144 568.421 214.654 567.617 214.355L510.824 -1L268.336 -33.8509C268.554 -34.9486 268.405 -36.0866 267.912 -37.0933C267.418 -38.0999 266.607 -38.9206 265.6 -39.4313C264.594 -39.9421 263.446 -40.1152 262.332 -39.9246C261.217 -39.7341 260.195 -39.1901 259.42 -38.3749L113.433 116.292C112.842 116.908 112.414 117.658 112.186 118.477C111.959 119.295 111.939 120.156 112.129 120.984C112.324 121.811 112.722 122.578 113.288 123.217C113.854 123.856 114.571 124.346 115.375 124.645L194.638 154.031L174.695 252.851C174.477 253.949 174.626 255.087 175.12 256.093C175.613 257.1 176.425 257.921 177.431 258.431C178.438 258.942 179.585 259.115 180.7 258.925C181.815 258.734 182.836 258.19 183.611 257.375L569.599 222.708C570.183 222.088 570.604 221.336 570.824 220.518C571.045 219.7 571.058 218.84 570.863 218.016Z" fill="url(#paint1_radial_142_14)" fill-opacity="0.03"/>
        <path d="M486.863 218.016C486.669 217.189 486.271 216.422 485.705 215.783C485.138 215.144 484.421 214.654 483.617 214.355L426.824 -1L184.336 -33.8509C184.554 -34.9486 184.405 -36.0866 183.912 -37.0933C183.418 -38.0999 182.607 -38.9206 181.6 -39.4313C180.594 -39.9421 179.446 -40.1152 178.332 -39.9246C177.217 -39.7341 176.195 -39.1901 175.42 -38.3749L29.4329 116.292C28.8419 116.908 28.4137 117.658 28.1863 118.477C27.9589 119.295 27.9394 120.156 28.1294 120.984C28.3237 121.811 28.7216 122.578 29.2878 123.217C29.854 123.856 30.571 124.346 31.375 124.645L110.638 154.031L90.6955 252.851C90.4774 253.949 90.6264 255.087 91.1199 256.093C91.6134 257.1 92.4246 257.921 93.4312 258.431C94.4377 258.942 95.5849 259.115 96.6997 258.925C97.8145 258.734 98.8364 258.19 99.6111 257.375L485.599 222.708C486.183 222.088 486.604 221.336 486.824 220.518C487.045 219.7 487.058 218.84 486.863 218.016Z" fill="url(#paint2_radial_142_14)" fill-opacity="0.03"/>
    </g>
    <defs>
        <radialGradient id="paint0_radial_142_14" cx="0" cy="0" r="1" gradientUnits="userSpaceOnUse" gradientTransform="translate(401.5 109.5) rotate(90) scale(149.5 229.5)">
            <stop stop-color="#0B4819"/>
            <stop offset="1" stop-color="#1BAE3C"/>
        </radialGradient>
        <radialGradient id="paint1_radial_142_14" cx="0" cy="0" r="1" gradientUnits="userSpaceOnUse" gradientTransform="translate(341.5 109.5) rotate(90) scale(149.5 229.5)">
            <stop stop-color="#0B4819"/>
            <stop offset="1" stop-color="#1BAE3C"/>
        </radialGradient>
        <radialGradient id="paint2_radial_142_14" cx="0" cy="0" r="1" gradientUnits="userSpaceOnUse" gradientTransform="translate(257.5 109.5) rotate(90) scale(149.5 229.5)">
            <stop stop-color="#0B4819"/>
            <stop offset="1" stop-color="#1BAE3C"/>
        </radialGradient>
        <clipPath id="clip0_142_14">
            <rect width="378" height="246" fill="white"/>
        </clipPath>
    </defs>
</svg>
