<svg width="107" height="135" viewBox="0 0 107 135" fill="none" xmlns="http://www.w3.org/2000/svg">
    <g filter="url(#filter0_d_49_600)">
        <path d="M89.9543 63.6205C89.8895 63.3411 89.7569 63.082 89.5682 62.8663C89.3794 62.6506 89.1404 62.4849 88.8724 62.3841L62.4513 52.4574L69.112 19.0769C69.1847 18.7061 69.135 18.3217 68.9705 17.9816C68.806 17.6416 68.5356 17.3644 68.2001 17.1919C67.8646 17.0193 67.4822 16.9608 67.1106 17.0252C66.739 17.0896 66.3983 17.2733 66.1401 17.5487L17.4776 69.7942C17.2806 70.0021 17.1379 70.2555 17.0621 70.532C16.9863 70.8085 16.9798 71.0994 17.0431 71.379C17.1079 71.6584 17.2405 71.9175 17.4293 72.1332C17.618 72.3489 17.857 72.5146 18.125 72.6155L44.5461 82.5421L37.8985 115.923C37.8258 116.293 37.8755 116.678 38.04 117.018C38.2045 117.358 38.4749 117.635 38.8104 117.808C39.1459 117.98 39.5283 118.039 39.8999 117.974C40.2715 117.91 40.6121 117.726 40.8704 117.451L89.5328 65.2053C89.7276 64.9962 89.8679 64.7421 89.9414 64.4657C90.0149 64.1893 90.0193 63.8991 89.9543 63.6205Z" fill="white"/>
        <path d="M91.9518 63.4671C91.8835 63.1766 91.7436 62.9073 91.5445 62.683C91.3454 62.4588 91.0933 62.2866 90.8106 62.1817L62.9418 51.8619L69.9674 17.1594C70.0441 16.7739 69.9917 16.3743 69.8182 16.0207C69.6447 15.6672 69.3595 15.3791 69.0056 15.1997C68.6517 15.0203 68.2483 14.9595 67.8563 15.0265C67.4644 15.0934 67.1051 15.2844 66.8327 15.5707L15.5038 69.8853C15.296 70.1015 15.1454 70.3649 15.0655 70.6523C14.9855 70.9397 14.9787 71.2422 15.0455 71.5329C15.1138 71.8234 15.2537 72.0927 15.4528 72.317C15.6519 72.5412 15.904 72.7135 16.1867 72.8183L44.0555 83.1381L37.0436 117.841C36.967 118.226 37.0193 118.626 37.1928 118.979C37.3664 119.333 37.6516 119.621 38.0055 119.8C38.3594 119.98 38.7627 120.04 39.1547 119.974C39.5467 119.907 39.9059 119.716 40.1783 119.429L91.5072 65.1147C91.7126 64.8972 91.8606 64.6332 91.9382 64.3458C92.0157 64.0585 92.0204 63.7567 91.9518 63.4671ZM41.9015 112.31L47.9693 82.346C48.0546 81.9245 47.9853 81.4867 47.7737 81.111C47.5621 80.7354 47.2221 80.4463 46.8144 80.2956L20.0501 70.3787L65.1095 22.6904L59.0417 52.654C58.9564 53.0755 59.0258 53.5133 59.2374 53.889C59.4489 54.2646 59.789 54.5537 60.1966 54.7044L86.961 64.6213L41.9015 112.31Z" fill="#00CB00"/>
    </g>
    <defs>
        <filter id="filter0_d_49_600" x="0" y="0" width="107" height="135" filterUnits="userSpaceOnUse" color-interpolation-filters="sRGB">
            <feFlood flood-opacity="0" result="BackgroundImageFix"/>
            <feColorMatrix in="SourceAlpha" type="matrix" values="0 0 0 0 0 0 0 0 0 0 0 0 0 0 0 0 0 0 127 0" result="hardAlpha"/>
            <feOffset/>
            <feGaussianBlur stdDeviation="7.5"/>
            <feComposite in2="hardAlpha" operator="out"/>
            <feColorMatrix type="matrix" values="0 0 0 0 0 0 0 0 0 0 0 0 0 0 0 0 0 0 0.1 0"/>
            <feBlend mode="normal" in2="BackgroundImageFix" result="effect1_dropShadow_49_600"/>
            <feBlend mode="normal" in="SourceGraphic" in2="effect1_dropShadow_49_600" result="shape"/>
        </filter>
    </defs>
</svg>
