<svg width="179" height="45" viewBox="0 7 179 40" fill="none" xmlns="http://www.w3.org/2000/svg">
    <path d="M3.04907 7.90454H15.7404L3.04907 20.5959V33.2872L28.4317 7.90454H41.123L3.04907 45.9785H15.7404L41.123 20.5959V33.2872L28.4317 45.9785H41.123" stroke="url(#paint0_linear_60_787)" stroke-width="5.71109" stroke-linecap="round" stroke-linejoin="round"/>
    <path d="M57.5466 42V11.9822H74.6531V17.216H63.371V25.0157H72.8406V30.2495H63.371V42H57.5466ZM78.6446 42V11.9822H95.7511V17.216H84.4689V25.0157H93.9386V30.2495H84.4689V42H78.6446ZM99.0909 50.5532V20.1893H104.488V22.5312H105.221L104.182 24.7917V37.2143L105.628 39.6988H104.712V50.5532H99.0909ZM111.086 42.3258C109.253 42.3258 107.61 41.8235 106.157 40.8188C104.718 39.8006 103.571 38.4294 102.716 36.7051C101.874 34.9673 101.446 33.0463 101.433 30.9419C101.446 28.8511 101.861 26.964 102.675 25.2805C103.49 23.597 104.61 22.2665 106.035 21.289C107.461 20.3115 109.097 19.8227 110.943 19.8227C112.627 19.8227 114.215 20.2572 115.709 21.1261C117.202 21.9814 118.41 23.2508 119.334 24.9343C120.257 26.6178 120.705 28.6814 120.678 31.1252C120.705 32.958 120.447 34.5736 119.904 35.972C119.374 37.3704 118.648 38.5448 117.725 39.4951C116.815 40.4319 115.783 41.1379 114.629 41.6131C113.475 42.0882 112.294 42.3258 111.086 42.3258ZM109.823 37.5605C110.882 37.5469 111.812 37.2686 112.613 36.7255C113.414 36.1689 114.039 35.4018 114.487 34.4243C114.948 33.4468 115.172 32.3131 115.159 31.0234C115.172 29.72 114.948 28.5864 114.487 27.6224C114.025 26.6585 113.38 25.9118 112.552 25.3823C111.737 24.8528 110.801 24.5949 109.742 24.6084C108.751 24.5949 107.855 24.846 107.054 25.3619C106.253 25.8778 105.614 26.6178 105.139 27.5817C104.678 28.5321 104.44 29.6793 104.426 31.0234C104.44 32.3131 104.678 33.4468 105.139 34.4243C105.614 35.4018 106.253 36.1689 107.054 36.7255C107.868 37.2686 108.791 37.5469 109.823 37.5605ZM129.638 42.3258C128.416 42.3258 127.405 42.0679 126.604 41.552C125.816 41.0225 125.219 40.3097 124.812 39.4137C124.418 38.5176 124.221 37.4994 124.221 36.3589V10.6382H129.842V35.6869C129.842 36.0127 129.876 36.3182 129.944 36.6033C130.025 36.8749 130.168 37.0989 130.371 37.2754C130.588 37.4383 130.901 37.5197 131.308 37.5197C131.512 37.5197 131.688 37.5062 131.838 37.479C131.987 37.4383 132.123 37.3975 132.245 37.3568V41.8982C131.892 42.0204 131.485 42.1222 131.023 42.2036C130.561 42.2851 130.1 42.3258 129.638 42.3258ZM141.877 42.3258C140.411 42.3258 139.121 42.0339 138.008 41.4501C136.895 40.8528 136.026 40.0518 135.401 39.0471C134.777 38.0424 134.465 36.9088 134.465 35.6462C134.465 34.3428 134.818 33.1956 135.524 32.2045C136.243 31.1999 137.309 30.4192 138.721 29.8626C140.133 29.2923 141.877 29.0072 143.955 29.0072H148.801V32.7136H143.995C142.692 32.7136 141.674 32.9309 140.941 33.3653C140.207 33.7998 139.841 34.4786 139.841 35.4018C139.841 35.9584 139.977 36.4336 140.248 36.8273C140.533 37.2075 140.927 37.4994 141.429 37.703C141.932 37.9067 142.502 38.0085 143.14 38.0085C143.724 38.0085 144.403 37.8795 145.176 37.6216C145.95 37.3636 146.622 36.9495 147.193 36.3793C147.776 35.7955 148.068 35.0352 148.068 34.0984V31.8583L147.702 30.7586V27.9483C147.702 27.4731 147.634 27.0319 147.498 26.6246C147.362 26.2173 147.138 25.8575 146.826 25.5452C146.527 25.233 146.127 24.9954 145.625 24.8325C145.136 24.656 144.538 24.5677 143.832 24.5677C143.14 24.5677 142.414 24.6424 141.653 24.7917C140.893 24.9411 140.167 25.1447 139.474 25.4027C138.796 25.647 138.212 25.9254 137.723 26.2376L135.89 21.8796C136.447 21.5537 137.173 21.2415 138.069 20.9428C138.965 20.6305 139.97 20.3793 141.083 20.1893C142.21 19.9856 143.384 19.8838 144.606 19.8838C146.602 19.8838 148.17 20.1553 149.311 20.6984C150.451 21.2415 151.286 21.9339 151.815 22.7756C152.358 23.6038 152.705 24.4727 152.854 25.3823C153.003 26.2919 153.078 27.1201 153.078 27.8668V34.6687C153.078 35.4968 153.16 36.1214 153.322 36.5422C153.499 36.9495 153.838 37.2346 154.341 37.3975L154.829 37.5605L152.793 42.3258L152.141 42.0815C150.947 41.6334 150.078 41.1107 149.535 40.5134C148.992 39.9024 148.679 39.2983 148.598 38.7009L149.657 39.3933H147.865L149.087 38.8231C148.625 39.7463 147.729 40.5609 146.398 41.2669C145.081 41.9728 143.574 42.3258 141.877 42.3258ZM160.959 50.8791C160.131 50.8791 159.31 50.7976 158.495 50.6347C157.681 50.4718 157.036 50.2953 156.56 50.1052L158.515 45.5028C158.868 45.6792 159.249 45.815 159.656 45.91C160.063 46.0187 160.437 46.073 160.776 46.073C161.496 46.0865 162.073 45.9304 162.507 45.6046C162.955 45.2923 163.294 44.919 163.525 44.4845C163.77 44.0501 163.939 43.6563 164.034 43.3033L165.053 40.0042L164.747 43.0182L155.379 20.1893H161.326L165.725 32.6322L166.906 36.1757H167.069L168.168 32.6322L172.201 20.1893H178.106L168.84 44.6067C168.623 45.1905 168.338 45.8422 167.985 46.5617C167.646 47.2813 167.191 47.9669 166.621 48.6186C166.064 49.2702 165.324 49.8065 164.401 50.2274C163.491 50.6618 162.344 50.8791 160.959 50.8791Z" fill="black"/>
    <defs>
        <linearGradient id="paint0_linear_60_787" x1="34.5209" y1="38.4772" x2="-0.247982" y2="7.90454" gradientUnits="userSpaceOnUse">
            <stop stop-color="#650D08"/>
            <stop offset="1" stop-color="#FF5F57"/>
        </linearGradient>
    </defs>
</svg>
