<svg width="202" height="45" viewBox="0 7 202 40" fill="none" xmlns="http://www.w3.org/2000/svg">
    <path d="M54.9605 40V11.3905H71.2644V16.3787H60.5116V23.8125H69.537V28.8007H60.5116V40H54.9605ZM75.0687 40V11.3905H91.3726V16.3787H80.6198V23.8125H89.6452V28.8007H80.6198V40H75.0687ZM94.5558 48.152V19.2125H99.6993V21.4446H100.398L99.4081 23.599V35.4388L100.786 37.8067H99.9128V48.152H94.5558ZM105.988 40.3106C104.241 40.3106 102.675 39.8318 101.291 38.8743C99.9193 37.9038 98.8259 36.5969 98.0107 34.9535C97.2084 33.2973 96.8008 31.4663 96.7879 29.4607C96.8008 27.468 97.1955 25.6694 97.9718 24.0648C98.7482 22.4603 99.8157 21.1922 101.174 20.2606C102.533 19.3289 104.092 18.8631 105.852 18.8631C107.457 18.8631 108.971 19.2772 110.394 20.1053C111.817 20.9205 112.969 22.1304 113.849 23.7349C114.729 25.3394 115.156 27.3062 115.13 29.6353C115.156 31.3822 114.91 32.922 114.392 34.2548C113.888 35.5876 113.195 36.7069 112.315 37.6126C111.448 38.5055 110.465 39.1783 109.365 39.6312C108.265 40.0841 107.14 40.3106 105.988 40.3106ZM104.785 35.7687C105.794 35.7558 106.68 35.4905 107.444 34.973C108.207 34.4424 108.802 33.7113 109.229 32.7797C109.669 31.848 109.883 30.7676 109.87 29.5383C109.883 28.2961 109.669 27.2156 109.229 26.2969C108.789 25.3782 108.175 24.6665 107.385 24.1619C106.609 23.6572 105.716 23.4114 104.707 23.4243C103.762 23.4114 102.908 23.6508 102.145 24.1425C101.381 24.6342 100.773 25.3394 100.32 26.2581C99.8804 27.1639 99.654 28.2573 99.6411 29.5383C99.654 30.7676 99.8804 31.848 100.32 32.7797C100.773 33.7113 101.381 34.4424 102.145 34.973C102.921 35.4905 103.801 35.7558 104.785 35.7687ZM118.429 40V19.2125H123.651V22.2015H124.233L122.913 23.6184C123.236 22.9067 123.715 22.1886 124.349 21.464C124.996 20.7393 125.792 20.1312 126.737 19.6395C127.681 19.1478 128.781 18.9019 130.036 18.9019C130.567 18.9019 131.039 18.9407 131.453 19.0184C131.867 19.096 132.165 19.1801 132.346 19.2707L130.192 24.4142C130.075 24.3495 129.855 24.2848 129.532 24.2201C129.221 24.1554 128.872 24.1231 128.484 24.1231C127.979 24.1231 127.448 24.2266 126.892 24.4336C126.336 24.6277 125.824 24.9253 125.359 25.3265C124.893 25.7276 124.511 26.2322 124.213 26.8404C123.929 27.4486 123.786 28.1602 123.786 28.9754V40H118.429ZM142.944 40.3106C140.964 40.3106 139.165 39.8577 137.548 38.9519C135.943 38.0332 134.662 36.7651 133.705 35.1476C132.76 33.5302 132.288 31.6669 132.288 29.5577C132.288 27.4486 132.76 25.5982 133.705 24.0066C134.662 22.4021 135.943 21.1534 137.548 20.2606C139.165 19.3548 140.964 18.9019 142.944 18.9019C144.962 18.9019 146.774 19.3548 148.378 20.2606C149.983 21.1534 151.251 22.4021 152.182 24.0066C153.127 25.5982 153.599 27.4486 153.599 29.5577C153.599 31.6669 153.127 33.5302 152.182 35.1476C151.238 36.7651 149.963 38.0332 148.359 38.9519C146.754 39.8577 144.949 40.3106 142.944 40.3106ZM142.944 35.6717C143.992 35.6717 144.93 35.4194 145.758 34.9147C146.586 34.3971 147.24 33.679 147.718 32.7603C148.197 31.8416 148.436 30.774 148.436 29.5577C148.436 28.3673 148.204 27.3256 147.738 26.4328C147.272 25.527 146.625 24.8218 145.797 24.3172C144.982 23.7996 144.037 23.5408 142.963 23.5408C141.915 23.5408 140.977 23.7931 140.149 24.2977C139.32 24.7895 138.667 25.4882 138.188 26.394C137.709 27.2997 137.47 28.3543 137.47 29.5577C137.47 30.774 137.709 31.8416 138.188 32.7603C138.667 33.679 139.314 34.3971 140.129 34.9147C140.957 35.4194 141.895 35.6717 142.944 35.6717ZM156.86 40V10.1094H162.217V21.2116H162.644L161.771 24.1619V35.4388L162.761 37.535H162.004V40H156.86ZM168.331 40.3106C166.584 40.3106 165.019 39.8318 163.634 38.8743C162.262 37.9038 161.169 36.5969 160.354 34.9535C159.552 33.2973 159.144 31.4663 159.131 29.4607C159.144 27.468 159.539 25.6694 160.315 24.0648C161.091 22.4603 162.159 21.1922 163.518 20.2606C164.876 19.3289 166.435 18.8631 168.195 18.8631C169.8 18.8631 171.314 19.2772 172.737 20.1053C174.16 20.9205 175.312 22.1304 176.192 23.7349C177.072 25.3394 177.499 27.3062 177.473 29.6353C177.499 31.3822 177.253 32.922 176.735 34.2548C176.231 35.5876 175.539 36.7069 174.659 37.6126C173.792 38.5055 172.808 39.1783 171.708 39.6312C170.609 40.0841 169.483 40.3106 168.331 40.3106ZM167.128 35.7687C168.137 35.7558 169.023 35.4905 169.787 34.973C170.55 34.4424 171.145 33.7113 171.573 32.7797C172.012 31.848 172.226 30.7676 172.213 29.5383C172.226 28.2961 172.012 27.2156 171.573 26.2969C171.133 25.3782 170.518 24.6665 169.729 24.1619C168.952 23.6572 168.059 23.4114 167.05 23.4243C166.106 23.4114 165.251 23.6508 164.488 24.1425C163.725 24.6342 163.116 25.3394 162.664 26.2581C162.224 27.1639 161.997 28.2573 161.984 29.5383C161.997 30.7676 162.224 31.848 162.664 32.7797C163.116 33.7113 163.725 34.4424 164.488 34.973C165.264 35.4905 166.144 35.7558 167.128 35.7687ZM190.73 40.3106C188.543 40.3106 186.641 39.8577 185.023 38.9519C183.406 38.0332 182.151 36.7716 181.258 35.167C180.378 33.5496 179.938 31.7057 179.938 29.6353C179.938 27.4486 180.391 25.5594 181.297 23.9678C182.215 22.3633 183.432 21.1211 184.946 20.2412C186.473 19.3613 188.142 18.9213 189.953 18.9213C191.674 18.9213 193.246 19.3225 194.67 20.1247C196.106 20.914 197.258 22.0333 198.125 23.4826C198.992 24.9189 199.425 26.6204 199.425 28.5872C199.425 29.0401 199.399 29.4736 199.347 29.8877C199.296 30.3017 199.218 30.787 199.115 31.3434H183.936V27.772H194.495C194.495 26.8792 194.301 26.0964 193.913 25.4235C193.525 24.7506 192.988 24.2266 192.302 23.8513C191.629 23.4631 190.846 23.269 189.953 23.269C188.866 23.269 187.922 23.5343 187.119 24.0648C186.33 24.5824 185.716 25.307 185.276 26.2387C184.849 27.1703 184.635 28.2508 184.635 29.4801C184.635 30.7611 184.874 31.8868 185.353 32.8573C185.832 33.8278 186.518 34.5912 187.411 35.1476C188.303 35.6911 189.358 35.9628 190.574 35.9628C191.26 35.9628 191.927 35.8852 192.574 35.7299C193.221 35.5617 193.822 35.3417 194.379 35.07C194.935 34.7983 195.414 34.5007 195.815 34.1772L197.562 38.4084C196.734 38.9778 195.724 39.4371 194.534 39.7865C193.356 40.1359 192.088 40.3106 190.73 40.3106Z" fill="black"/>
    <path d="M3 7.9502H15.0959L3 20.0461V32.1421L27.1919 7.9502H39.2878L3 44.238H15.0959L39.2878 20.0461V32.1421L27.1919 44.238H39.2878" stroke="url(#paint0_linear_60_709)" stroke-width="5.44317" stroke-linecap="round" stroke-linejoin="round"/>
    <defs>
        <linearGradient id="paint0_linear_60_709" x1="32.9954" y1="37.0886" x2="-0.14238" y2="7.95019" gradientUnits="userSpaceOnUse">
            <stop stop-color="#946C16"/>
            <stop offset="1" stop-color="#FEBC2E"/>
        </linearGradient>
    </defs>
</svg>
