<svg width="19" height="20" viewBox="0 0 19 20" fill="none" xmlns="http://www.w3.org/2000/svg">
    <path fill-rule="evenodd" clip-rule="evenodd" d="M0 1.5134C0 1.11202 0.159448 0.727084 0.443266 0.443266C0.727084 0.159448 1.11202 0 1.5134 0H16.6475C17.0488 0 17.4338 0.159448 17.7176 0.443266C18.0014 0.727084 18.1609 1.11202 18.1609 1.5134V3.61805C18.1607 4.15317 17.9481 4.66635 17.5696 5.04468L12.1072 10.5071V17.9974C12.1073 18.1866 12.0589 18.3727 11.9668 18.5379C11.8747 18.7032 11.7419 18.8421 11.5809 18.9416C11.42 19.0411 11.2363 19.0978 11.0473 19.1063C10.8583 19.1148 10.6702 19.0748 10.501 18.9902L6.75079 17.1156C6.54131 17.0109 6.36513 16.8499 6.24199 16.6506C6.11885 16.4514 6.05363 16.2218 6.05362 15.9876V10.5071L0.591237 5.04468C0.212786 4.66635 0.000114287 4.15317 0 3.61805V1.5134ZM2.01787 2.01787V3.61805L7.62756 9.22773C7.76825 9.36825 7.87988 9.53512 7.95605 9.7188C8.03222 9.90248 8.07145 10.0994 8.07149 10.2982V15.5195L10.0894 16.5284V10.2982C10.0894 9.89666 10.2488 9.51124 10.5333 9.22874L16.143 3.61704V2.01787H2.01787Z" fill="#00CB00"/>
</svg>
