<svg width="533" height="307" viewBox="0 0 533 307" fill="none" xmlns="http://www.w3.org/2000/svg">
    <g filter="url(#filter0_d_158_28)">
        <rect x="20" y="16" width="492.372" height="266.564" rx="10.8217" fill="#22272E"/>
    </g>
    <circle cx="48.4682" cy="47" r="10" fill="#FF5F57"/>
    <circle cx="81.4619" cy="47" r="10" fill="#FEBC2E"/>
    <circle cx="114.456" cy="47" r="10" fill="#28C840"/>
    <path d="M48.03 120.613C47.7097 120.589 47.155 120.488 46.366 120.308C45.6316 120.136 44.8582 119.878 44.0457 119.535V116.464C44.8503 116.941 45.6316 117.308 46.3894 117.566C47.1394 117.816 47.8464 117.949 48.5105 117.964V114.109C46.9714 113.804 45.8269 113.277 45.0769 112.527C44.3269 111.792 43.9519 110.804 43.9519 109.562C43.9519 108.265 44.3503 107.23 45.1472 106.457C45.9441 105.683 46.9089 105.25 48.0417 105.156V102.378H50.6316L50.6433 105.156C50.8855 105.195 51.3074 105.265 51.9089 105.367C52.1746 105.414 52.4558 105.476 52.7527 105.554C53.0574 105.625 53.3855 105.714 53.7371 105.824V108.824C53.4792 108.652 53.2097 108.507 52.9285 108.39C52.655 108.265 52.3855 108.16 52.1199 108.074C51.5027 107.886 50.8503 107.769 50.1628 107.722V111.32C51.7097 111.562 52.8738 112.085 53.655 112.89C54.4363 113.679 54.8269 114.746 54.8269 116.089C54.8269 116.761 54.7214 117.359 54.5105 117.882C54.2996 118.398 53.9832 118.863 53.5613 119.277C53.0847 119.738 52.5574 120.066 51.9792 120.261C51.4089 120.457 50.9636 120.574 50.6433 120.613L50.6316 124.14H48.0417L48.03 120.613ZM48.5105 107.722C48.0183 107.785 47.655 107.945 47.4207 108.203C47.3113 108.312 47.2214 108.457 47.1511 108.636C47.0808 108.816 47.0457 109.031 47.0457 109.281C47.0457 109.726 47.1707 110.097 47.4207 110.394C47.6707 110.691 48.0339 110.906 48.5105 111.039V107.722ZM50.1628 117.964C50.4441 117.925 50.6746 117.855 50.8542 117.753C51.0339 117.652 51.1863 117.531 51.3113 117.39C51.5847 117.07 51.7214 116.675 51.7214 116.207C51.7214 115.73 51.5886 115.335 51.323 115.023C51.198 114.882 51.0417 114.761 50.8542 114.66C50.6667 114.558 50.4363 114.48 50.1628 114.425V117.964Z" fill="#8C8C8C"/>
    <path d="M79.6238 120.953C78.0222 120.953 76.8582 120.191 76.1316 118.667L75.7917 120.613H72.7097V102.378H76.1316V109.351C76.9597 107.898 78.1238 107.171 79.6238 107.171C81.0925 107.171 82.2449 107.781 83.0808 109C83.9246 110.21 84.3464 111.894 84.3464 114.05C84.3464 116.207 83.9285 117.898 83.0925 119.125C82.2566 120.343 81.1003 120.953 79.6238 120.953ZM78.5339 118.14C79.2527 118.14 79.8269 117.769 80.2566 117.027C80.6941 116.277 80.9128 115.273 80.9128 114.015C80.9128 112.789 80.7019 111.82 80.28 111.109C79.866 110.39 79.2957 110.031 78.5691 110.031C77.8269 110.031 77.2332 110.402 76.7878 111.144C76.3503 111.878 76.1316 112.859 76.1316 114.085C76.1316 115.312 76.3503 116.296 76.7878 117.039C77.2253 117.773 77.8074 118.14 78.5339 118.14ZM88.2371 107.488H91.3308L91.6707 109.527C92.0066 108.785 92.5183 108.207 93.2058 107.792C93.9011 107.378 94.7136 107.171 95.6433 107.171C96.6042 107.171 97.4949 107.394 98.3152 107.839V111.109C97.5574 110.421 96.5652 110.078 95.3386 110.078C94.3464 110.078 93.5417 110.304 92.9246 110.757C92.3074 111.21 91.9246 111.863 91.7761 112.714C91.7371 112.917 91.7097 113.164 91.6941 113.453C91.6785 113.742 91.6707 114.113 91.6707 114.566V120.613H88.2371V107.488ZM107.749 120.953C105.491 120.953 103.772 120.371 102.593 119.207C101.421 118.035 100.835 116.343 100.835 114.132C100.835 112.734 101.077 111.515 101.561 110.476C102.046 109.429 102.768 108.617 103.729 108.039C104.698 107.46 105.909 107.171 107.362 107.171C108.557 107.171 109.593 107.449 110.468 108.003C111.343 108.558 112.018 109.332 112.495 110.324C112.979 111.308 113.221 112.457 113.221 113.769V115.164H104.327C104.327 117.21 105.522 118.234 107.913 118.234C109.483 118.234 111.069 117.761 112.671 116.816V119.968C111.077 120.625 109.436 120.953 107.749 120.953ZM109.764 112.585C109.764 111.679 109.542 110.996 109.096 110.535C108.651 110.066 108.014 109.832 107.186 109.832C106.343 109.832 105.682 110.07 105.206 110.546C104.729 111.023 104.448 111.703 104.362 112.585H109.764ZM114.335 107.488H117.194L118.753 117.542L120.171 110.921H122.948L124.343 117.542L125.925 107.488H128.784L126.405 120.613H123.147L121.553 113.792L119.971 120.613H116.714L114.335 107.488ZM148.542 105.929C148.307 105.929 148.19 105.812 148.19 105.578V102.273C148.19 102.039 148.307 101.921 148.542 101.921H151.272C151.507 101.921 151.624 102.039 151.624 102.273V105.578C151.624 105.812 151.507 105.929 151.272 105.929H148.542ZM152.772 120.753C151.147 120.753 149.975 120.328 149.257 119.476C148.546 118.617 148.19 117.218 148.19 115.281V110.125H145.413V107.488H151.624V115.281C151.624 116.296 151.784 117.023 152.104 117.46C152.432 117.898 152.975 118.117 153.733 118.117H156.475V120.753H152.772ZM159.733 107.488H162.803L163.143 109.457C163.385 108.722 163.8 108.16 164.385 107.769C164.979 107.371 165.698 107.171 166.542 107.171C167.76 107.171 168.686 107.589 169.319 108.425C169.952 109.261 170.268 110.484 170.268 112.093V120.613H166.858V112.621C166.858 111.699 166.725 111.027 166.46 110.605C166.202 110.175 165.8 109.96 165.253 109.96C164.589 109.96 164.069 110.242 163.694 110.804C163.327 111.367 163.143 112.132 163.143 113.101V120.613H159.733V107.488ZM179.315 120.953C177.839 120.953 176.202 120.679 174.405 120.132V117.132C175.944 118.015 177.487 118.457 179.034 118.457C180.643 118.457 181.448 117.98 181.448 117.027C181.448 116.605 181.257 116.265 180.874 116.007C180.491 115.75 179.839 115.523 178.917 115.328L177.968 115.117C175.452 114.554 174.194 113.261 174.194 111.238C174.194 109.941 174.659 108.941 175.589 108.238C176.526 107.527 177.882 107.171 179.655 107.171C180.343 107.171 181.022 107.23 181.694 107.347C182.374 107.464 183.073 107.648 183.792 107.898V110.898C183.104 110.468 182.444 110.156 181.811 109.96C181.186 109.765 180.542 109.667 179.878 109.667C179.096 109.667 178.495 109.781 178.073 110.007C177.651 110.234 177.44 110.539 177.44 110.921C177.44 111.273 177.635 111.578 178.026 111.835C178.425 112.085 179.065 112.312 179.948 112.515L181.061 112.785C182.311 113.082 183.225 113.558 183.803 114.214C184.389 114.871 184.682 115.738 184.682 116.816C184.682 119.574 182.893 120.953 179.315 120.953ZM196.331 120.66C195.042 120.66 194.03 120.527 193.296 120.261C192.561 119.996 192.042 119.539 191.737 118.89C191.44 118.242 191.292 117.351 191.292 116.218V110.125H187.94V107.488H191.292V103.902L194.725 102.378V107.488H199.214V110.125H194.725V116.382C194.725 116.96 194.87 117.378 195.159 117.636C195.456 117.894 195.928 118.023 196.577 118.023H199.214V120.66H196.331ZM206.772 120.953C205.413 120.953 204.311 120.566 203.468 119.792C202.632 119.011 202.214 117.89 202.214 116.429C202.214 115.507 202.378 114.757 202.706 114.179C203.042 113.593 203.495 113.14 204.065 112.82C204.643 112.5 205.296 112.281 206.022 112.164C206.749 112.039 207.51 111.976 208.307 111.976H210.686V111.402C210.686 110.933 210.561 110.578 210.311 110.335C210.069 110.093 209.753 109.929 209.362 109.843C208.979 109.757 208.585 109.714 208.178 109.714C207.35 109.714 206.553 109.828 205.788 110.054C205.03 110.281 204.272 110.601 203.514 111.015V108.085C204.327 107.757 205.132 107.523 205.928 107.382C206.733 107.234 207.546 107.16 208.366 107.16C209.803 107.16 210.94 107.367 211.776 107.781C212.612 108.187 213.206 108.82 213.557 109.679C213.917 110.531 214.096 111.617 214.096 112.937C214.096 113.242 214.089 113.632 214.073 114.109C214.065 114.585 214.061 115.062 214.061 115.539C214.061 115.96 214.057 116.359 214.05 116.734C214.042 117.109 214.038 117.425 214.038 117.683C214.038 117.91 214.05 118.207 214.073 118.574C214.096 118.933 214.151 119.3 214.237 119.675C214.323 120.05 214.456 120.363 214.635 120.613H211.237C211.089 120.363 210.979 120.128 210.909 119.91C210.839 119.691 210.788 119.437 210.757 119.148C210.296 119.765 209.718 120.222 209.022 120.519C208.335 120.808 207.585 120.953 206.772 120.953ZM207.897 118.574C208.616 118.574 209.175 118.378 209.573 117.988C209.979 117.589 210.264 117.093 210.428 116.5C210.6 115.898 210.686 115.292 210.686 114.683V114.449H209.315C208.776 114.449 208.241 114.488 207.71 114.566C207.178 114.636 206.737 114.82 206.385 115.117C206.042 115.406 205.87 115.886 205.87 116.558C205.87 117.199 206.046 117.695 206.397 118.046C206.757 118.398 207.257 118.574 207.897 118.574ZM224.796 120.707C223.171 120.707 221.999 120.281 221.28 119.429C220.569 118.57 220.214 117.171 220.214 115.234V105.015H216.733V102.378H223.647V115.234C223.647 116.25 223.807 116.976 224.128 117.414C224.456 117.851 224.999 118.07 225.757 118.07H228.499V120.707H224.796ZM239.257 120.707C237.632 120.707 236.46 120.281 235.741 119.429C235.03 118.57 234.675 117.171 234.675 115.234V105.015H231.194V102.378H238.108V115.234C238.108 116.25 238.268 116.976 238.589 117.414C238.917 117.851 239.46 118.07 240.218 118.07H242.96V120.707H239.257ZM263.936 110.125H260.749V107.488H263.936V106.574C263.936 105.519 264.077 104.687 264.358 104.078C264.647 103.46 265.128 103.023 265.8 102.765C266.479 102.507 267.405 102.378 268.577 102.378H271.401V105.015H268.718C268.218 105.015 267.866 105.113 267.663 105.308C267.468 105.503 267.37 105.847 267.37 106.339V107.488H271.401V110.125H267.37V120.613H263.936V110.125ZM278.397 110.125H275.21V107.488H278.397V106.574C278.397 105.519 278.538 104.687 278.819 104.078C279.108 103.46 279.589 103.023 280.26 102.765C280.94 102.507 281.866 102.378 283.038 102.378H285.862V105.015H283.178C282.678 105.015 282.327 105.113 282.124 105.308C281.928 105.503 281.831 105.847 281.831 106.339V107.488H285.862V110.125H281.831V120.613H278.397V110.125ZM288.827 107.488H290.983L291.323 108.847C291.518 108.324 291.827 107.914 292.249 107.617C292.671 107.32 293.143 107.171 293.667 107.171C294.221 107.171 294.718 107.332 295.155 107.652C295.593 107.964 295.858 108.347 295.952 108.8C296.46 107.714 297.296 107.171 298.46 107.171C299.561 107.171 300.327 107.558 300.757 108.332C301.186 109.113 301.401 110.742 301.401 113.218V120.613H298.589V112.187C298.589 111.234 298.514 110.585 298.366 110.242C298.218 109.906 297.944 109.738 297.546 109.738C297.163 109.738 296.897 109.902 296.749 110.23C296.585 110.589 296.503 111.242 296.503 112.187V120.613H293.725V112.187C293.725 111.265 293.647 110.617 293.491 110.242C293.343 109.906 293.073 109.738 292.682 109.738C292.284 109.738 292.014 109.894 291.874 110.207C291.718 110.519 291.639 111.179 291.639 112.187V120.613H288.827V107.488ZM304.085 107.488H307.167L307.507 109.457C308.233 107.933 309.397 107.171 310.999 107.171C312.475 107.171 313.632 107.785 314.468 109.011C315.303 110.23 315.721 111.917 315.721 114.074C315.721 116.23 315.303 117.917 314.468 119.136C313.632 120.347 312.483 120.953 311.022 120.953C309.483 120.953 308.311 120.222 307.507 118.761V125.605H304.085V107.488ZM309.909 118.093C310.628 118.093 311.202 117.722 311.632 116.98C312.069 116.23 312.288 115.226 312.288 113.968C312.288 112.742 312.077 111.773 311.655 111.062C311.241 110.343 310.671 109.984 309.944 109.984C309.202 109.984 308.608 110.355 308.163 111.097C307.725 111.832 307.507 112.812 307.507 114.039C307.507 115.265 307.725 116.25 308.163 116.992C308.6 117.726 309.182 118.093 309.909 118.093ZM324.663 120.953C322.405 120.953 320.686 120.371 319.507 119.207C318.335 118.035 317.749 116.343 317.749 114.132C317.749 112.734 317.991 111.515 318.475 110.476C318.96 109.429 319.682 108.617 320.643 108.039C321.612 107.46 322.823 107.171 324.276 107.171C325.471 107.171 326.507 107.449 327.382 108.003C328.257 108.558 328.932 109.332 329.409 110.324C329.893 111.308 330.135 112.457 330.135 113.769V115.164H321.241C321.241 117.21 322.436 118.234 324.827 118.234C326.397 118.234 327.983 117.761 329.585 116.816V119.968C327.991 120.625 326.35 120.953 324.663 120.953ZM326.678 112.585C326.678 111.679 326.456 110.996 326.01 110.535C325.565 110.066 324.928 109.832 324.1 109.832C323.257 109.832 322.596 110.07 322.12 110.546C321.643 111.023 321.362 111.703 321.276 112.585H326.678ZM338.081 125.582C336.596 125.582 335.159 125.367 333.768 124.937V121.785C335.034 122.488 336.354 122.839 337.729 122.839C338.753 122.839 339.495 122.613 339.956 122.16C340.425 121.707 340.659 120.992 340.659 120.015V118.597C339.987 119.832 338.878 120.449 337.331 120.449C336.409 120.449 335.632 120.261 334.999 119.886C334.374 119.503 333.87 119 333.487 118.375C333.104 117.742 332.827 117.042 332.655 116.277C332.483 115.511 332.397 114.738 332.397 113.957C332.397 113.191 332.479 112.414 332.643 111.625C332.807 110.828 333.073 110.089 333.44 109.41C333.815 108.73 334.307 108.183 334.917 107.769C335.534 107.355 336.292 107.148 337.19 107.148C338.8 107.148 339.956 107.82 340.659 109.164L340.999 107.488H344.093V119.628C344.093 121.73 343.62 123.246 342.675 124.175C341.729 125.113 340.198 125.582 338.081 125.582ZM338.233 117.73C338.944 117.73 339.526 117.367 339.979 116.64C340.432 115.914 340.659 114.98 340.659 113.839C340.659 112.699 340.432 111.769 339.979 111.05C339.534 110.324 338.956 109.96 338.245 109.96C337.534 109.96 336.952 110.324 336.499 111.05C336.053 111.769 335.831 112.699 335.831 113.839C335.831 114.98 336.053 115.914 336.499 116.64C336.944 117.367 337.522 117.73 338.233 117.73Z" fill="white"/>
    <path d="M48.03 167.978C47.7097 167.954 47.155 167.853 46.366 167.673C45.6316 167.501 44.8582 167.243 44.0457 166.899V163.829C44.8503 164.306 45.6316 164.673 46.3894 164.931C47.1394 165.181 47.8464 165.313 48.5105 165.329V161.474C46.9714 161.169 45.8269 160.642 45.0769 159.892C44.3269 159.157 43.9519 158.169 43.9519 156.927C43.9519 155.63 44.3503 154.595 45.1472 153.821C45.9441 153.048 46.9089 152.614 48.0417 152.521V149.743H50.6316L50.6433 152.521C50.8855 152.56 51.3074 152.63 51.9089 152.731C52.1746 152.778 52.4558 152.841 52.7527 152.919C53.0574 152.989 53.3855 153.079 53.7371 153.188V156.188C53.4792 156.017 53.2097 155.872 52.9285 155.755C52.655 155.63 52.3855 155.524 52.1199 155.438C51.5027 155.251 50.8503 155.134 50.1628 155.087V158.685C51.7097 158.927 52.8738 159.45 53.655 160.255C54.4363 161.044 54.8269 162.11 54.8269 163.454C54.8269 164.126 54.7214 164.724 54.5105 165.247C54.2996 165.763 53.9832 166.228 53.5613 166.642C53.0847 167.103 52.5574 167.431 51.9792 167.626C51.4089 167.821 50.9636 167.938 50.6433 167.978L50.6316 171.505H48.0417L48.03 167.978ZM48.5105 155.087C48.0183 155.149 47.655 155.31 47.4207 155.567C47.3113 155.677 47.2214 155.821 47.1511 156.001C47.0808 156.181 47.0457 156.396 47.0457 156.646C47.0457 157.091 47.1707 157.462 47.4207 157.759C47.6707 158.056 48.0339 158.271 48.5105 158.403V155.087ZM50.1628 165.329C50.4441 165.29 50.6746 165.22 50.8542 165.118C51.0339 165.017 51.1863 164.896 51.3113 164.755C51.5847 164.435 51.7214 164.04 51.7214 163.571C51.7214 163.095 51.5886 162.7 51.323 162.388C51.198 162.247 51.0417 162.126 50.8542 162.024C50.6667 161.923 50.4363 161.845 50.1628 161.79V165.329Z" fill="#8C8C8C"/>
    <path d="M76.6238 168.317C75.2644 168.317 74.1628 167.931 73.3191 167.157C72.4832 166.376 72.0652 165.255 72.0652 163.794C72.0652 162.872 72.2292 162.122 72.5574 161.544C72.8933 160.958 73.3464 160.505 73.9167 160.185C74.4949 159.864 75.1472 159.646 75.8738 159.528C76.6003 159.403 77.3621 159.341 78.1589 159.341H80.5378V158.767C80.5378 158.298 80.4128 157.942 80.1628 157.7C79.9207 157.458 79.6042 157.294 79.2136 157.208C78.8308 157.122 78.4363 157.079 78.03 157.079C77.2019 157.079 76.405 157.192 75.6394 157.419C74.8816 157.646 74.1238 157.966 73.366 158.38V155.45C74.1785 155.122 74.9832 154.888 75.78 154.747C76.5847 154.599 77.3972 154.524 78.2175 154.524C79.655 154.524 80.7917 154.731 81.6277 155.146C82.4636 155.552 83.0574 156.185 83.4089 157.044C83.7683 157.896 83.948 158.981 83.948 160.302C83.948 160.606 83.9402 160.997 83.9246 161.474C83.9167 161.95 83.9128 162.427 83.9128 162.903C83.9128 163.325 83.9089 163.724 83.9011 164.099C83.8933 164.474 83.8894 164.79 83.8894 165.048C83.8894 165.274 83.9011 165.571 83.9246 165.938C83.948 166.298 84.0027 166.665 84.0886 167.04C84.1746 167.415 84.3074 167.728 84.4871 167.978H81.0886C80.9402 167.728 80.8308 167.493 80.7605 167.274C80.6902 167.056 80.6394 166.802 80.6082 166.513C80.1472 167.13 79.5691 167.587 78.8738 167.884C78.1863 168.173 77.4363 168.317 76.6238 168.317ZM77.7488 165.938C78.4675 165.938 79.0261 165.743 79.4246 165.353C79.8308 164.954 80.116 164.458 80.28 163.864C80.4519 163.263 80.5378 162.657 80.5378 162.048V161.813H79.1667C78.6277 161.813 78.0925 161.853 77.5613 161.931C77.03 162.001 76.5886 162.185 76.2371 162.481C75.8933 162.771 75.7214 163.251 75.7214 163.923C75.7214 164.563 75.8972 165.06 76.2488 165.411C76.6082 165.763 77.1082 165.938 77.7488 165.938ZM87.1707 154.853H90.2527L90.5925 156.821C91.3191 155.298 92.4832 154.536 94.0847 154.536C95.5613 154.536 96.7175 155.149 97.5535 156.376C98.3894 157.595 98.8074 159.282 98.8074 161.438C98.8074 163.595 98.3894 165.282 97.5535 166.501C96.7175 167.712 95.5691 168.317 94.1082 168.317C92.5691 168.317 91.3972 167.587 90.5925 166.126V172.97H87.1707V154.853ZM92.9949 165.458C93.7136 165.458 94.2878 165.087 94.7175 164.345C95.155 163.595 95.3738 162.591 95.3738 161.333C95.3738 160.106 95.1628 159.138 94.741 158.427C94.3269 157.708 93.7566 157.349 93.03 157.349C92.2878 157.349 91.6941 157.72 91.2488 158.462C90.8113 159.196 90.5925 160.177 90.5925 161.403C90.5925 162.63 90.8113 163.614 91.2488 164.356C91.6863 165.091 92.2683 165.458 92.9949 165.458ZM109.565 168.024C108.276 168.024 107.264 167.892 106.53 167.626C105.796 167.36 105.276 166.903 104.971 166.255C104.675 165.606 104.526 164.716 104.526 163.583V157.489H101.175V154.853H104.526V151.267L107.96 149.743V154.853H112.448V157.489H107.96V163.747C107.96 164.325 108.104 164.743 108.393 165.001C108.69 165.259 109.163 165.388 109.811 165.388H112.448V168.024H109.565ZM116.925 159.235H126.194V162.646H116.925V159.235ZM135.628 172.946C134.143 172.946 132.706 172.731 131.315 172.302V169.149C132.581 169.853 133.901 170.204 135.276 170.204C136.3 170.204 137.042 169.978 137.503 169.524C137.971 169.071 138.206 168.356 138.206 167.38V165.962C137.534 167.196 136.425 167.813 134.878 167.813C133.956 167.813 133.178 167.626 132.546 167.251C131.921 166.868 131.417 166.364 131.034 165.739C130.651 165.106 130.374 164.407 130.202 163.642C130.03 162.876 129.944 162.103 129.944 161.321C129.944 160.556 130.026 159.778 130.19 158.989C130.354 158.192 130.62 157.454 130.987 156.774C131.362 156.095 131.854 155.548 132.464 155.134C133.081 154.72 133.839 154.513 134.737 154.513C136.346 154.513 137.503 155.185 138.206 156.528L138.546 154.853H141.639V166.993C141.639 169.095 141.167 170.61 140.221 171.54C139.276 172.478 137.745 172.946 135.628 172.946ZM135.78 165.095C136.491 165.095 137.073 164.731 137.526 164.005C137.979 163.278 138.206 162.345 138.206 161.204C138.206 160.063 137.979 159.134 137.526 158.415C137.081 157.688 136.503 157.325 135.792 157.325C135.081 157.325 134.499 157.688 134.046 158.415C133.6 159.134 133.378 160.063 133.378 161.204C133.378 162.345 133.6 163.278 134.046 164.005C134.491 164.731 135.069 165.095 135.78 165.095ZM151.132 168.317C148.874 168.317 147.155 167.735 145.975 166.571C144.803 165.399 144.218 163.708 144.218 161.497C144.218 160.099 144.46 158.88 144.944 157.841C145.428 156.794 146.151 155.981 147.112 155.403C148.081 154.825 149.292 154.536 150.745 154.536C151.94 154.536 152.975 154.813 153.85 155.368C154.725 155.923 155.401 156.696 155.878 157.688C156.362 158.673 156.604 159.821 156.604 161.134V162.528H147.71C147.71 164.575 148.905 165.599 151.296 165.599C152.866 165.599 154.452 165.126 156.053 164.181V167.333C154.46 167.989 152.819 168.317 151.132 168.317ZM153.147 159.95C153.147 159.044 152.925 158.36 152.479 157.899C152.034 157.431 151.397 157.196 150.569 157.196C149.725 157.196 149.065 157.435 148.589 157.911C148.112 158.388 147.831 159.067 147.745 159.95H153.147ZM167.409 168.024C166.12 168.024 165.108 167.892 164.374 167.626C163.639 167.36 163.12 166.903 162.815 166.255C162.518 165.606 162.37 164.716 162.37 163.583V157.489H159.018V154.853H162.37V151.267L165.803 149.743V154.853H170.292V157.489H165.803V163.747C165.803 164.325 165.948 164.743 166.237 165.001C166.534 165.259 167.007 165.388 167.655 165.388H170.292V168.024H167.409ZM191.925 153.294C191.69 153.294 191.573 153.177 191.573 152.942V149.638C191.573 149.403 191.69 149.286 191.925 149.286H194.655C194.889 149.286 195.007 149.403 195.007 149.638V152.942C195.007 153.177 194.889 153.294 194.655 153.294H191.925ZM196.155 168.118C194.53 168.118 193.358 167.692 192.639 166.841C191.928 165.981 191.573 164.583 191.573 162.646V157.489H188.796V154.853H195.007V162.646C195.007 163.661 195.167 164.388 195.487 164.825C195.815 165.263 196.358 165.481 197.116 165.481H199.858V168.118H196.155ZM203.116 154.853H206.186L206.526 156.821C206.768 156.087 207.182 155.524 207.768 155.134C208.362 154.735 209.081 154.536 209.925 154.536C211.143 154.536 212.069 154.954 212.702 155.79C213.335 156.626 213.651 157.849 213.651 159.458V167.978H210.241V159.985C210.241 159.063 210.108 158.392 209.843 157.97C209.585 157.54 209.182 157.325 208.635 157.325C207.971 157.325 207.452 157.606 207.077 158.169C206.71 158.731 206.526 159.497 206.526 160.466V167.978H203.116V154.853ZM222.698 168.317C221.221 168.317 219.585 168.044 217.788 167.497V164.497C219.327 165.38 220.87 165.821 222.417 165.821C224.026 165.821 224.831 165.345 224.831 164.392C224.831 163.97 224.639 163.63 224.257 163.372C223.874 163.114 223.221 162.888 222.3 162.692L221.35 162.481C218.835 161.919 217.577 160.626 217.577 158.603C217.577 157.306 218.042 156.306 218.971 155.603C219.909 154.892 221.264 154.536 223.038 154.536C223.725 154.536 224.405 154.595 225.077 154.712C225.757 154.829 226.456 155.013 227.175 155.263V158.263C226.487 157.833 225.827 157.521 225.194 157.325C224.569 157.13 223.925 157.032 223.26 157.032C222.479 157.032 221.878 157.146 221.456 157.372C221.034 157.599 220.823 157.903 220.823 158.286C220.823 158.638 221.018 158.942 221.409 159.2C221.807 159.45 222.448 159.677 223.331 159.88L224.444 160.149C225.694 160.446 226.608 160.923 227.186 161.579C227.772 162.235 228.065 163.103 228.065 164.181C228.065 166.938 226.276 168.317 222.698 168.317ZM239.714 168.024C238.425 168.024 237.413 167.892 236.678 167.626C235.944 167.36 235.425 166.903 235.12 166.255C234.823 165.606 234.675 164.716 234.675 163.583V157.489H231.323V154.853H234.675V151.267L238.108 149.743V154.853H242.596V157.489H238.108V163.747C238.108 164.325 238.253 164.743 238.542 165.001C238.839 165.259 239.311 165.388 239.96 165.388H242.596V168.024H239.714ZM250.155 168.317C248.796 168.317 247.694 167.931 246.85 167.157C246.014 166.376 245.596 165.255 245.596 163.794C245.596 162.872 245.76 162.122 246.089 161.544C246.425 160.958 246.878 160.505 247.448 160.185C248.026 159.864 248.678 159.646 249.405 159.528C250.132 159.403 250.893 159.341 251.69 159.341H254.069V158.767C254.069 158.298 253.944 157.942 253.694 157.7C253.452 157.458 253.135 157.294 252.745 157.208C252.362 157.122 251.968 157.079 251.561 157.079C250.733 157.079 249.936 157.192 249.171 157.419C248.413 157.646 247.655 157.966 246.897 158.38V155.45C247.71 155.122 248.514 154.888 249.311 154.747C250.116 154.599 250.928 154.524 251.749 154.524C253.186 154.524 254.323 154.731 255.159 155.146C255.995 155.552 256.589 156.185 256.94 157.044C257.3 157.896 257.479 158.981 257.479 160.302C257.479 160.606 257.471 160.997 257.456 161.474C257.448 161.95 257.444 162.427 257.444 162.903C257.444 163.325 257.44 163.724 257.432 164.099C257.425 164.474 257.421 164.79 257.421 165.048C257.421 165.274 257.432 165.571 257.456 165.938C257.479 166.298 257.534 166.665 257.62 167.04C257.706 167.415 257.839 167.728 258.018 167.978H254.62C254.471 167.728 254.362 167.493 254.292 167.274C254.221 167.056 254.171 166.802 254.139 166.513C253.678 167.13 253.1 167.587 252.405 167.884C251.718 168.173 250.968 168.317 250.155 168.317ZM251.28 165.938C251.999 165.938 252.557 165.743 252.956 165.353C253.362 164.954 253.647 164.458 253.811 163.864C253.983 163.263 254.069 162.657 254.069 162.048V161.813H252.698C252.159 161.813 251.624 161.853 251.093 161.931C250.561 162.001 250.12 162.185 249.768 162.481C249.425 162.771 249.253 163.251 249.253 163.923C249.253 164.563 249.428 165.06 249.78 165.411C250.139 165.763 250.639 165.938 251.28 165.938ZM268.178 168.071C266.553 168.071 265.382 167.646 264.663 166.794C263.952 165.935 263.596 164.536 263.596 162.599V152.38H260.116V149.743H267.03V162.599C267.03 163.614 267.19 164.341 267.51 164.778C267.839 165.216 268.382 165.435 269.139 165.435H271.882V168.071H268.178ZM282.639 168.071C281.014 168.071 279.843 167.646 279.124 166.794C278.413 165.935 278.057 164.536 278.057 162.599V152.38H274.577V149.743H281.491V162.599C281.491 163.614 281.651 164.341 281.971 164.778C282.3 165.216 282.843 165.435 283.6 165.435H286.343V168.071H282.639ZM307.319 157.489H304.132V154.853H307.319V153.938C307.319 152.884 307.46 152.052 307.741 151.442C308.03 150.825 308.51 150.388 309.182 150.13C309.862 149.872 310.788 149.743 311.96 149.743H314.784V152.38H312.1C311.6 152.38 311.249 152.478 311.046 152.673C310.85 152.868 310.753 153.212 310.753 153.704V154.853H314.784V157.489H310.753V167.978H307.319V157.489ZM321.78 157.489H318.593V154.853H321.78V153.938C321.78 152.884 321.921 152.052 322.202 151.442C322.491 150.825 322.971 150.388 323.643 150.13C324.323 149.872 325.249 149.743 326.421 149.743H329.245V152.38H326.561C326.061 152.38 325.71 152.478 325.507 152.673C325.311 152.868 325.214 153.212 325.214 153.704V154.853H329.245V157.489H325.214V167.978H321.78V157.489ZM332.21 154.853H334.366L334.706 156.212C334.901 155.688 335.21 155.278 335.632 154.981C336.053 154.685 336.526 154.536 337.05 154.536C337.604 154.536 338.1 154.696 338.538 155.017C338.975 155.329 339.241 155.712 339.335 156.165C339.843 155.079 340.678 154.536 341.843 154.536C342.944 154.536 343.71 154.923 344.139 155.696C344.569 156.478 344.784 158.106 344.784 160.583V167.978H341.971V159.552C341.971 158.599 341.897 157.95 341.749 157.606C341.6 157.271 341.327 157.103 340.928 157.103C340.546 157.103 340.28 157.267 340.132 157.595C339.968 157.954 339.885 158.606 339.885 159.552V167.978H337.108V159.552C337.108 158.63 337.03 157.981 336.874 157.606C336.725 157.271 336.456 157.103 336.065 157.103C335.667 157.103 335.397 157.259 335.257 157.571C335.1 157.884 335.022 158.544 335.022 159.552V167.978H332.21V154.853ZM347.468 154.853H350.55L350.889 156.821C351.616 155.298 352.78 154.536 354.382 154.536C355.858 154.536 357.014 155.149 357.85 156.376C358.686 157.595 359.104 159.282 359.104 161.438C359.104 163.595 358.686 165.282 357.85 166.501C357.014 167.712 355.866 168.317 354.405 168.317C352.866 168.317 351.694 167.587 350.889 166.126V172.97H347.468V154.853ZM353.292 165.458C354.01 165.458 354.585 165.087 355.014 164.345C355.452 163.595 355.671 162.591 355.671 161.333C355.671 160.106 355.46 159.138 355.038 158.427C354.624 157.708 354.053 157.349 353.327 157.349C352.585 157.349 351.991 157.72 351.546 158.462C351.108 159.196 350.889 160.177 350.889 161.403C350.889 162.63 351.108 163.614 351.546 164.356C351.983 165.091 352.565 165.458 353.292 165.458ZM368.046 168.317C365.788 168.317 364.069 167.735 362.889 166.571C361.718 165.399 361.132 163.708 361.132 161.497C361.132 160.099 361.374 158.88 361.858 157.841C362.343 156.794 363.065 155.981 364.026 155.403C364.995 154.825 366.206 154.536 367.659 154.536C368.854 154.536 369.889 154.813 370.764 155.368C371.639 155.923 372.315 156.696 372.792 157.688C373.276 158.673 373.518 159.821 373.518 161.134V162.528H364.624C364.624 164.575 365.819 165.599 368.21 165.599C369.78 165.599 371.366 165.126 372.968 164.181V167.333C371.374 167.989 369.733 168.317 368.046 168.317ZM370.061 159.95C370.061 159.044 369.839 158.36 369.393 157.899C368.948 157.431 368.311 157.196 367.483 157.196C366.639 157.196 365.979 157.435 365.503 157.911C365.026 158.388 364.745 159.067 364.659 159.95H370.061ZM381.464 172.946C379.979 172.946 378.542 172.731 377.151 172.302V169.149C378.417 169.853 379.737 170.204 381.112 170.204C382.135 170.204 382.878 169.978 383.339 169.524C383.807 169.071 384.042 168.356 384.042 167.38V165.962C383.37 167.196 382.26 167.813 380.714 167.813C379.792 167.813 379.014 167.626 378.382 167.251C377.757 166.868 377.253 166.364 376.87 165.739C376.487 165.106 376.21 164.407 376.038 163.642C375.866 162.876 375.78 162.103 375.78 161.321C375.78 160.556 375.862 159.778 376.026 158.989C376.19 158.192 376.456 157.454 376.823 156.774C377.198 156.095 377.69 155.548 378.3 155.134C378.917 154.72 379.675 154.513 380.573 154.513C382.182 154.513 383.339 155.185 384.042 156.528L384.382 154.853H387.475V166.993C387.475 169.095 387.003 170.61 386.057 171.54C385.112 172.478 383.581 172.946 381.464 172.946ZM381.616 165.095C382.327 165.095 382.909 164.731 383.362 164.005C383.815 163.278 384.042 162.345 384.042 161.204C384.042 160.063 383.815 159.134 383.362 158.415C382.917 157.688 382.339 157.325 381.628 157.325C380.917 157.325 380.335 157.688 379.882 158.415C379.436 159.134 379.214 160.063 379.214 161.204C379.214 162.345 379.436 163.278 379.882 164.005C380.327 164.731 380.905 165.095 381.616 165.095Z" fill="white"/>
    <path d="M48.03 215.342C47.7097 215.319 47.155 215.217 46.366 215.037C45.6316 214.865 44.8581 214.608 44.0456 214.264V211.194C44.8503 211.67 45.6316 212.037 46.3894 212.295C47.1394 212.545 47.8464 212.678 48.5105 212.694V208.838C46.9714 208.533 45.8269 208.006 45.0769 207.256C44.3269 206.522 43.9519 205.533 43.9519 204.291C43.9519 202.994 44.3503 201.959 45.1472 201.186C45.9441 200.412 46.9089 199.979 48.0417 199.885V197.108H50.6316L50.6433 199.885C50.8855 199.924 51.3074 199.994 51.9089 200.096C52.1746 200.143 52.4558 200.205 52.7527 200.283C53.0574 200.354 53.3855 200.444 53.7371 200.553V203.553C53.4792 203.381 53.2097 203.237 52.9285 203.119C52.655 202.994 52.3855 202.889 52.1199 202.803C51.5027 202.615 50.8503 202.498 50.1628 202.451V206.049C51.7097 206.291 52.8738 206.815 53.655 207.619C54.4363 208.408 54.8269 209.475 54.8269 210.819C54.8269 211.49 54.7214 212.088 54.5105 212.612C54.2996 213.127 53.9831 213.592 53.5613 214.006C53.0847 214.467 52.5574 214.795 51.9792 214.99C51.4089 215.186 50.9636 215.303 50.6433 215.342L50.6316 218.869H48.0417L48.03 215.342ZM48.5105 202.451C48.0183 202.514 47.655 202.674 47.4206 202.932C47.3113 203.041 47.2214 203.186 47.1511 203.365C47.0808 203.545 47.0456 203.76 47.0456 204.01C47.0456 204.455 47.1706 204.826 47.4206 205.123C47.6706 205.42 48.0339 205.635 48.5105 205.768V202.451ZM50.1628 212.694C50.4441 212.655 50.6746 212.584 50.8542 212.483C51.0339 212.381 51.1863 212.26 51.3113 212.119C51.5847 211.799 51.7214 211.405 51.7214 210.936C51.7214 210.459 51.5886 210.065 51.323 209.752C51.198 209.612 51.0417 209.49 50.8542 209.389C50.6667 209.287 50.4363 209.209 50.1628 209.155V212.694Z" fill="#8C8C8C"/>
    <path d="M76.6238 215.682C75.2644 215.682 74.1628 215.295 73.3191 214.522C72.4831 213.74 72.0652 212.619 72.0652 211.158C72.0652 210.237 72.2292 209.487 72.5574 208.908C72.8933 208.323 73.3464 207.869 73.9167 207.549C74.4949 207.229 75.1472 207.01 75.8738 206.893C76.6003 206.768 77.3621 206.705 78.1589 206.705H80.5378V206.131C80.5378 205.662 80.4128 205.307 80.1628 205.065C79.9206 204.823 79.6042 204.658 79.2136 204.573C78.8308 204.487 78.4363 204.444 78.03 204.444C77.2019 204.444 76.405 204.557 75.6394 204.783C74.8816 205.01 74.1238 205.33 73.366 205.744V202.815C74.1785 202.487 74.9831 202.252 75.78 202.112C76.5847 201.963 77.3972 201.889 78.2175 201.889C79.655 201.889 80.7917 202.096 81.6277 202.51C82.4636 202.916 83.0574 203.549 83.4089 204.408C83.7683 205.26 83.948 206.346 83.948 207.666C83.948 207.971 83.9402 208.362 83.9246 208.838C83.9167 209.315 83.9128 209.791 83.9128 210.268C83.9128 210.69 83.9089 211.088 83.9011 211.463C83.8933 211.838 83.8894 212.155 83.8894 212.412C83.8894 212.639 83.9011 212.936 83.9246 213.303C83.948 213.662 84.0027 214.03 84.0886 214.405C84.1746 214.78 84.3074 215.092 84.4871 215.342H81.0886C80.9402 215.092 80.8308 214.858 80.7605 214.639C80.6902 214.42 80.6394 214.166 80.6081 213.877C80.1472 214.494 79.5691 214.951 78.8738 215.248C78.1863 215.537 77.4363 215.682 76.6238 215.682ZM77.7488 213.303C78.4675 213.303 79.0261 213.108 79.4246 212.717C79.8308 212.319 80.116 211.823 80.28 211.229C80.4519 210.627 80.5378 210.022 80.5378 209.412V209.178H79.1667C78.6277 209.178 78.0925 209.217 77.5613 209.295C77.03 209.365 76.5886 209.549 76.2371 209.846C75.8933 210.135 75.7214 210.615 75.7214 211.287C75.7214 211.928 75.8972 212.424 76.2488 212.776C76.6081 213.127 77.1081 213.303 77.7488 213.303ZM87.1706 202.217H90.2527L90.5925 204.186C91.3191 202.662 92.4831 201.901 94.0847 201.901C95.5613 201.901 96.7175 202.514 97.5535 203.74C98.3894 204.959 98.8074 206.647 98.8074 208.803C98.8074 210.959 98.3894 212.647 97.5535 213.865C96.7175 215.076 95.5691 215.682 94.1081 215.682C92.5691 215.682 91.3972 214.951 90.5925 213.49V220.334H87.1706V202.217ZM92.9949 212.823C93.7136 212.823 94.2878 212.451 94.7175 211.709C95.155 210.959 95.3738 209.955 95.3738 208.698C95.3738 207.471 95.1628 206.502 94.741 205.791C94.3269 205.073 93.7566 204.713 93.03 204.713C92.2878 204.713 91.6941 205.084 91.2488 205.826C90.8113 206.561 90.5925 207.541 90.5925 208.768C90.5925 209.994 90.8113 210.979 91.2488 211.721C91.6863 212.455 92.2683 212.823 92.9949 212.823ZM109.565 215.389C108.276 215.389 107.264 215.256 106.53 214.99C105.796 214.725 105.276 214.268 104.971 213.619C104.675 212.971 104.526 212.08 104.526 210.948V204.854H101.175V202.217H104.526V198.631L107.96 197.108V202.217H112.448V204.854H107.96V211.112C107.96 211.69 108.104 212.108 108.393 212.365C108.69 212.623 109.163 212.752 109.811 212.752H112.448V215.389H109.565ZM134.081 200.658C133.846 200.658 133.729 200.541 133.729 200.307V197.002C133.729 196.768 133.846 196.651 134.081 196.651H136.811C137.046 196.651 137.163 196.768 137.163 197.002V200.307C137.163 200.541 137.046 200.658 136.811 200.658H134.081ZM138.311 215.483C136.686 215.483 135.514 215.057 134.796 214.205C134.085 213.346 133.729 211.948 133.729 210.01V204.854H130.952V202.217H137.163V210.01C137.163 211.026 137.323 211.752 137.643 212.19C137.971 212.627 138.514 212.846 139.272 212.846H142.014V215.483H138.311ZM145.272 202.217H148.343L148.682 204.186C148.925 203.451 149.339 202.889 149.925 202.498C150.518 202.1 151.237 201.901 152.081 201.901C153.3 201.901 154.225 202.319 154.858 203.155C155.491 203.99 155.807 205.213 155.807 206.823V215.342H152.397V207.35C152.397 206.428 152.264 205.756 151.999 205.334C151.741 204.905 151.339 204.69 150.792 204.69C150.128 204.69 149.608 204.971 149.233 205.533C148.866 206.096 148.682 206.862 148.682 207.83V215.342H145.272V202.217ZM164.854 215.682C163.378 215.682 161.741 215.408 159.944 214.862V211.862C161.483 212.744 163.026 213.186 164.573 213.186C166.182 213.186 166.987 212.709 166.987 211.756C166.987 211.334 166.796 210.994 166.413 210.737C166.03 210.479 165.378 210.252 164.456 210.057L163.507 209.846C160.991 209.283 159.733 207.99 159.733 205.967C159.733 204.67 160.198 203.67 161.128 202.967C162.065 202.256 163.421 201.901 165.194 201.901C165.882 201.901 166.561 201.959 167.233 202.076C167.913 202.194 168.612 202.377 169.331 202.627V205.627C168.643 205.198 167.983 204.885 167.35 204.69C166.725 204.494 166.081 204.397 165.417 204.397C164.635 204.397 164.034 204.51 163.612 204.737C163.19 204.963 162.979 205.268 162.979 205.651C162.979 206.002 163.175 206.307 163.565 206.565C163.964 206.815 164.604 207.041 165.487 207.244L166.6 207.514C167.85 207.811 168.764 208.287 169.343 208.944C169.928 209.6 170.221 210.467 170.221 211.545C170.221 214.303 168.432 215.682 164.854 215.682ZM181.87 215.389C180.581 215.389 179.569 215.256 178.835 214.99C178.1 214.725 177.581 214.268 177.276 213.619C176.979 212.971 176.831 212.08 176.831 210.948V204.854H173.479V202.217H176.831V198.631L180.264 197.108V202.217H184.753V204.854H180.264V211.112C180.264 211.69 180.409 212.108 180.698 212.365C180.995 212.623 181.468 212.752 182.116 212.752H184.753V215.389H181.87ZM192.311 215.682C190.952 215.682 189.85 215.295 189.007 214.522C188.171 213.74 187.753 212.619 187.753 211.158C187.753 210.237 187.917 209.487 188.245 208.908C188.581 208.323 189.034 207.869 189.604 207.549C190.182 207.229 190.835 207.01 191.561 206.893C192.288 206.768 193.05 206.705 193.846 206.705H196.225V206.131C196.225 205.662 196.1 205.307 195.85 205.065C195.608 204.823 195.292 204.658 194.901 204.573C194.518 204.487 194.124 204.444 193.718 204.444C192.889 204.444 192.093 204.557 191.327 204.783C190.569 205.01 189.811 205.33 189.053 205.744V202.815C189.866 202.487 190.671 202.252 191.468 202.112C192.272 201.963 193.085 201.889 193.905 201.889C195.343 201.889 196.479 202.096 197.315 202.51C198.151 202.916 198.745 203.549 199.096 204.408C199.456 205.26 199.635 206.346 199.635 207.666C199.635 207.971 199.628 208.362 199.612 208.838C199.604 209.315 199.6 209.791 199.6 210.268C199.6 210.69 199.596 211.088 199.589 211.463C199.581 211.838 199.577 212.155 199.577 212.412C199.577 212.639 199.589 212.936 199.612 213.303C199.635 213.662 199.69 214.03 199.776 214.405C199.862 214.78 199.995 215.092 200.175 215.342H196.776C196.628 215.092 196.518 214.858 196.448 214.639C196.378 214.42 196.327 214.166 196.296 213.877C195.835 214.494 195.257 214.951 194.561 215.248C193.874 215.537 193.124 215.682 192.311 215.682ZM193.436 213.303C194.155 213.303 194.714 213.108 195.112 212.717C195.518 212.319 195.803 211.823 195.968 211.229C196.139 210.627 196.225 210.022 196.225 209.412V209.178H194.854C194.315 209.178 193.78 209.217 193.249 209.295C192.718 209.365 192.276 209.549 191.925 209.846C191.581 210.135 191.409 210.615 191.409 211.287C191.409 211.928 191.585 212.424 191.936 212.776C192.296 213.127 192.796 213.303 193.436 213.303ZM210.335 215.436C208.71 215.436 207.538 215.01 206.819 214.158C206.108 213.299 205.753 211.901 205.753 209.963V199.744H202.272V197.108H209.186V209.963C209.186 210.979 209.346 211.705 209.667 212.143C209.995 212.58 210.538 212.799 211.296 212.799H214.038V215.436H210.335ZM224.796 215.436C223.171 215.436 221.999 215.01 221.28 214.158C220.569 213.299 220.214 211.901 220.214 209.963V199.744H216.733V197.108H223.647V209.963C223.647 210.979 223.807 211.705 224.128 212.143C224.456 212.58 224.999 212.799 225.757 212.799H228.499V215.436H224.796ZM249.475 204.854H246.288V202.217H249.475V201.303C249.475 200.248 249.616 199.416 249.897 198.807C250.186 198.19 250.667 197.752 251.339 197.494C252.018 197.237 252.944 197.108 254.116 197.108H256.94V199.744H254.257C253.757 199.744 253.405 199.842 253.202 200.037C253.007 200.233 252.909 200.576 252.909 201.069V202.217H256.94V204.854H252.909V215.342H249.475V204.854ZM263.936 204.854H260.749V202.217H263.936V201.303C263.936 200.248 264.077 199.416 264.358 198.807C264.647 198.19 265.128 197.752 265.8 197.494C266.479 197.237 267.405 197.108 268.577 197.108H271.401V199.744H268.718C268.218 199.744 267.866 199.842 267.663 200.037C267.468 200.233 267.37 200.576 267.37 201.069V202.217H271.401V204.854H267.37V215.342H263.936V204.854ZM274.366 202.217H276.522L276.862 203.576C277.057 203.053 277.366 202.643 277.788 202.346C278.21 202.049 278.682 201.901 279.206 201.901C279.76 201.901 280.257 202.061 280.694 202.381C281.132 202.694 281.397 203.076 281.491 203.53C281.999 202.444 282.835 201.901 283.999 201.901C285.1 201.901 285.866 202.287 286.296 203.061C286.725 203.842 286.94 205.471 286.94 207.948V215.342H284.128V206.916C284.128 205.963 284.053 205.315 283.905 204.971C283.757 204.635 283.483 204.467 283.085 204.467C282.702 204.467 282.436 204.631 282.288 204.959C282.124 205.319 282.042 205.971 282.042 206.916V215.342H279.264V206.916C279.264 205.994 279.186 205.346 279.03 204.971C278.882 204.635 278.612 204.467 278.221 204.467C277.823 204.467 277.553 204.623 277.413 204.936C277.257 205.248 277.178 205.908 277.178 206.916V215.342H274.366V202.217ZM289.624 202.217H292.706L293.046 204.186C293.772 202.662 294.936 201.901 296.538 201.901C298.014 201.901 299.171 202.514 300.007 203.74C300.843 204.959 301.26 206.647 301.26 208.803C301.26 210.959 300.843 212.647 300.007 213.865C299.171 215.076 298.022 215.682 296.561 215.682C295.022 215.682 293.85 214.951 293.046 213.49V220.334H289.624V202.217ZM295.448 212.823C296.167 212.823 296.741 212.451 297.171 211.709C297.608 210.959 297.827 209.955 297.827 208.698C297.827 207.471 297.616 206.502 297.194 205.791C296.78 205.073 296.21 204.713 295.483 204.713C294.741 204.713 294.147 205.084 293.702 205.826C293.264 206.561 293.046 207.541 293.046 208.768C293.046 209.994 293.264 210.979 293.702 211.721C294.139 212.455 294.721 212.823 295.448 212.823ZM310.202 215.682C307.944 215.682 306.225 215.1 305.046 213.936C303.874 212.764 303.288 211.073 303.288 208.862C303.288 207.463 303.53 206.244 304.014 205.205C304.499 204.158 305.221 203.346 306.182 202.768C307.151 202.19 308.362 201.901 309.815 201.901C311.01 201.901 312.046 202.178 312.921 202.733C313.796 203.287 314.471 204.061 314.948 205.053C315.432 206.037 315.675 207.186 315.675 208.498V209.893H306.78C306.78 211.94 307.975 212.963 310.366 212.963C311.936 212.963 313.522 212.49 315.124 211.545V214.698C313.53 215.354 311.889 215.682 310.202 215.682ZM312.218 207.315C312.218 206.408 311.995 205.725 311.55 205.264C311.104 204.795 310.468 204.561 309.639 204.561C308.796 204.561 308.135 204.799 307.659 205.276C307.182 205.752 306.901 206.432 306.815 207.315H312.218ZM323.62 220.311C322.135 220.311 320.698 220.096 319.307 219.666V216.514C320.573 217.217 321.893 217.569 323.268 217.569C324.292 217.569 325.034 217.342 325.495 216.889C325.964 216.436 326.198 215.721 326.198 214.744V213.326C325.526 214.561 324.417 215.178 322.87 215.178C321.948 215.178 321.171 214.99 320.538 214.615C319.913 214.233 319.409 213.729 319.026 213.104C318.643 212.471 318.366 211.772 318.194 211.006C318.022 210.24 317.936 209.467 317.936 208.686C317.936 207.92 318.018 207.143 318.182 206.354C318.346 205.557 318.612 204.819 318.979 204.139C319.354 203.459 319.846 202.912 320.456 202.498C321.073 202.084 321.831 201.877 322.729 201.877C324.339 201.877 325.495 202.549 326.198 203.893L326.538 202.217H329.632V214.358C329.632 216.459 329.159 217.975 328.214 218.905C327.268 219.842 325.737 220.311 323.62 220.311ZM323.772 212.459C324.483 212.459 325.065 212.096 325.518 211.369C325.971 210.643 326.198 209.709 326.198 208.569C326.198 207.428 325.971 206.498 325.518 205.78C325.073 205.053 324.495 204.69 323.784 204.69C323.073 204.69 322.491 205.053 322.038 205.78C321.593 206.498 321.37 207.428 321.37 208.569C321.37 209.709 321.593 210.643 322.038 211.369C322.483 212.096 323.061 212.459 323.772 212.459Z" fill="white"/>
    <defs>
        <filter id="filter0_d_158_28" x="0.243475" y="0.19478" width="531.885" height="306.077" filterUnits="userSpaceOnUse" color-interpolation-filters="sRGB">
            <feFlood flood-opacity="0" result="BackgroundImageFix"/>
            <feColorMatrix in="SourceAlpha" type="matrix" values="0 0 0 0 0 0 0 0 0 0 0 0 0 0 0 0 0 0 127 0" result="hardAlpha"/>
            <feOffset dy="3.9513"/>
            <feGaussianBlur stdDeviation="9.87826"/>
            <feComposite in2="hardAlpha" operator="out"/>
            <feColorMatrix type="matrix" values="0 0 0 0 0 0 0 0 0 0 0 0 0 0 0 0 0 0 0.25 0"/>
            <feBlend mode="normal" in2="BackgroundImageFix" result="effect1_dropShadow_158_28"/>
            <feBlend mode="normal" in="SourceGraphic" in2="effect1_dropShadow_158_28" result="shape"/>
        </filter>
    </defs>
</svg>
