<svg width="177" height="50" viewBox="0 0 177 50" fill="none" xmlns="http://www.w3.org/2000/svg">
    <path d="M147.681 9.51122H154.938L161.925 22.7074H162.224L169.211 9.51122H176.467L165.291 29.3204V40.1526H158.858V29.3204L147.681 9.51122Z" fill="#1f2937"/>
    <path d="M123.103 40.1526V9.51122H135.192C137.506 9.51122 139.481 9.92516 141.117 10.753C142.763 11.5709 144.014 12.733 144.872 14.2391C145.74 15.7353 146.174 17.4957 146.174 19.5205C146.174 21.5553 145.735 23.3058 144.857 24.7721C143.979 26.2283 142.708 27.3455 141.042 28.1235C139.386 28.9015 137.381 29.2905 135.027 29.2905H126.933V24.0838H133.98C135.217 24.0838 136.244 23.9143 137.062 23.5751C137.88 23.236 138.489 22.7273 138.888 22.0491C139.296 21.3708 139.501 20.528 139.501 19.5205C139.501 18.5032 139.296 17.6454 138.888 16.9471C138.489 16.2489 137.875 15.7203 137.047 15.3612C136.229 14.9922 135.197 14.8076 133.95 14.8076H129.581V40.1526H123.103ZM139.651 26.2084L147.266 40.1526H140.114L132.663 26.2084H139.651Z" fill="#1f2937"/>
    <path d="M97.3054 40.1526V9.51122H117.952V14.8525H103.784V22.1538H116.89V27.4951H103.784V34.8113H118.012V40.1526H97.3054Z" fill="#1f2937"/>
    <path d="M71.3246 9.51122L78.7306 32.7915H79.0149L86.4358 9.51122H93.6174L83.0545 40.1526H74.7059L64.128 9.51122H71.3246Z" fill="#1f2937"/>
    <path d="M39.9912 40.1526V9.51122H60.6382V14.8525H46.4696V22.1538H59.576V27.4951H46.4696V34.8113H60.6981V40.1526H39.9912Z" fill="#1f2937"/>
    <path d="M9.88081 0.901921C3.74789 7.03484 0 15.4676 0 24.8373C0 34.2071 3.66271 42.8953 9.88081 49.0283L16.0137 42.8953C11.414 38.2957 8.51794 31.9072 8.51794 24.7521C8.51794 17.6823 11.3289 11.5493 16.0137 6.94966L9.88081 0.816742V0.901921ZM22.1466 12.9122C19.0802 15.9787 17.1211 20.2376 17.1211 24.9225C17.1211 29.6074 19.0802 34.1219 22.1466 37.1883L28.024 31.0554C26.4908 29.5222 25.639 27.3075 25.639 24.9225C25.639 22.5375 26.4908 20.6635 28.024 19.0451L22.1466 12.9122Z" fill="#1f2937"/>
</svg>
