<svg width="211" height="45" viewBox="0 0 211 45" fill="none" xmlns="http://www.w3.org/2000/svg">
    <path d="M198.898 33.5503L204.283 15.538H210.08L201.918 38.8977C201.743 39.4105 201.506 39.9609 201.205 40.5488C200.918 41.1367 200.524 41.6933 200.023 42.2187C199.536 42.7566 198.916 43.1944 198.166 43.5321C197.428 43.8698 196.521 44.0387 195.445 44.0387C194.932 44.0387 194.513 44.0074 194.188 43.9449C193.863 43.8823 193.475 43.7948 193.025 43.6822V39.7233C193.162 39.7233 193.306 39.7233 193.456 39.7233C193.607 39.7358 193.75 39.742 193.888 39.742C194.601 39.742 195.183 39.6607 195.633 39.4981C196.083 39.3355 196.446 39.0853 196.721 38.7476C196.996 38.4224 197.215 37.9971 197.378 37.4717L198.898 33.5503ZM196.646 15.538L201.055 30.248L201.825 35.9707L198.147 36.3647L190.848 15.538H196.646Z" fill="#1f2937"/>
    <path d="M176.626 19.8722V35.8394H171.223V15.538H176.288L176.626 19.8722ZM175.838 24.9757H174.375C174.375 23.4747 174.569 22.1238 174.956 20.9229C175.344 19.7096 175.888 18.6777 176.589 17.8271C177.289 16.964 178.121 16.3073 179.084 15.857C180.06 15.3942 181.148 15.1628 182.349 15.1628C183.3 15.1628 184.169 15.3004 184.957 15.5755C185.745 15.8507 186.42 16.2885 186.983 16.8889C187.559 17.4893 187.996 18.2836 188.297 19.2718C188.609 20.26 188.766 21.4671 188.766 22.893V35.8394H183.325V22.8743C183.325 21.9737 183.199 21.2732 182.949 20.7728C182.699 20.2725 182.33 19.9223 181.842 19.7221C181.367 19.5095 180.779 19.4031 180.079 19.4031C179.353 19.4031 178.721 19.547 178.184 19.8347C177.658 20.1224 177.22 20.5227 176.87 21.0355C176.532 21.5359 176.276 22.1238 176.101 22.7992C175.926 23.4747 175.838 24.2002 175.838 24.9757Z" fill="#1f2937"/>
    <path d="M161.729 31.2612V22.2176C161.729 21.5671 161.622 21.0105 161.41 20.5477C161.197 20.0724 160.865 19.7034 160.415 19.4407C159.977 19.178 159.408 19.0467 158.708 19.0467C158.107 19.0467 157.588 19.153 157.15 19.3656C156.713 19.5658 156.375 19.8597 156.137 20.2475C155.9 20.6227 155.781 21.0668 155.781 21.5796H150.377C150.377 20.7165 150.577 19.8972 150.978 19.1217C151.378 18.3462 151.959 17.6645 152.722 17.0766C153.485 16.4762 154.392 16.0071 155.443 15.6694C156.506 15.3316 157.695 15.1628 159.008 15.1628C160.584 15.1628 161.985 15.4254 163.211 15.9508C164.437 16.4762 165.4 17.2642 166.1 18.3149C166.813 19.3656 167.17 20.679 167.17 22.2551V30.9423C167.17 32.0555 167.239 32.9686 167.376 33.6816C167.514 34.3821 167.714 34.995 167.977 35.5204V35.8394H162.517C162.254 35.289 162.054 34.601 161.916 33.7754C161.791 32.9374 161.729 32.0993 161.729 31.2612ZM162.442 23.4747L162.479 26.533H159.458C158.745 26.533 158.126 26.6143 157.601 26.7769C157.075 26.9395 156.644 27.1709 156.306 27.4712C155.968 27.7588 155.718 28.0966 155.556 28.4843C155.406 28.8721 155.33 29.2974 155.33 29.7602C155.33 30.223 155.437 30.6421 155.649 31.0173C155.862 31.3801 156.169 31.6678 156.569 31.8804C156.969 32.0805 157.438 32.1806 157.976 32.1806C158.789 32.1806 159.496 32.018 160.096 31.6928C160.697 31.3676 161.159 30.9673 161.485 30.492C161.822 30.0166 161.998 29.5663 162.01 29.141L163.436 31.4301C163.236 31.9429 162.961 32.4746 162.61 33.0249C162.273 33.5753 161.841 34.0944 161.316 34.5822C160.79 35.0576 160.159 35.4516 159.421 35.7643C158.683 36.0645 157.807 36.2146 156.794 36.2146C155.506 36.2146 154.336 35.9582 153.285 35.4453C152.247 34.92 151.422 34.2007 150.809 33.2876C150.208 32.362 149.908 31.3113 149.908 30.1355C149.908 29.0722 150.108 28.1278 150.508 27.3023C150.909 26.4767 151.497 25.7825 152.272 25.2196C153.06 24.6442 154.042 24.2127 155.218 23.925C156.394 23.6248 157.757 23.4747 159.308 23.4747H162.442Z" fill="#1f2937"/>
    <path d="M134.56 19.4407V43.6447H129.156V15.538H134.166L134.56 19.4407ZM147.413 25.4635V25.8576C147.413 27.3336 147.237 28.7032 146.887 29.9666C146.549 31.23 146.049 32.3307 145.386 33.2689C144.723 34.1945 143.898 34.92 142.91 35.4453C141.934 35.9582 140.808 36.2146 139.532 36.2146C138.294 36.2146 137.218 35.9644 136.305 35.4641C135.392 34.9638 134.623 34.2633 133.997 33.3627C133.384 32.4495 132.89 31.3926 132.515 30.1918C132.14 28.9909 131.852 27.7026 131.652 26.3266V25.2947C131.852 23.8187 132.14 22.4677 132.515 21.2419C132.89 20.0036 133.384 18.9341 133.997 18.0335C134.623 17.1203 135.386 16.4136 136.286 15.9133C137.199 15.4129 138.269 15.1628 139.495 15.1628C140.783 15.1628 141.915 15.4067 142.891 15.8945C143.879 16.3823 144.704 17.0828 145.367 17.9959C146.043 18.9091 146.549 19.9973 146.887 21.2607C147.237 22.524 147.413 23.925 147.413 25.4635ZM141.99 25.8576V25.4635C141.99 24.6004 141.915 23.8062 141.765 23.0807C141.627 22.3427 141.402 21.6985 141.09 21.1481C140.789 20.5977 140.389 20.1724 139.889 19.8722C139.401 19.5595 138.807 19.4031 138.106 19.4031C137.368 19.4031 136.737 19.522 136.211 19.7596C135.698 19.9973 135.279 20.3413 134.954 20.7916C134.629 21.2419 134.385 21.7798 134.222 22.4052C134.06 23.0306 133.96 23.7374 133.922 24.5254V27.1334C133.985 28.0591 134.16 28.8909 134.447 29.6289C134.735 30.3544 135.179 30.9298 135.78 31.355C136.38 31.7803 137.168 31.993 138.144 31.993C138.857 31.993 139.457 31.8366 139.945 31.5239C140.433 31.1987 140.827 30.7546 141.127 30.1918C141.44 29.6289 141.659 28.9784 141.784 28.2404C141.921 27.5024 141.99 26.7081 141.99 25.8576Z" fill="#1f2937"/>
    <path d="M101.275 19.7409V35.8394H95.8524V15.538H100.937L101.275 19.7409ZM100.524 24.9757H99.0233C99.0233 23.5622 99.1922 22.2613 99.5299 21.073C99.8802 19.8722 100.387 18.834 101.05 17.9584C101.725 17.0703 102.557 16.3823 103.545 15.8945C104.533 15.4067 105.678 15.1628 106.979 15.1628C107.879 15.1628 108.705 15.3004 109.455 15.5755C110.206 15.8382 110.85 16.2573 111.388 16.8326C111.938 17.3955 112.364 18.1335 112.664 19.0467C112.964 19.9473 113.114 21.0293 113.114 22.2926V35.8394H107.711V22.893C107.711 21.9674 107.585 21.2544 107.335 20.7541C107.085 20.2537 106.729 19.9035 106.266 19.7034C105.815 19.5032 105.271 19.4031 104.633 19.4031C103.933 19.4031 103.32 19.547 102.795 19.8347C102.282 20.1224 101.857 20.5227 101.519 21.0355C101.181 21.5359 100.931 22.1238 100.768 22.7992C100.606 23.4747 100.524 24.2002 100.524 24.9757ZM112.608 24.3565L110.675 24.6004C110.675 23.2745 110.838 22.0424 111.163 20.9042C111.501 19.7659 111.995 18.7652 112.645 17.9021C113.308 17.039 114.127 16.3698 115.103 15.8945C116.079 15.4067 117.204 15.1628 118.48 15.1628C119.456 15.1628 120.344 15.3066 121.145 15.5943C121.945 15.8695 122.627 16.3135 123.19 16.9265C123.765 17.5269 124.203 18.3149 124.503 19.2906C124.816 20.2662 124.972 21.4608 124.972 22.8743V35.8394H119.55V22.8743C119.55 21.9361 119.425 21.2231 119.175 20.7353C118.937 20.235 118.587 19.891 118.124 19.7034C117.674 19.5032 117.136 19.4031 116.51 19.4031C115.86 19.4031 115.291 19.5345 114.803 19.7972C114.315 20.0473 113.908 20.3976 113.583 20.8479C113.258 21.2982 113.014 21.8235 112.852 22.424C112.689 23.0119 112.608 23.656 112.608 24.3565Z" fill="#1f2937"/>
    <path d="M73.3183 25.8951V25.5011C73.3183 24.0125 73.5309 22.6429 73.9562 21.392C74.3815 20.1286 75.0007 19.0341 75.8137 18.1085C76.6268 17.1829 77.6275 16.4636 78.8158 15.9508C80.0041 15.4254 81.3675 15.1628 82.9061 15.1628C84.4446 15.1628 85.8143 15.4254 87.0151 15.9508C88.216 16.4636 89.2229 17.1829 90.0359 18.1085C90.8615 19.0341 91.4869 20.1286 91.9122 21.392C92.3375 22.6429 92.5502 24.0125 92.5502 25.5011V25.8951C92.5502 27.3711 92.3375 28.7408 91.9122 30.0041C91.4869 31.255 90.8615 32.3495 90.0359 33.2876C89.2229 34.2132 88.2222 34.9325 87.0339 35.4453C85.8456 35.9582 84.4822 36.2146 82.9436 36.2146C81.4051 36.2146 80.0354 35.9582 78.8346 35.4453C77.6462 34.9325 76.6393 34.2132 75.8137 33.2876C75.0007 32.3495 74.3815 31.255 73.9562 30.0041C73.5309 28.7408 73.3183 27.3711 73.3183 25.8951ZM78.722 25.5011V25.8951C78.722 26.7457 78.797 27.5399 78.9471 28.278C79.0972 29.016 79.3349 29.6664 79.6601 30.2293C79.9979 30.7797 80.4356 31.2112 80.9735 31.5239C81.5114 31.8366 82.1681 31.993 82.9436 31.993C83.6941 31.993 84.3383 31.8366 84.8762 31.5239C85.414 31.2112 85.8456 30.7797 86.1708 30.2293C86.496 29.6664 86.7337 29.016 86.8838 28.278C87.0464 27.5399 87.1277 26.7457 87.1277 25.8951V25.5011C87.1277 24.6755 87.0464 23.9 86.8838 23.1745C86.7337 22.4365 86.4898 21.786 86.152 21.2231C85.8268 20.6477 85.3953 20.1974 84.8574 19.8722C84.3195 19.547 83.6691 19.3844 82.9061 19.3844C82.1431 19.3844 81.4926 19.547 80.9548 19.8722C80.4294 20.1974 79.9979 20.6477 79.6601 21.2231C79.3349 21.786 79.0972 22.4365 78.9471 23.1745C78.797 23.9 78.722 24.6755 78.722 25.5011Z" fill="#1f2937"/>
    <path d="M65.2128 26.7769H70.8228C70.7103 28.6157 70.2037 30.248 69.303 31.674C68.4149 33.1 67.1703 34.2132 65.5692 35.0138C63.9807 35.8143 62.0669 36.2146 59.8278 36.2146C58.0766 36.2146 56.5068 35.9144 55.1184 35.314C53.7299 34.7011 52.5416 33.8255 51.5534 32.6872C50.5778 31.5489 49.8335 30.173 49.3207 28.5594C48.8078 26.9458 48.5514 25.1383 48.5514 23.1369V21.2419C48.5514 19.2405 48.8141 17.4331 49.3394 15.8195C49.8773 14.1933 50.6403 12.8112 51.6285 11.6729C52.6292 10.5346 53.8237 9.659 55.2122 9.04609C56.6006 8.43317 58.1517 8.12671 59.8654 8.12671C62.1419 8.12671 64.062 8.53949 65.6255 9.36505C67.2016 10.1906 68.4212 11.3289 69.2843 12.7799C70.1599 14.2309 70.6852 15.882 70.8604 17.7333H65.2315C65.169 16.6325 64.9501 15.7006 64.5748 14.9376C64.1996 14.1621 63.6304 13.5804 62.8674 13.1927C62.1169 12.7924 61.1162 12.5923 59.8654 12.5923C58.9272 12.5923 58.1079 12.7674 57.4074 13.1176C56.707 13.4679 56.1191 13.9995 55.6437 14.7124C55.1684 15.4254 54.8119 16.3261 54.5742 17.4143C54.3491 18.49 54.2365 19.7534 54.2365 21.2044V23.1369C54.2365 24.5504 54.3428 25.795 54.5555 26.8707C54.7681 27.934 55.0934 28.8346 55.5312 29.5726C55.9815 30.2981 56.5569 30.8485 57.2573 31.2237C57.9703 31.5865 58.8271 31.7678 59.8278 31.7678C61.0036 31.7678 61.973 31.5802 62.7361 31.2049C63.4991 30.8297 64.0807 30.2731 64.481 29.5351C64.8938 28.7971 65.1377 27.8777 65.2128 26.7769Z" fill="#1f2937"/>
    <path fill-rule="evenodd" clip-rule="evenodd" d="M1.75177 21.8608C1.75177 11.2182 10.3788 2.59114 21.0214 2.59114C31.664 2.59114 40.291 11.2182 40.291 21.8608C40.291 32.5034 31.664 41.1304 21.0214 41.1304C10.3788 41.1304 1.75177 32.5034 1.75177 21.8608ZM21.0214 6.09471C12.3138 6.09471 5.25534 13.1532 5.25534 21.8608C5.25534 30.5684 12.3138 37.6268 21.0214 37.6268C29.729 37.6268 36.7875 30.5684 36.7875 21.8608C36.7875 13.1532 29.729 6.09471 21.0214 6.09471Z" fill="#1f2937"/>
    <path fill-rule="evenodd" clip-rule="evenodd" d="M16.6419 14.2755C17.1839 13.9626 17.8517 13.9626 18.3937 14.2755L28.9044 20.3437C29.4464 20.6566 29.7803 21.2349 29.7803 21.8608C29.7803 22.4866 29.4464 23.0649 28.9044 23.3779L18.3937 29.4461C17.8517 29.759 17.1839 29.759 16.6419 29.446C16.0999 29.1331 15.7661 28.5548 15.7661 27.929V15.7926C15.7661 15.1667 16.0999 14.5884 16.6419 14.2755ZM19.2696 18.8267V24.8948L24.5249 21.8608L19.2696 18.8267Z" fill="#1f2937"/>
</svg>
