<svg width="141" height="36" viewBox="0 0 141 36" fill="none" xmlns="http://www.w3.org/2000/svg">
    <path d="M49.4821 15.736H55.8703V19.7339H49.4821V28.6331H46.0417V28.6347V7.13843H58.1416V11.151H49.4821V15.736Z" fill="white"/>
    <path d="M62.8894 15.736H69.2792V19.7339H62.8894V28.6331H59.4507V28.6347V7.13843H71.5505V11.151H62.8894V15.736Z" fill="white"/>
    <path d="M76.8461 19.4631V28.6346H72.8335V14.72L76.8461 14.2896V15.5646C77.7445 14.7216 78.8907 14.3042 80.2848 14.3042C82.0995 14.3042 83.4854 14.8537 84.4409 15.9527C85.4926 14.8537 87.0676 14.3042 89.1693 14.3042C90.984 14.3042 92.37 14.8537 93.3254 15.9527C94.2809 17.0532 94.7586 18.3168 94.7586 19.75V28.6346H90.746V20.7528C90.746 19.7973 90.5308 19.0571 90.1003 18.5321C89.6699 18.0087 88.9737 17.7315 88.0084 17.7005C87.216 17.7576 86.5279 18.2826 85.9442 19.2772C85.8969 19.5756 85.8725 19.874 85.8725 20.1821V28.6378H81.8599V20.7561C81.8599 19.8006 81.6446 19.0604 81.2142 18.5353C80.7837 18.012 80.0908 17.7331 79.1255 17.7022C78.2467 17.7576 77.4869 18.3446 76.8461 19.4631Z" fill="white"/>
    <path d="M96.7751 34.6527V14.72L100.788 14.2896V15.4358C101.857 14.6695 102.909 14.2896 103.941 14.2896C106.139 14.2896 107.882 15.0037 109.172 16.4369C110.461 17.8717 111.107 19.5413 111.107 21.4523C111.107 23.3632 110.461 25.0344 109.172 26.4676C107.882 27.9008 106.139 28.6166 103.941 28.6166C102.508 28.5188 101.458 28.134 100.788 27.4557V34.6641L96.7751 34.6527ZM100.788 20.1658V22.4893C100.979 24.092 101.981 25.0361 103.798 25.31C106.09 25.129 107.38 23.9388 107.667 21.7425C107.571 19.0652 106.281 17.6826 103.798 17.5848C101.981 17.8717 100.979 18.7326 100.788 20.1658Z" fill="white"/>
    <path d="M111.744 21.4688C111.744 19.3671 112.413 17.6453 113.75 16.3099C115.087 14.9729 116.807 14.3044 118.909 14.3044C121.01 14.3044 122.682 14.9729 123.924 16.3099C125.167 17.6453 125.788 19.3671 125.788 21.4688V22.902H115.9C115.997 23.6667 116.331 24.2634 116.903 24.6939C117.476 25.1243 118.146 25.3396 118.909 25.3396C120.246 25.3396 121.441 24.9597 122.491 24.195L124.783 26.4858C123.732 27.919 121.773 28.6348 118.907 28.6348C116.805 28.6348 115.085 27.9663 113.748 26.6293C112.411 25.2923 111.744 23.5721 111.744 21.4688ZM120.916 18.2453C120.342 17.8149 119.673 17.5996 118.91 17.5996C118.147 17.5996 117.477 17.8149 116.905 18.2453C116.333 18.6758 116.046 19.2725 116.046 20.0372H121.778C121.775 19.2725 121.488 18.6758 120.916 18.2453Z" fill="white"/>
    <path d="M141 14.735V27.4886C141 29.4941 140.403 31.1719 139.208 32.5187C138.013 33.8654 136.51 34.578 134.693 34.6562L133.834 34.7426C131.064 34.6856 128.913 33.8932 127.385 32.3638L129.249 30.2148C130.301 30.9811 131.576 31.4083 133.076 31.5045C134.605 31.5045 135.639 31.1458 136.177 30.43C136.718 29.7159 136.987 28.9251 136.987 28.0674V27.3517C135.918 28.2109 134.675 28.6414 133.262 28.6414C131.064 28.6414 129.417 27.9957 128.318 26.706C127.219 25.4163 126.67 23.6733 126.67 21.4754C126.67 19.3737 127.266 17.6519 128.461 16.3165C129.657 14.9795 131.351 14.311 133.549 14.311C135.173 14.4089 136.319 14.8409 136.987 15.6154V14.311L141 14.735ZM136.987 22.7586V20.4368C136.796 18.834 135.794 17.8899 133.977 17.616C131.589 17.7024 130.299 18.8911 130.108 21.1835C130.204 23.8608 131.494 25.2434 133.977 25.3413C135.794 25.0527 136.796 24.1918 136.987 22.7586Z" fill="white"/>
    <path d="M3 3H13.0551L3 13.0551V23.1102L23.1102 3H33.1653L3 33.1653H13.0551L33.1653 13.0551V23.1102L23.1102 33.1653H33.1653" stroke="url(#paint0_linear_89_101)" stroke-width="4.5248" stroke-linecap="round" stroke-linejoin="round"/>
    <defs>
        <linearGradient id="paint0_linear_89_101" x1="27.9346" y1="27.2222" x2="0.387804" y2="3" gradientUnits="userSpaceOnUse">
            <stop stop-color="#008700"/>
            <stop offset="1" stop-color="#00CB00"/>
        </linearGradient>
    </defs>
</svg>
