<svg width="102" height="49" viewBox="0 0 102 49" fill="none" xmlns="http://www.w3.org/2000/svg">
    <path d="M94.4088 43.4C94.4901 42.5057 94.5714 41.5708 94.6527 40.5953C94.7611 39.6197 94.8424 38.6848 94.8966 37.7905C94.9779 36.8963 95.0456 36.0969 95.0998 35.3923C95.154 34.6877 95.1811 34.1729 95.1811 33.8477C95.1811 33.1431 95.005 32.5198 94.6527 31.9779C94.3275 31.4088 93.6771 31.1243 92.7016 31.1243C91.4008 31.1243 90.344 31.734 89.531 32.9534C88.7452 34.1729 88.2845 35.7988 88.149 37.8312C88.0948 38.4003 88.027 39.1997 87.9457 40.2294C87.8645 41.2321 87.7832 42.2618 87.7019 43.3187C87.6206 44.3484 87.5393 45.2833 87.458 46.1234C87.4038 46.9363 87.3767 47.4377 87.3767 47.6274C87.3767 47.9525 87.3089 48.1693 87.1734 48.2777C87.065 48.3861 86.8347 48.4403 86.4824 48.4403H85.0191C84.179 48.4403 83.488 48.359 82.946 48.1964C82.4312 48.0067 82.0111 47.7493 81.6859 47.4241C81.3879 47.0989 81.1711 46.706 81.0356 46.2453C80.9272 45.7576 80.873 45.202 80.873 44.5788C80.873 43.9826 80.9136 43.1561 80.9949 42.0992C81.1033 41.0153 81.2388 39.5384 81.4014 37.6686C81.564 35.7717 81.7537 33.3599 81.9705 30.4332C82.1873 27.5066 82.4176 23.8753 82.6615 19.5396C82.6886 18.9434 82.7563 18.5911 82.8647 18.4827C82.946 18.4014 83.1628 18.3608 83.5151 18.3608H85.1004C85.9133 18.3608 86.5908 18.4556 87.1328 18.6453C87.6748 18.835 88.1083 19.0924 88.4335 19.4176C88.7587 19.7428 88.989 20.1222 89.1245 20.5558C89.26 20.9622 89.3278 21.3958 89.3278 21.8565C89.3278 22.3443 89.2736 23.2521 89.1652 24.5799C89.0839 25.9078 88.9755 27.4659 88.84 29.2544C89.653 27.8995 90.5472 26.9646 91.5228 26.4497C92.5254 25.9349 93.7855 25.6774 95.303 25.6774C96.4412 25.6774 97.4303 25.7994 98.2703 26.0432C99.1104 26.2871 99.8014 26.7072 100.343 27.3033C100.912 27.8724 101.333 28.6312 101.603 29.5796C101.874 30.501 102.01 31.6527 102.01 33.0347C102.01 33.4683 101.969 34.2135 101.888 35.2704C101.807 36.3272 101.698 37.5331 101.563 38.888C101.454 40.243 101.333 41.6656 101.197 43.1561C101.089 44.6194 100.994 45.9608 100.912 47.1802C100.885 47.4783 100.858 47.7087 100.831 47.8713C100.804 48.0338 100.75 48.1558 100.669 48.2371C100.614 48.3184 100.52 48.3726 100.384 48.3997C100.249 48.4268 100.059 48.4403 99.815 48.4403H98.5142C97.6471 48.4403 96.9425 48.359 96.4005 48.1964C95.8586 48.0338 95.4385 47.8035 95.1404 47.5054C94.8424 47.2073 94.6256 46.8415 94.4901 46.4079C94.3817 45.9472 94.3275 45.4324 94.3275 44.8633C94.3275 44.5923 94.3275 44.3349 94.3275 44.091C94.3546 43.8471 94.3817 43.6168 94.4088 43.4Z" fill="#1f2937"/>
    <path d="M73.4176 31.5714C73.3363 32.6011 73.2415 33.6173 73.1331 34.62C73.0518 35.6226 72.9705 36.5711 72.8892 37.4653C72.8079 38.3596 72.7401 39.159 72.6859 39.8636C72.6588 40.5681 72.6453 41.1101 72.6453 41.4895C72.6453 42.1941 72.7266 42.6683 72.8892 42.9122C73.0518 43.129 73.3228 43.2374 73.7021 43.2374C74.0002 43.2374 74.2577 43.1832 74.4744 43.0748C74.6912 42.9664 74.8945 42.8444 75.0842 42.7089C75.2739 42.5735 75.4365 42.4515 75.5719 42.3431C75.7345 42.2347 75.9107 42.1805 76.1004 42.1805C76.2901 42.1805 76.4662 42.2889 76.6288 42.5057C76.7914 42.7225 76.8727 43.2238 76.8727 44.0097C76.8727 45.5001 76.4662 46.6789 75.6532 47.5461C74.8403 48.4132 73.4447 48.8468 71.4665 48.8468C69.5154 48.8468 68.0656 48.3997 67.1171 47.5054C66.1958 46.5841 65.7351 45.1885 65.7351 43.3187C65.7351 42.9122 65.7487 42.438 65.7758 41.896C65.83 41.3269 65.8977 40.5952 65.979 39.701C66.0603 38.8067 66.1551 37.7092 66.2635 36.4085C66.399 35.1078 66.5345 33.4954 66.67 31.5714H64.5157C64.2989 31.5714 64.1634 31.5307 64.1092 31.4494C64.0821 31.341 64.0685 31.192 64.0685 31.0023L64.1905 28.9293C64.2176 28.577 64.2582 28.2382 64.3124 27.9131C64.3937 27.5608 64.5292 27.2491 64.7189 26.9782C64.9357 26.7072 65.2338 26.4904 65.6132 26.3278C65.9926 26.1652 66.4939 26.0839 67.1171 26.0839C67.3068 25.5961 67.5236 25.0135 67.7675 24.336C68.0114 23.6586 68.2553 23.0082 68.4992 22.3849C68.7431 21.7345 68.9734 21.1926 69.1902 20.759C69.4341 20.3254 69.6509 20.1086 69.8406 20.1086H71.0194C72.1575 20.1086 72.9434 20.4609 73.377 21.1655C73.8105 21.87 74.0273 22.7101 74.0273 23.6857C74.0273 24.2276 73.9867 25.027 73.9054 26.0839H78.1734C78.607 26.0839 78.8238 26.2736 78.8238 26.653L78.6612 28.848C78.607 29.6609 78.3767 30.3248 77.9702 30.8397C77.5908 31.3275 76.7914 31.5714 75.5719 31.5714H73.4176Z" fill="#1f2937"/>
    <path d="M58.3569 35.7988C58.1943 35.7988 58.0046 35.7988 57.7878 35.7988C57.5981 35.7717 57.4084 35.7446 57.2187 35.7175C57.029 35.6633 56.8664 35.6091 56.7309 35.5549C56.5954 35.4736 56.5277 35.3787 56.5277 35.2704C56.5277 34.9181 56.5412 34.5929 56.5683 34.2948C56.5954 33.9967 56.609 33.6851 56.609 33.3599C56.609 32.7637 56.5277 32.2759 56.3651 31.8966C56.2025 31.5172 55.8773 31.3275 55.3895 31.3275C54.6308 31.3275 53.994 31.8288 53.4791 32.8315C52.9913 33.807 52.6797 35.2839 52.5442 37.2621C52.49 38.1293 52.4087 39.1184 52.3003 40.2294C52.219 41.3134 52.1377 42.3702 52.0564 43.4C51.9751 44.4026 51.9074 45.2969 51.8532 46.0827C51.799 46.8686 51.7719 47.3835 51.7719 47.6274C51.7719 47.8984 51.677 48.1016 51.4873 48.2371C51.2976 48.3726 51.0944 48.4403 50.8776 48.4403H49.4143C48.5742 48.4403 47.8832 48.359 47.3412 48.1964C46.8264 48.0067 46.4063 47.7493 46.0811 47.4241C45.7831 47.0989 45.5663 46.706 45.4308 46.2453C45.3224 45.7576 45.2682 45.202 45.2682 44.5788C45.2682 44.1723 45.2817 43.6032 45.3088 42.8715C45.363 42.1128 45.4443 41.083 45.5527 39.7823C45.6611 38.4545 45.7831 36.7879 45.9186 34.7826C46.0811 32.7502 46.2708 30.2435 46.4876 27.2627C46.5418 26.4768 46.8264 26.0839 47.3412 26.0839H48.9265C49.6853 26.0839 50.3221 26.1652 50.837 26.3278C51.3518 26.4904 51.7719 26.7207 52.0971 27.0188C52.4222 27.2898 52.6526 27.615 52.7881 27.9944C52.9507 28.3737 53.0591 28.7667 53.1133 29.1731C53.4384 28.5499 53.8178 28.0215 54.2514 27.5879C54.7121 27.1272 55.1863 26.7614 55.6741 26.4904C56.1619 26.1923 56.6632 25.989 57.1781 25.8807C57.6929 25.7452 58.1672 25.6774 58.6007 25.6774C59.1156 25.6774 59.6305 25.7723 60.1454 25.9619C60.6873 26.1516 61.1751 26.4362 61.6087 26.8156C62.0423 27.1949 62.381 27.6827 62.6249 28.2789C62.8959 28.8751 63.0314 29.5796 63.0314 30.3926C63.0314 31.1243 62.923 31.8153 62.7062 32.4656C62.4894 33.116 62.1778 33.6986 61.7713 34.2135C61.3648 34.7013 60.8635 35.0942 60.2673 35.3923C59.6982 35.6633 59.0614 35.7988 58.3569 35.7988Z" fill="#1f2937"/>
    <path d="M21.1038 43.4406C21.1038 41.0017 22.2013 39.0913 24.3963 37.7092C26.5913 36.3272 29.8296 35.582 34.1112 35.4736C34.1383 35.1755 34.1518 34.9316 34.1518 34.7419C34.1789 34.5251 34.1925 34.2677 34.1925 33.9696C34.1925 33.1025 34.0299 32.4114 33.7047 31.8966C33.3795 31.3817 32.7021 31.1243 31.6723 31.1243C31.1032 31.1243 30.6426 31.2055 30.2903 31.3681C29.938 31.5307 29.6535 31.7611 29.4367 32.0592C29.2199 32.3301 29.0437 32.6689 28.9082 33.0754C28.7728 33.4818 28.6508 33.929 28.5424 34.4167C28.4882 34.6606 28.3663 34.8232 28.1766 34.9045C27.9869 34.9587 27.6888 34.9858 27.2823 34.9858C24.5183 34.9858 23.1362 33.9425 23.1362 31.8559C23.1362 31.0159 23.3259 30.2164 23.7053 29.4577C24.1118 28.6989 24.6944 28.0485 25.4532 27.5066C26.239 26.9375 27.2146 26.4904 28.3798 26.1652C29.5451 25.84 30.9 25.6774 32.4446 25.6774C35.4526 25.6774 37.634 26.3007 38.989 27.5472C40.3439 28.7938 41.0214 30.5552 41.0214 32.8315C41.0214 33.1296 40.9807 33.6715 40.8994 34.4574C40.8452 35.2162 40.7639 36.0291 40.6555 36.8963C40.5742 37.7363 40.4929 38.5357 40.4117 39.2945C40.3575 40.0533 40.3304 40.5817 40.3304 40.8798C40.3304 41.5573 40.4523 42.045 40.6962 42.3431C40.9401 42.6141 41.2111 42.8038 41.5091 42.9122C41.8343 43.0206 42.1189 43.1019 42.3628 43.1561C42.6066 43.2103 42.7286 43.3458 42.7286 43.5626C42.7286 44.1587 42.6473 44.7685 42.4847 45.3917C42.3221 46.015 42.0511 46.5841 41.6717 47.0989C41.3195 47.6138 40.8181 48.0338 40.1678 48.359C39.5445 48.6842 38.7722 48.8468 37.8508 48.8468C36.5501 48.8468 35.5745 48.5352 34.9242 47.9119C34.2738 47.2886 33.8402 46.4215 33.6234 45.3104C32.9731 46.2589 32.1194 47.0854 31.0626 47.79C30.0328 48.4945 28.6779 48.8468 26.9978 48.8468C26.1848 48.8468 25.4125 48.752 24.6809 48.5623C23.9763 48.3726 23.353 48.0609 22.811 47.6274C22.2962 47.1938 21.8761 46.6383 21.5509 45.9608C21.2529 45.2562 21.1038 44.4162 21.1038 43.4406ZM33.7454 38.8067C33.0408 38.8067 32.3498 38.8609 31.6723 38.9693C30.9948 39.0777 30.3851 39.2539 29.8432 39.4978C29.3283 39.7145 28.9082 40.0126 28.5831 40.392C28.2579 40.7714 28.0953 41.2321 28.0953 41.774C28.0953 42.3973 28.285 42.8309 28.6644 43.0748C29.0708 43.3187 29.5044 43.4406 29.9651 43.4406C30.3987 43.4406 30.8323 43.3458 31.2658 43.1561C31.6994 42.9664 32.0788 42.6819 32.404 42.3025C32.7563 41.896 33.0544 41.4082 33.2982 40.8391C33.5421 40.2701 33.6912 39.5926 33.7454 38.8067Z" fill="#1f2937"/>
    <path d="M10.079 48.8468C8.88667 48.8468 7.69433 48.6978 6.50199 48.3997C5.33674 48.1016 4.27989 47.5867 3.33144 46.8551C2.41008 46.1234 1.65132 45.1478 1.05515 43.9284C0.458974 42.7089 0.160889 41.1779 0.160889 39.3352C0.160889 38.6577 0.215088 37.8447 0.323483 36.8963C0.431877 35.9478 0.635115 34.9723 0.933201 33.9696C1.25839 32.967 1.69197 31.9779 2.23394 31.0023C2.80301 29.9997 3.53468 29.1054 4.42894 28.3195C5.32319 27.5337 6.40714 26.8969 7.68078 26.4091C8.95442 25.9213 10.4719 25.6774 12.2334 25.6774C13.6425 25.6774 14.8348 25.84 15.8104 26.1652C16.7859 26.4904 17.5718 26.9375 18.168 27.5066C18.7641 28.0485 19.1977 28.6854 19.4687 29.417C19.7397 30.1487 19.8752 30.9346 19.8752 31.7746C19.8752 33.0212 19.6178 34.078 19.1029 34.9452C18.6151 35.8123 17.9647 36.544 17.1518 37.1402C16.3659 37.7092 15.4852 38.1564 14.5097 38.4816C13.5341 38.8067 12.5721 39.0642 11.6236 39.2539C10.6752 39.4165 9.79448 39.5249 8.98152 39.5791C8.19566 39.6061 7.58593 39.6197 7.15236 39.6197C7.15236 40.1346 7.2201 40.6494 7.35559 41.1643C7.51819 41.6521 7.74853 42.0857 8.04661 42.4651C8.3447 42.8444 8.73763 43.1561 9.22541 43.4C9.71318 43.6439 10.3094 43.7658 11.0139 43.7658C11.7185 43.7658 12.2605 43.6574 12.6398 43.4406C13.0463 43.1967 13.3715 42.9393 13.6154 42.6683C13.8593 42.3702 14.0625 42.1128 14.2251 41.896C14.4148 41.6521 14.6587 41.5302 14.9568 41.5302C15.0923 41.5302 15.3226 41.5708 15.6478 41.6521C16.0001 41.7063 16.3524 41.8418 16.7046 42.0586C17.0569 42.2754 17.3686 42.5735 17.6396 42.9528C17.9105 43.3322 18.046 43.82 18.046 44.4162C18.046 45.202 17.8021 45.8795 17.3144 46.4486C16.8266 47.0176 16.1898 47.4783 15.4039 47.8306C14.6451 48.1829 13.7915 48.4403 12.8431 48.6029C11.8946 48.7655 10.9733 48.8468 10.079 48.8468ZM10.8513 31.0836C10.2552 31.0836 9.74028 31.2597 9.3067 31.612C8.90022 31.9372 8.54794 32.3572 8.24985 32.8721C7.97886 33.387 7.76208 33.9561 7.59948 34.5793C7.46399 35.2026 7.3556 35.7988 7.2743 36.3679C8.95442 36.3408 10.3094 36.0562 11.3391 35.5142C12.396 34.9723 12.9244 34.2 12.9244 33.1973C12.9244 32.6553 12.7482 32.1676 12.396 31.734C12.0708 31.3004 11.5559 31.0836 10.8513 31.0836Z" fill="#1f2937"/>
    <path d="M10.2701 18.9684C10.0802 19.7278 10.3175 20.06 10.9819 20.06H18.0532V20.06C18.9609 20.06 19.2763 18.8308 19.7213 18.0397C21.1078 15.5751 22.9936 13.5954 25.4093 12.0395C28.2093 10.2361 31.2941 9.38186 34.7111 9.38186C38.1756 9.38186 41.3078 10.2836 44.1553 12.0395C46.602 13.5483 48.5231 15.5476 49.9186 18.0073C50.379 18.8187 50.7208 20.06 51.6537 20.06V20.06H58.6776C59.2945 20.06 59.5318 19.6803 59.3895 18.9684C57.8408 13.6977 54.5856 9.09046 50.1351 5.86995C45.5791 2.5004 40.4536 0.839355 34.7111 0.839355C29.0161 0.839355 23.8906 2.5004 19.3821 5.86995C14.9684 9.23949 11.8836 13.6057 10.2701 18.9684Z" fill="#1f2937"/>
</svg>
