<svg width="77" height="47" viewBox="0 0 77 47" fill="none" xmlns="http://www.w3.org/2000/svg">
    <path d="M40.5543 10.7979H46.9462L57.3238 28.357V10.7979H62.3246V35.8394H56.0078L45.555 18.1674V35.8394H40.5543V10.7979Z" fill="#1f2937"/>
    <path d="M24.0024 36.3282C21.5459 36.3282 19.3776 35.7892 17.4977 34.7114C15.6177 33.6335 14.1513 32.117 13.0985 30.1618C12.0707 28.2066 11.5569 25.9631 11.5569 23.4314C11.5569 20.8746 12.0707 18.6186 13.0985 16.6634C14.1262 14.7082 15.5801 13.1917 17.4601 12.1139C19.34 11.036 21.5208 10.4971 24.0024 10.4971C26.459 10.4971 28.6272 11.036 30.5072 12.1139C32.3872 13.1667 33.8411 14.6581 34.8688 16.5882C35.8965 18.5184 36.4104 20.7493 36.4104 23.281C36.4104 25.8629 35.8965 28.1439 34.8688 30.1242C33.8411 32.0794 32.3872 33.6084 30.5072 34.7114C28.6272 35.7892 26.459 36.3282 24.0024 36.3282ZM24.0024 31.553C26.0579 31.553 27.6997 30.8135 28.928 29.3346C30.1813 27.8557 30.808 25.8879 30.808 23.4314C30.808 21.8271 30.5197 20.4109 29.9432 19.1826C29.3917 17.9293 28.5896 16.9768 27.5368 16.325C26.5091 15.6482 25.331 15.3098 24.0024 15.3098C22.6739 15.3098 21.4832 15.6482 20.4304 16.325C19.4027 16.9768 18.6006 17.9293 18.0241 19.1826C17.4726 20.4109 17.1969 21.8271 17.1969 23.4314C17.1969 25.0357 17.4726 26.4519 18.0241 27.6802C18.6006 28.9085 19.4027 29.861 20.4304 30.5378C21.4582 31.2146 22.6488 31.553 24.0024 31.553Z" fill="#1f2937"/>
    <path fill-rule="evenodd" clip-rule="evenodd" d="M14.2394 0.680824H62.3857C69.9829 0.680824 76.1417 6.83963 76.1417 14.4369V32.4918C76.1417 40.0891 69.9829 46.2479 62.3857 46.2479H14.2394C6.64208 46.2479 0.483276 40.089 0.483276 32.4918V14.4369C0.483276 6.83962 6.64209 0.680824 14.2394 0.680824ZM14.2394 5.83936C9.49106 5.83936 5.64181 9.6886 5.64181 14.4369V32.4918C5.64181 37.2401 9.49106 41.0893 14.2394 41.0893H62.3857C67.134 41.0893 70.9832 37.2401 70.9832 32.4918V14.4369C70.9832 9.68861 67.134 5.83936 62.3857 5.83936H14.2394Z" fill="#1f2937"/>
</svg>
