<svg width="219" height="55" viewBox="0 0 219 55" fill="none" xmlns="http://www.w3.org/2000/svg">
    <path d="M76.4177 23.8424H86.3703V30.0711H76.4177V43.9358H71.0577V43.9383V10.4477H89.9089V16.6992H76.4177V23.8424Z" fill="black"/>
    <path d="M97.3059 23.8424H107.261V30.0711H97.3059V43.9358H91.9485V43.9383V10.4477H110.8V16.6992H97.3059V23.8424Z" fill="black"/>
    <path d="M119.05 29.6494V43.9383H112.799V22.2598L119.05 21.5892V23.5756C120.45 22.2623 122.236 21.612 124.408 21.612C127.235 21.612 129.394 22.4681 130.883 24.1802C132.521 22.4681 134.975 21.612 138.249 21.612C141.077 21.612 143.236 22.4681 144.724 24.1802C146.213 25.8949 146.957 27.8636 146.957 30.0965V43.9383H140.706V31.6587C140.706 30.1701 140.37 29.0168 139.7 28.1989C139.029 27.3835 137.944 26.9516 136.441 26.9034C135.206 26.9923 134.134 27.8102 133.225 29.3598C133.151 29.8246 133.113 30.2895 133.113 30.7696V43.9434H126.861V31.6638C126.861 30.1752 126.526 29.0219 125.855 28.204C125.185 27.3886 124.105 26.9542 122.601 26.9059C121.232 26.9923 120.048 27.9068 119.05 29.6494Z" fill="black"/>
    <path d="M150.099 53.3143V22.2598L156.351 21.5892V23.375C158.017 22.1811 159.655 21.5892 161.263 21.5892C164.688 21.5892 167.403 22.7018 169.412 24.9347C171.422 27.1701 172.428 29.7713 172.428 32.7485C172.428 35.7256 171.422 38.3294 169.412 40.5623C167.403 42.7952 164.688 43.9103 161.263 43.9103C159.031 43.7579 157.395 43.1584 156.351 42.1017V53.3321L150.099 53.3143ZM156.351 30.7442V34.3641C156.648 36.8611 158.21 38.3319 161.04 38.7587C164.611 38.4767 166.621 36.6224 167.068 33.2006C166.918 29.0296 164.909 26.8754 161.04 26.723C158.21 27.1701 156.648 28.5114 156.351 30.7442Z" fill="black"/>
    <path d="M173.421 32.7738C173.421 29.4995 174.462 26.817 176.545 24.7365C178.628 22.6535 181.308 21.612 184.582 21.612C187.857 21.612 190.461 22.6535 192.396 24.7365C194.332 26.817 195.3 29.4995 195.3 32.7738V35.0067H179.896C180.046 36.1981 180.566 37.1278 181.458 37.7985C182.35 38.4691 183.394 38.8044 184.582 38.8044C186.665 38.8044 188.528 38.2125 190.163 37.0211L193.735 40.5902C192.097 42.8231 189.046 43.9382 184.58 43.9382C181.306 43.9382 178.626 42.8967 176.543 40.8137C174.46 38.7307 173.421 36.0508 173.421 32.7738ZM187.71 27.7518C186.815 27.0812 185.774 26.7458 184.585 26.7458C183.396 26.7458 182.352 27.0812 181.461 27.7518C180.569 28.4224 180.122 29.3521 180.122 30.5435H189.053C189.048 29.3521 188.601 28.4224 187.71 27.7518Z" fill="black"/>
    <path d="M219 22.2827V42.1525C219 45.277 218.07 47.8909 216.208 49.9891C214.346 52.0874 212.004 53.1975 209.174 53.3194L207.835 53.454C203.52 53.3651 200.169 52.1306 197.789 49.7478L200.692 46.3998C202.331 47.5937 204.317 48.2592 206.654 48.4091C209.037 48.4091 210.647 47.8503 211.486 46.7351C212.329 45.6225 212.748 44.3904 212.748 43.0543V41.9391C211.082 43.2778 209.146 43.9484 206.944 43.9484C203.52 43.9484 200.954 42.9425 199.242 40.9332C197.53 38.9238 196.674 36.2083 196.674 32.784C196.674 29.5097 197.603 26.8272 199.465 24.7467C201.327 22.6637 203.967 21.6222 207.391 21.6222C209.921 21.7746 211.707 22.4478 212.748 23.6544V21.6222L219 22.2827ZM212.748 34.7832V31.1659C212.451 28.6688 210.889 27.198 208.059 26.7713C204.338 26.9059 202.328 28.7577 202.031 32.3293C202.181 36.5004 204.19 38.6546 208.059 38.807C210.889 38.3573 212.451 37.0161 212.748 34.7832Z" fill="black"/>
    <path d="M4 4H19.6656L4 19.6656V35.3311L35.3311 4H50.9967L4 50.9967H19.6656L50.9967 19.6656V35.3311L35.3311 50.9967H50.9967" stroke="url(#paint0_linear_13_81)" stroke-width="7.0495" stroke-linecap="round" stroke-linejoin="round"/>
    <defs>
        <linearGradient id="paint0_linear_13_81" x1="42.8474" y1="41.7374" x2="-0.0697253" y2="4" gradientUnits="userSpaceOnUse">
            <stop stop-color="#008700"/>
            <stop offset="1" stop-color="#00CB00"/>
        </linearGradient>
    </defs>
</svg>
