<svg width="122" height="43" viewBox="0 0 122 43" fill="none" xmlns="http://www.w3.org/2000/svg">
<path d="M105.113 30.4066C103.297 30.4066 101.671 29.9593 100.234 29.0649C98.8246 28.1704 97.6997 26.9506 96.8595 25.4056C96.0463 23.8606 95.6397 22.0987 95.6397 20.12C95.6397 18.1413 96.0463 16.3794 96.8595 14.8344C97.6997 13.2893 98.8246 12.0696 100.234 11.1751C101.671 10.2806 103.297 9.83337 105.113 9.83337C106.441 9.83337 107.634 10.0909 108.691 10.6059C109.775 11.1209 110.656 11.8392 111.334 12.7608C112.012 13.6553 112.391 14.6853 112.472 15.8508V24.3891C112.391 25.5547 112.012 26.5982 111.334 27.5198C110.683 28.4143 109.816 29.1191 108.732 29.6341C107.648 30.1491 106.441 30.4066 105.113 30.4066ZM106.374 24.7957C107.702 24.7957 108.772 24.362 109.586 23.4946C110.399 22.6001 110.805 21.4753 110.805 20.12C110.805 19.1984 110.616 18.3852 110.236 17.6805C109.884 16.9757 109.369 16.4336 108.691 16.0541C108.041 15.6475 107.282 15.4442 106.414 15.4442C105.547 15.4442 104.774 15.6475 104.097 16.0541C103.446 16.4336 102.918 16.9757 102.511 17.6805C102.132 18.3852 101.942 19.1984 101.942 20.12C101.942 21.0145 102.132 21.8141 102.511 22.5188C102.89 23.2236 103.419 23.7792 104.097 24.1858C104.774 24.5924 105.533 24.7957 106.374 24.7957ZM110.561 30V24.6737L111.497 19.876L110.561 15.0783V10.24H116.66V30H110.561Z" fill="#1f2937"/>
<path d="M86.2581 30V10.24H92.4788V30H86.2581ZM89.3888 7.51583C88.413 7.51583 87.5998 7.19056 86.9492 6.54002C86.3258 5.86238 86.0141 5.04921 86.0141 4.10051C86.0141 3.12471 86.3258 2.31154 86.9492 1.661C87.5998 1.01046 88.413 0.685196 89.3888 0.685196C90.3646 0.685196 91.1642 1.01046 91.7876 1.661C92.411 2.31154 92.7228 3.12471 92.7228 4.10051C92.7228 5.04921 92.411 5.86238 91.7876 6.54002C91.1642 7.19056 90.3646 7.51583 89.3888 7.51583Z" fill="#1f2937"/>
<path d="M70.4937 30.4066C68.6234 30.4066 66.9564 29.9593 65.4927 29.0649C64.0561 28.1704 62.9176 26.9506 62.0774 25.4056C61.2642 23.8606 60.8576 22.0987 60.8576 20.12C60.8576 18.1413 61.2642 16.3794 62.0774 14.8344C62.9176 13.2893 64.0561 12.0696 65.4927 11.1751C66.9564 10.2806 68.6234 9.83337 70.4937 9.83337C71.849 9.83337 73.0687 10.0909 74.1529 10.6059C75.2643 11.1209 76.1723 11.8392 76.8771 12.7608C77.6089 13.6553 78.0155 14.6853 78.0968 15.8508V24.1858C78.0155 25.3514 77.6225 26.4085 76.9177 27.3572C76.213 28.2788 75.3049 29.0242 74.1936 29.5934C73.0823 30.1355 71.849 30.4066 70.4937 30.4066ZM71.5915 24.7957C72.4859 24.7957 73.2585 24.606 73.909 24.2265C74.5595 23.8199 75.0745 23.2642 75.454 22.5595C75.8335 21.8547 76.0232 21.0416 76.0232 20.12C76.0232 19.1984 75.8335 18.3988 75.454 17.7211C75.1016 17.0164 74.5866 16.4607 73.909 16.0541C73.2585 15.6475 72.4995 15.4442 71.6321 15.4442C70.7647 15.4442 69.9922 15.6475 69.3146 16.0541C68.664 16.4607 68.1355 17.0164 67.7289 17.7211C67.3494 18.4259 67.1597 19.2255 67.1597 20.12C67.1597 21.0145 67.3494 21.8141 67.7289 22.5188C68.1084 23.2236 68.6369 23.7792 69.3146 24.1858C69.9922 24.5924 70.7512 24.7957 71.5915 24.7957ZM81.8781 30H75.7793V24.6737L76.7144 19.876L75.6573 15.0783V0.481903H81.8781V30Z" fill="#1f2937"/>
<path d="M49.5606 30.4472C47.4192 30.4472 45.5083 30.0136 43.8277 29.1462C42.1743 28.2517 40.8732 27.0184 39.9245 25.4462C38.9758 23.8741 38.5014 22.0987 38.5014 20.12C38.5014 18.1413 38.9622 16.3794 39.8838 14.8344C40.8325 13.2622 42.1065 12.0289 43.7057 11.1344C45.305 10.24 47.1075 9.79271 49.1133 9.79271C51.0649 9.79271 52.7861 10.2128 54.2769 11.0531C55.7678 11.8934 56.9333 13.0589 57.7736 14.5498C58.641 16.0406 59.0747 17.7482 59.0747 19.6727C59.0747 20.0251 59.0476 20.4046 58.9933 20.8112C58.9662 21.1907 58.8985 21.6379 58.79 22.1529L41.7541 22.1936V17.9244L56.1472 17.8838L53.4638 19.6727C53.4367 18.5343 53.2605 17.5991 52.9352 16.8673C52.61 16.1083 52.122 15.5391 51.4715 15.1596C50.8481 14.753 50.0756 14.5498 49.154 14.5498C48.1782 14.5498 47.3243 14.7802 46.5925 15.241C45.8877 15.6746 45.3321 16.2981 44.9255 17.1112C44.546 17.9244 44.3563 18.9138 44.3563 20.0793C44.3563 21.2449 44.5596 22.2478 44.9661 23.0881C45.3998 23.9012 45.9962 24.5382 46.7551 24.999C47.5412 25.4327 48.4628 25.6495 49.5199 25.6495C50.4957 25.6495 51.3766 25.4869 52.1627 25.1616C52.9488 24.8093 53.64 24.2943 54.2363 23.6166L57.6516 27.0319C56.6758 28.1704 55.4967 29.0242 54.1143 29.5934C52.7319 30.1626 51.214 30.4472 49.5606 30.4472Z" fill="#1f2937"/>
<path d="M4.30569 30V10.24H10.5265V30H4.30569ZM16.9505 30V18.453C16.9505 17.4501 16.6388 16.6776 16.0154 16.1354C15.419 15.5662 14.6736 15.2816 13.7791 15.2816C13.1557 15.2816 12.6 15.4171 12.1121 15.6882C11.6242 15.9321 11.2312 16.2845 10.933 16.7453C10.662 17.2061 10.5265 17.7753 10.5265 18.453L8.1276 17.3959C8.1276 15.8237 8.46642 14.482 9.14406 13.3707C9.8217 12.2322 10.7433 11.3648 11.9088 10.7685C13.0744 10.1451 14.389 9.83337 15.8527 9.83337C17.2351 9.83337 18.4684 10.1451 19.5526 10.7685C20.664 11.3919 21.5449 12.2593 22.1954 13.3707C22.846 14.482 23.1713 15.8102 23.1713 17.3552V30H16.9505ZM29.5953 30V18.453C29.5953 17.4501 29.2836 16.6776 28.6602 16.1354C28.0638 15.5662 27.3184 15.2816 26.4239 15.2816C25.8005 15.2816 25.2448 15.4171 24.7569 15.6882C24.269 15.9321 23.876 16.2845 23.5778 16.7453C23.3068 17.2061 23.1713 17.7753 23.1713 18.453L19.5933 17.9651C19.6475 16.2845 20.0405 14.8479 20.7724 13.6553C21.5314 12.4355 22.5207 11.5004 23.7405 10.8498C24.9873 10.1722 26.3833 9.83337 27.9283 9.83337C29.4462 9.83337 30.788 10.1586 31.9535 10.8092C33.1461 11.4326 34.0813 12.3406 34.7589 13.5333C35.4637 14.6988 35.8161 16.1083 35.8161 17.7618V30H29.5953Z" fill="#1f2937"/>
<path d="M0.32251 37.7463C0.32251 36.6007 1.25121 35.672 2.39682 35.672H119.595C120.741 35.672 121.67 36.6007 121.67 37.7463V40.8578C121.67 42.0034 120.741 42.9321 119.595 42.9321H2.39682C1.25121 42.9321 0.32251 42.0034 0.32251 40.8578V37.7463Z" fill="#1f2937"/>
</svg>
