<svg width="148" height="39" viewBox="0 0 148 39" fill="none" xmlns="http://www.w3.org/2000/svg">
    <path d="M130.296 33.2615C129.308 33.2777 128.263 33.2534 127.162 33.1886C126.076 33.14 125.072 33.0752 124.149 32.9942C123.225 32.9132 122.512 32.8403 122.01 32.7755C122.01 32.6135 122.01 32.168 122.01 31.439C122.01 30.71 122.01 29.7785 122.01 28.6445C122.01 27.5105 122.01 26.255 122.01 24.878C122.01 23.4849 122.01 22.0431 122.01 20.5527C122.026 19.0623 122.035 17.6043 122.035 16.1787C122.035 14.4129 122.026 12.6634 122.01 10.93C121.994 9.18038 121.97 7.5604 121.937 6.07001C121.905 4.56343 121.856 3.31604 121.792 2.32785C122.116 2.32785 122.61 2.34405 123.274 2.37645C123.938 2.40885 124.667 2.44935 125.461 2.49794C126.271 2.54654 127.056 2.61134 127.818 2.69234C128.579 2.75714 129.227 2.83004 129.762 2.91104C130.815 4.43383 131.827 5.98901 132.799 7.5766C133.787 9.14799 134.719 10.7356 135.594 12.3394C136.485 13.9269 137.319 15.5145 138.097 17.1021C138.89 18.6897 139.628 20.253 140.308 21.792L139.312 2.76524C139.798 2.76524 140.389 2.78954 141.086 2.83814C141.798 2.88674 142.527 2.94344 143.273 3.00824C144.034 3.07304 144.73 3.15404 145.362 3.25124C146.01 3.34844 146.496 3.44564 146.82 3.54284C146.869 4.23943 146.917 5.04132 146.966 5.94851C147.031 6.83951 147.079 7.8034 147.112 8.84019C147.144 9.86078 147.177 10.9219 147.209 12.0235C147.241 13.1088 147.266 14.2023 147.282 15.3039C147.298 16.3893 147.306 17.4342 147.306 18.4386C147.306 20.0748 147.282 21.6948 147.233 23.2986C147.201 24.8861 147.144 26.3684 147.063 27.7454C146.998 29.1062 146.926 30.2564 146.845 31.196C146.764 32.1194 146.674 32.735 146.577 33.0428C146.124 33.059 145.638 33.0752 145.119 33.0914C144.617 33.0914 144.107 33.0914 143.588 33.0914C142.827 33.0914 142.082 33.0752 141.353 33.0428C140.64 33.0104 140.041 32.9537 139.555 32.8727C139.393 32.5811 139.117 32.087 138.728 31.3904C138.356 30.6776 137.894 29.819 137.343 28.8146C136.793 27.794 136.193 26.6843 135.545 25.4855C134.897 24.2867 134.233 23.0637 133.553 21.8163C132.872 20.5527 132.2 19.3215 131.536 18.1227C130.872 16.9239 130.264 15.8223 129.713 14.8179C129.762 15.2715 129.81 15.96 129.859 16.8834C129.908 17.8068 129.948 18.876 129.981 20.091C130.029 21.306 130.07 22.5696 130.102 23.8818C130.134 25.1777 130.167 26.4494 130.199 27.6968C130.232 28.928 130.256 30.0377 130.272 31.0259C130.288 31.9979 130.296 32.7431 130.296 33.2615Z" fill="#1f2937"/>
    <path d="M86.0746 33.1157C86.0746 31.8683 86.0827 30.305 86.0989 28.4258C86.1151 26.5466 86.1394 24.4973 86.1718 22.278C86.2042 20.0424 86.2447 17.7582 86.2933 15.4254C86.3419 13.0926 86.3986 10.8409 86.4634 8.67009C86.5282 6.49931 86.6092 4.54722 86.7064 2.81384C87.484 2.73284 88.3993 2.66804 89.4523 2.61944C90.5215 2.57084 91.5664 2.53845 92.587 2.52224C93.6237 2.48985 94.4985 2.47365 95.2113 2.47365C95.9241 2.45745 96.321 2.44934 96.402 2.44934C96.4344 2.51415 96.5478 2.90294 96.7422 3.61573C96.9528 4.32853 97.212 5.25192 97.5198 6.38591C97.8438 7.5199 98.1921 8.76729 98.5647 10.1281C98.9373 11.4889 99.3099 12.8739 99.6825 14.2833C100.071 15.6927 100.436 17.0292 100.776 18.2928C101.116 19.5402 101.392 20.6175 101.602 21.5247C101.829 22.4319 101.975 23.0556 102.04 23.3958L101.14 23.5173C101.302 23.0637 101.545 22.3185 101.869 21.2817C102.193 20.2449 102.558 19.0461 102.963 17.6853C103.384 16.3083 103.805 14.8665 104.227 13.3599C104.664 11.8372 105.085 10.363 105.49 8.93739C105.895 7.5118 106.243 6.24011 106.535 5.12232C106.843 3.98833 107.062 3.12974 107.191 2.54655C107.872 2.54655 108.738 2.56274 109.791 2.59514C110.86 2.62754 111.938 2.67614 113.023 2.74094C114.108 2.80574 115.008 2.90294 115.72 3.03254C116.044 4.49053 116.271 6.37781 116.401 8.69439C116.53 10.9948 116.595 13.4328 116.595 16.0086C116.595 18.0822 116.563 20.1882 116.498 22.3266C116.449 24.4487 116.376 26.4413 116.279 28.3043C116.182 30.1673 116.077 31.7387 115.963 33.0185C115.17 33.0185 114.311 33.0023 113.388 32.9699C112.464 32.9375 111.581 32.897 110.739 32.8484C109.913 32.7836 109.257 32.735 108.771 32.7026C108.852 31.6496 108.925 30.2969 108.989 28.6445C109.07 26.9921 109.135 25.283 109.184 23.5173C109.232 22.4319 109.265 21.3384 109.281 20.2368C109.313 19.1352 109.338 18.1308 109.354 17.2236C109.386 16.3164 109.411 15.6117 109.427 15.1095C109.249 15.7413 108.997 16.5675 108.673 17.5881C108.366 18.5925 108.009 19.7022 107.604 20.9172C107.215 22.1322 106.802 23.3634 106.365 24.6107C105.944 25.8419 105.531 27.0164 105.126 28.1342C104.737 29.252 104.389 30.2159 104.081 31.0259C103.789 31.8359 103.562 32.4029 103.4 32.7269C103.174 32.7431 102.825 32.7593 102.355 32.7755C101.902 32.7755 101.554 32.7755 101.311 32.7755C100.873 32.7755 100.42 32.7593 99.9498 32.7269C99.4962 32.6783 98.994 32.6216 98.4432 32.5568C98.3946 32.3462 98.2893 31.9088 98.1273 31.2446C97.9815 30.5804 97.7871 29.7623 97.5441 28.7903C97.3011 27.8183 97.0338 26.7572 96.7422 25.607C96.4668 24.4406 96.1833 23.2581 95.8917 22.0593C95.6001 20.8443 95.3085 19.6698 95.0169 18.5358C94.7253 17.4018 94.458 16.3731 94.215 15.4497C93.9882 14.5263 93.7938 13.7811 93.6318 13.2141C93.648 14.7531 93.6562 16.3893 93.6562 18.1227C93.6724 19.8561 93.6805 21.5571 93.6805 23.2257C93.6805 24.8942 93.6805 26.4332 93.6805 27.8426C93.6967 29.2358 93.7048 30.3941 93.7048 31.3175C93.7048 32.2409 93.7048 32.7998 93.7048 32.9942C93.1378 33.0104 92.4169 33.0347 91.5421 33.0671C90.6673 33.0833 89.752 33.0995 88.7962 33.1157C87.8404 33.1157 86.9332 33.1157 86.0746 33.1157Z" fill="#1f2937"/>
    <path d="M64.1999 33.4802C63.7949 33.4802 63.236 33.464 62.5232 33.4316C61.8104 33.4154 61.0409 33.3911 60.2147 33.3587C59.4047 33.3425 58.6109 33.3182 57.8333 33.2858C57.072 33.2534 56.4402 33.221 55.938 33.1886C56.1162 32.1842 56.3592 30.9044 56.667 29.3492C56.991 27.794 57.3635 26.0687 57.7847 24.1733C58.2059 22.278 58.6514 20.3016 59.1212 18.2442C59.591 16.1706 60.077 14.1132 60.5792 12.0721C61.0814 10.0309 61.5674 8.09499 62.0372 6.26441C62.507 4.43383 62.9444 2.80574 63.3494 1.38015C64.9856 1.16956 66.5975 0.99946 68.1851 0.869861C69.7888 0.724061 71.344 0.651161 72.8506 0.651161C73.7092 0.651161 74.5678 0.675461 75.4264 0.724061C76.285 0.772661 77.1355 0.85366 77.9779 0.967058C78.2857 2.39265 78.6016 4.02883 78.9256 5.87561C79.2495 7.7224 79.5735 9.90128 79.8975 12.4123C80.2377 14.907 80.5698 17.8473 80.8938 21.2331C81.234 24.6026 81.5742 28.5311 81.9144 33.0185C81.3798 33.0833 80.6184 33.1562 79.6302 33.2372C78.6421 33.3182 77.6053 33.3749 76.5199 33.4073C75.4507 33.4559 74.4949 33.4802 73.6525 33.4802C73.6201 33.0104 73.5877 32.4758 73.5553 31.8764C73.5391 31.277 73.5148 30.6371 73.4824 29.9567C73.45 29.2763 73.4176 28.5878 73.3852 27.8912C73.369 27.1946 73.3528 26.5223 73.3366 25.8743C73.3204 25.2263 73.3042 24.6269 73.288 24.0761C72.7696 24.0923 72.2107 24.1166 71.6113 24.149C71.0119 24.1652 70.4044 24.1976 69.7888 24.2462C69.1894 24.2786 68.6224 24.3191 68.0879 24.3677C67.5533 24.4001 67.0835 24.4406 66.6785 24.4892C66.2735 24.5378 65.9819 24.5783 65.8037 24.6107C65.5607 25.7123 65.3339 26.822 65.1233 27.9398C64.9127 29.0576 64.7264 30.1025 64.5644 31.0745C64.4024 32.0303 64.2809 32.8322 64.1999 33.4802ZM66.8 17.8797C67.1726 17.8149 67.7558 17.742 68.5495 17.661C69.3433 17.58 70.1695 17.5152 71.0281 17.4666C71.8867 17.418 72.5833 17.3856 73.1179 17.3694C73.0855 17.0292 73.045 16.3893 72.9964 15.4497C72.964 14.4939 72.9154 13.4571 72.8506 12.3394C72.7858 11.2054 72.721 10.1686 72.6562 9.22898C72.6076 8.27319 72.559 7.6171 72.5104 7.2607C72.2512 7.2607 71.8624 7.2769 71.344 7.3093C70.8256 7.3417 70.3234 7.3741 69.8374 7.4065C69.3514 7.4389 69.0112 7.4713 68.8168 7.5037C68.7196 7.97349 68.5819 8.62959 68.4037 9.47198C68.2417 10.2982 68.0635 11.2216 67.8691 12.2422C67.6748 13.2627 67.4804 14.2671 67.286 15.2553C67.1078 16.2273 66.9458 17.1021 66.8 17.8797Z" fill="#1f2937"/>
    <path d="M32.2897 33.8933C32.1925 33.1319 32.0791 32.0384 31.9495 30.6128C31.8361 29.171 31.6984 27.5267 31.5364 25.6799C31.3744 23.817 31.2124 21.873 31.0504 19.848C30.8884 17.8068 30.7264 15.7899 30.5644 13.7973C30.4024 11.8048 30.2566 9.96608 30.127 8.28129C30.0136 6.58031 29.9084 5.13852 29.8112 3.95593C29.7302 2.75714 29.6735 1.95525 29.6411 1.55026C30.3052 1.46926 31.1557 1.38016 32.1925 1.28296C33.2293 1.18576 34.339 1.10476 35.5216 1.03996C36.7042 0.95896 37.8139 0.918461 38.8507 0.918461C41.8314 0.918461 44.3586 1.25056 46.4322 1.91475C48.5058 2.56275 50.1744 3.57524 51.438 4.95222C52.7015 6.31301 53.6168 8.0464 54.1838 10.1524C54.7508 12.2584 55.0343 14.745 55.0343 17.6124C55.0343 20.9334 54.5888 23.655 53.6978 25.7771C52.823 27.8831 51.4542 29.5274 49.5912 30.71C47.7444 31.8764 45.3873 32.6864 42.5199 33.14C39.6688 33.6098 36.2587 33.8609 32.2897 33.8933ZM39.5554 25.85C41.4831 25.7852 42.9978 25.4531 44.0994 24.8537C45.2172 24.2543 46.0029 23.3958 46.4565 22.278C46.9263 21.144 47.1612 19.767 47.1612 18.147C47.1612 16.3326 46.9344 14.6235 46.4808 13.0197C46.0434 11.416 45.3063 10.12 44.2695 9.13179C43.2489 8.14359 41.8557 7.6495 40.09 7.6495C39.7984 7.6495 39.4825 7.6495 39.1423 7.6495C38.8183 7.6495 38.5267 7.6657 38.2675 7.6981C38.3971 9.46388 38.5267 11.416 38.6563 13.5543C38.8021 15.6765 38.956 17.8068 39.118 19.9452C39.28 22.0674 39.4258 24.0356 39.5554 25.85Z" fill="#1f2937"/>
    <path fill-rule="evenodd" clip-rule="evenodd" d="M6.54346 20.0604C6.63385 19.2017 7.35797 18.5498 8.22142 18.5498H11.4336C12.2971 18.5498 13.0212 19.2017 13.1116 20.0604L14.8637 36.7056C14.9613 37.6323 14.2891 38.4626 13.3624 38.5602C12.4357 38.6577 11.6054 37.9855 11.5078 37.0588L9.91469 21.9243H9.74037L8.14726 37.0588C8.04971 37.9855 7.21938 38.6577 6.29267 38.5602C5.36596 38.4626 4.6938 37.6323 4.79134 36.7056L6.54346 20.0604Z" fill="#1f2937"/>
    <path fill-rule="evenodd" clip-rule="evenodd" d="M6.49264 9.51875C7.41258 9.37037 8.27862 9.99584 8.427 10.9158L9.82042 19.555L10.9283 10.9685C11.0476 10.0444 11.8935 9.39184 12.8176 9.51109C13.7418 9.63034 14.3943 10.4762 14.2751 11.4004L13.107 20.453C12.9877 21.3772 12.1419 22.0297 11.2177 21.9104C10.5487 21.8241 10.0221 21.357 9.82749 20.7552C9.63869 21.3388 9.13725 21.7984 8.49006 21.9028C7.57012 22.0511 6.70408 21.4257 6.5557 20.5057L5.0956 11.4531C4.94722 10.5332 5.5727 9.66712 6.49264 9.51875Z" fill="#1f2937"/>
    <path fill-rule="evenodd" clip-rule="evenodd" d="M9.68153 6.1552C9.64569 6.1552 9.61664 6.18426 9.61664 6.2201C9.61664 6.25594 9.64569 6.28499 9.68153 6.28499C9.71737 6.28499 9.74643 6.25594 9.74643 6.2201C9.74643 6.18426 9.71737 6.1552 9.68153 6.1552ZM6.24219 6.2201C6.24219 4.3206 7.78204 2.78075 9.68153 2.78075C11.581 2.78075 13.1209 4.3206 13.1209 6.2201C13.1209 8.1196 11.581 9.65944 9.68153 9.65944C7.78204 9.65944 6.24219 8.1196 6.24219 6.2201Z" fill="#1f2937"/>
    <path fill-rule="evenodd" clip-rule="evenodd" d="M2.83299 1.03624C3.76062 1.12458 4.44099 1.94819 4.35265 2.87583L3.87829 7.85656L7.51585 9.67534C8.3493 10.0921 8.68713 11.1055 8.2704 11.939C7.85367 12.7724 6.8402 13.1103 6.00675 12.6935L1.33443 10.3574C0.710846 10.0456 0.343255 9.38237 0.409354 8.68832L0.993394 2.5559C1.08174 1.62827 1.90535 0.94789 2.83299 1.03624Z" fill="#1f2937"/>
    <path fill-rule="evenodd" clip-rule="evenodd" d="M12.8937 12.8717H6.76131V9.49722H12.8937V12.8717Z" fill="#1f2937"/>
    <path fill-rule="evenodd" clip-rule="evenodd" d="M16.5299 1.03624C17.4576 0.94789 18.2812 1.62827 18.3695 2.5559L18.9536 8.68832C19.0197 9.38237 18.6521 10.0456 18.0285 10.3574L13.3562 12.6935C12.5227 13.1103 11.5093 12.7724 11.0925 11.939C10.6758 11.1055 11.0136 10.0921 11.8471 9.67534L15.4846 7.85656L15.0103 2.87583C14.9219 1.94819 15.6023 1.12458 16.5299 1.03624Z" fill="#1f2937"/>
</svg>
