<svg width="22" height="17" viewBox="0 0 22 17" fill="none" xmlns="http://www.w3.org/2000/svg">
    <path d="M0 1.37494C0 1.01029 0.14486 0.660564 0.402712 0.402712C0.660564 0.14486 1.01029 0 1.37494 0H4.65464C6.18542 0 7.63369 0.696639 8.59065 1.89192L11.3387 5.32745C11.7252 5.81036 12.2154 6.20016 12.773 6.46799C13.3305 6.73582 13.9412 6.87483 14.5597 6.87472H17.8321L14.9502 3.12937C14.728 2.84008 14.6299 2.47436 14.6773 2.11268C14.7247 1.751 14.9139 1.42298 15.2032 1.20079C15.4925 0.978587 15.8582 0.880411 16.2199 0.927856C16.5816 0.9753 16.9096 1.16448 17.1318 1.45377L21.715 7.41187C21.8996 7.65213 21.9997 7.94665 21.9997 8.24967C21.9997 8.55268 21.8996 8.8472 21.715 9.08746L17.1318 15.0456C16.9096 15.3349 16.5816 15.524 16.2199 15.5715C15.8582 15.6189 15.4925 15.5207 15.2032 15.2985C14.9139 15.0763 14.7247 14.7483 14.6773 14.3866C14.6299 14.025 14.728 13.6593 14.9502 13.37L17.8321 9.62461H14.1344C13.4378 9.62461 12.7796 9.94176 12.3452 10.4862L9.59711 13.9199C8.95322 14.7246 8.13666 15.3742 7.20785 15.8206C6.27903 16.2671 5.26172 16.4991 4.23116 16.4993H1.37494C1.01029 16.4993 0.660564 16.3545 0.402712 16.0966C0.14486 15.8388 0 15.489 0 15.1244C0 14.7597 0.14486 14.41 0.402712 14.1522C0.660564 13.8943 1.01029 13.7494 1.37494 13.7494H4.23116C5.48511 13.7494 6.6694 13.1811 7.4522 12.2022L10.2003 8.76664C10.3172 8.62172 10.4414 8.48282 10.5724 8.3505C10.0548 7.98048 9.59034 7.54131 9.19196 7.04521L6.44207 3.60969C6.22776 3.34187 5.95607 3.12559 5.64703 2.97678C5.33799 2.82797 4.99948 2.75043 4.65648 2.74989H1.37494C1.01029 2.74989 0.660564 2.60503 0.402712 2.34718C0.14486 2.08932 0 1.7396 0 1.37494Z" fill="#00CB00"/>
</svg>
