<svg width="147" height="144" viewBox="0 0 147 144" fill="none" xmlns="http://www.w3.org/2000/svg">
    <g filter="url(#filter0_d_49_558)">
        <path d="M74.125 18.2188C43.2925 18.2188 18.2125 43.3062 18.2125 74.1312C18.2125 97.6175 32.7625 117.763 53.3125 126.031L66.9625 91.9963C62.8125 90.3341 59.3708 87.2787 57.2285 83.3549C55.0862 79.4311 54.377 74.8838 55.2229 70.494C56.0687 66.1042 58.4167 62.1459 61.8636 59.299C65.3104 56.4522 69.641 54.8943 74.1116 54.8932C78.5821 54.892 82.9135 56.4475 86.3619 59.2926C89.8102 62.1377 92.1603 66.0947 93.0084 70.4841C93.8565 74.8734 93.1498 79.4211 91.0096 83.346C88.8693 87.271 85.4292 90.3281 81.28 91.9925L94.93 126.024C115.48 117.751 130.03 97.6063 130.03 74.1238C130.038 43.2988 104.954 18.2113 74.125 18.2113V18.2188Z" fill="white"/>
        <path d="M15.5071 74.5665C16.0581 42.7934 38.2975 20.1734 65.5212 16.5121C97.9976 12.1658 125.316 34.2565 130.565 63.561C135.549 91.3539 120.273 117.371 95.0867 127.68C92.9153 128.565 91.7263 128.075 90.8962 125.868L78.3791 93.3549C77.665 91.4445 78.1507 90.2555 80.0212 89.4109C85.6871 86.8408 89.2142 82.5379 90.1603 76.3609C90.5126 74.0958 90.3957 71.7826 89.8168 69.5646C89.2378 67.3466 88.2093 65.2713 86.7949 63.4674C85.3806 61.6635 83.6105 60.1695 81.5948 59.0781C79.579 57.9868 77.3604 57.3213 75.0767 57.123C70.8466 56.7134 66.6192 57.9291 63.2528 60.5232C59.8865 63.1173 57.6336 66.8953 56.9517 71.0901C55.7228 78.815 59.5363 86.007 66.7283 89.2731C68.9758 90.2918 69.429 91.2923 68.559 93.5796L55.9838 126.317C55.3785 127.923 54.059 128.492 52.3588 127.829C39.0847 122.635 28.1942 112.726 21.7747 99.9995C15.9421 88.4829 15.8877 79.4784 15.5071 74.5484V74.5665ZM20.3972 74.117C20.4951 75.6649 20.5458 77.4556 20.7017 79.2899C22.1698 96.1099 32.2908 112.857 51.3402 122.127C52.0978 122.464 52.3806 122.315 52.6633 121.601C56.1397 112.441 59.6487 103.287 63.1795 94.127C63.4803 93.373 63.3281 93.0141 62.6285 92.5791C55.2298 87.9138 51.5468 81.2293 51.9601 72.4531C52.1885 67.4108 54.1351 62.9738 57.5317 59.2726C64.5352 51.6275 75.5407 49.9636 84.5488 55.1583C88.1877 57.266 91.1285 60.3946 93.0073 64.1567C94.8862 67.9189 95.6205 72.1494 95.1193 76.3246C94.2675 83.4586 90.6098 88.936 84.4147 92.6371C83.7912 93.0141 83.6027 93.315 83.8891 94.0473C87.438 103.226 90.9687 112.401 94.4596 121.579C94.7459 122.315 95.0287 122.464 95.7646 122.105C104.091 118.233 111.019 112.683 116.384 105.285C124.518 93.9929 127.878 81.4359 126.273 67.6174C123.083 40.1254 98.3492 17.3568 66.5 21.2863C41.6905 24.3276 20.8105 45.2656 20.3936 74.1134L20.3972 74.117Z" fill="#00CB00"/>
    </g>
    <defs>
        <filter id="filter0_d_49_558" x="0.50708" y="0.965027" width="145.997" height="142.135" filterUnits="userSpaceOnUse" color-interpolation-filters="sRGB">
            <feFlood flood-opacity="0" result="BackgroundImageFix"/>
            <feColorMatrix in="SourceAlpha" type="matrix" values="0 0 0 0 0 0 0 0 0 0 0 0 0 0 0 0 0 0 127 0" result="hardAlpha"/>
            <feOffset/>
            <feGaussianBlur stdDeviation="7.5"/>
            <feComposite in2="hardAlpha" operator="out"/>
            <feColorMatrix type="matrix" values="0 0 0 0 0 0 0 0 0 0 0 0 0 0 0 0 0 0 0.1 0"/>
            <feBlend mode="normal" in2="BackgroundImageFix" result="effect1_dropShadow_49_558"/>
            <feBlend mode="normal" in="SourceGraphic" in2="effect1_dropShadow_49_558" result="shape"/>
        </filter>
    </defs>
</svg>
