<svg width="19" height="19" viewBox="0 0 19 19" fill="none" xmlns="http://www.w3.org/2000/svg">
    <path d="M9.5 0C7.62108 0 5.78435 0.557165 4.22209 1.60104C2.65982 2.64491 1.44218 4.12861 0.723149 5.86451C0.00411618 7.6004 -0.184015 9.51054 0.182544 11.3534C0.549104 13.1962 1.45389 14.8889 2.78249 16.2175C4.11109 17.5461 5.80383 18.4509 7.64664 18.8175C9.48946 19.184 11.3996 18.9959 13.1355 18.2768C14.8714 17.5578 16.3551 16.3402 17.399 14.7779C18.4428 13.2156 19 11.3789 19 9.5C18.9973 6.98126 17.9956 4.56644 16.2146 2.78542C14.4336 1.0044 12.0187 0.00265983 9.5 0ZM9.5 17.5385C7.91014 17.5385 6.35599 17.067 5.03407 16.1837C3.71215 15.3005 2.68185 14.045 2.07343 12.5762C1.46502 11.1073 1.30583 9.49108 1.616 7.93177C1.92616 6.37246 2.69175 4.94015 3.81595 3.81595C4.94015 2.69175 6.37247 1.92616 7.93178 1.61599C9.49108 1.30583 11.1074 1.46502 12.5762 2.07343C14.045 2.68184 15.3005 3.71215 16.1837 5.03407C17.067 6.35599 17.5385 7.91014 17.5385 9.5C17.536 11.6312 16.6884 13.6744 15.1814 15.1814C13.6744 16.6884 11.6312 17.536 9.5 17.5385ZM16.0769 9.5C16.0769 10.8008 15.6912 12.0724 14.9685 13.1539C14.2458 14.2355 13.2187 15.0785 12.0169 15.5763C10.8151 16.0741 9.49271 16.2043 8.21691 15.9505C6.94111 15.6968 5.76922 15.0704 4.84942 14.1506C3.92962 13.2308 3.30323 12.0589 3.04945 10.7831C2.79568 9.50729 2.92593 8.18489 3.42372 6.98312C3.92151 5.78134 4.76449 4.75417 5.84606 4.03149C6.92763 3.30881 8.19921 2.92308 9.5 2.92308C11.2437 2.92501 12.9155 3.61856 14.1485 4.85155C15.3814 6.08454 16.075 7.75628 16.0769 9.5Z" fill="#00CB00"/>
</svg>
