<svg width="19" height="20" viewBox="0 0 19 20" fill="none" xmlns="http://www.w3.org/2000/svg">
    <path d="M2.65648 14.2779C3.36103 14.2779 4.03671 14.5577 4.5349 15.0559C5.03309 15.5541 5.31297 16.2298 5.31297 16.9343C5.31297 18.3723 4.11877 19.5908 2.65648 19.5908C1.21857 19.5908 0 18.3723 0 16.9343C0 16.2298 0.279879 15.5541 0.778066 15.0559C1.27625 14.5577 1.95194 14.2779 2.65648 14.2779ZM0 0.629883C5.02876 0.629883 9.85155 2.62755 13.4074 6.18342C16.9633 9.73928 18.961 14.5621 18.961 19.5908H15.5124C15.5124 15.4767 13.8781 11.5311 10.9689 8.62191C8.05978 5.71277 4.11414 4.07844 0 4.07844V0.629883ZM0 7.52699C3.19953 7.52699 6.26802 8.798 8.53043 11.0604C10.7928 13.3228 12.0638 16.3913 12.0638 19.5908H8.61529C8.61529 17.3059 7.70761 15.1146 6.09193 13.4989C4.47625 11.8832 2.28492 10.9755 0 10.9755V7.52699Z" fill="currentColor"/>
</svg>
