<svg width="28" height="28" viewBox="0 0 28 28" fill="none" xmlns="http://www.w3.org/2000/svg">
    <path opacity="0.2" d="M14.875 13.125V22.75H5.25V13.125H14.875Z" fill="currentColor"
          fill-opacity="0.5"/>
    <path d="M14.875 12.25H5.25C5.01794 12.25 4.79538 12.3422 4.63128 12.5063C4.46719 12.6704 4.375 12.8929 4.375 13.125V22.75C4.375 22.9821 4.46719 23.2046 4.63128 23.3687C4.79538 23.5328 5.01794 23.625 5.25 23.625H14.875C15.1071 23.625 15.3296 23.5328 15.4937 23.3687C15.6578 23.2046 15.75 22.9821 15.75 22.75V13.125C15.75 12.8929 15.6578 12.6704 15.4937 12.5063C15.3296 12.3422 15.1071 12.25 14.875 12.25ZM14 21.875H6.125V14H14V21.875ZM23.625 20.125V21.875C23.625 22.3391 23.4406 22.7842 23.1124 23.1124C22.7842 23.4406 22.3391 23.625 21.875 23.625H19.25C19.0179 23.625 18.7954 23.5328 18.6313 23.3687C18.4672 23.2046 18.375 22.9821 18.375 22.75C18.375 22.5179 18.4672 22.2954 18.6313 22.1313C18.7954 21.9672 19.0179 21.875 19.25 21.875H21.875V20.125C21.875 19.8929 21.9672 19.6704 22.1313 19.5063C22.2954 19.3422 22.5179 19.25 22.75 19.25C22.9821 19.25 23.2046 19.3422 23.3687 19.5063C23.5328 19.6704 23.625 19.8929 23.625 20.125ZM23.625 12.25V15.75C23.625 15.9821 23.5328 16.2046 23.3687 16.3687C23.2046 16.5328 22.9821 16.625 22.75 16.625C22.5179 16.625 22.2954 16.5328 22.1313 16.3687C21.9672 16.2046 21.875 15.9821 21.875 15.75V12.25C21.875 12.0179 21.9672 11.7954 22.1313 11.6313C22.2954 11.4672 22.5179 11.375 22.75 11.375C22.9821 11.375 23.2046 11.4672 23.3687 11.6313C23.5328 11.7954 23.625 12.0179 23.625 12.25ZM23.625 6.125V7.875C23.625 8.10706 23.5328 8.32962 23.3687 8.49372C23.2046 8.65781 22.9821 8.75 22.75 8.75C22.5179 8.75 22.2954 8.65781 22.1313 8.49372C21.9672 8.32962 21.875 8.10706 21.875 7.875V6.125H20.125C19.8929 6.125 19.6704 6.03281 19.5063 5.86872C19.3422 5.70462 19.25 5.48206 19.25 5.25C19.25 5.01794 19.3422 4.79538 19.5063 4.63128C19.6704 4.46719 19.8929 4.375 20.125 4.375H21.875C22.3391 4.375 22.7842 4.55937 23.1124 4.88756C23.4406 5.21575 23.625 5.66087 23.625 6.125ZM16.625 5.25C16.625 5.48206 16.5328 5.70462 16.3687 5.86872C16.2046 6.03281 15.9821 6.125 15.75 6.125H12.25C12.0179 6.125 11.7954 6.03281 11.6313 5.86872C11.4672 5.70462 11.375 5.48206 11.375 5.25C11.375 5.01794 11.4672 4.79538 11.6313 4.63128C11.7954 4.46719 12.0179 4.375 12.25 4.375H15.75C15.9821 4.375 16.2046 4.46719 16.3687 4.63128C16.5328 4.79538 16.625 5.01794 16.625 5.25ZM4.375 8.75V6.125C4.375 5.66087 4.55937 5.21575 4.88756 4.88756C5.21575 4.55937 5.66087 4.375 6.125 4.375H7.875C8.10706 4.375 8.32962 4.46719 8.49372 4.63128C8.65781 4.79538 8.75 5.01794 8.75 5.25C8.75 5.48206 8.65781 5.70462 8.49372 5.86872C8.32962 6.03281 8.10706 6.125 7.875 6.125H6.125V8.75C6.125 8.98206 6.03281 9.20462 5.86872 9.36872C5.70462 9.53281 5.48206 9.625 5.25 9.625C5.01794 9.625 4.79538 9.53281 4.63128 9.36872C4.46719 9.20462 4.375 8.98206 4.375 8.75Z"
          fill="currentColor" fill-opacity="0.5"/>
</svg>