<svg width="20" height="16" viewBox="0 0 20 16" fill="none" xmlns="http://www.w3.org/2000/svg">
    <path d="M4.29805 0.271139C4.21496 0.18635 4.11596 0.118768 4.00673 0.0722518C3.8975 0.0257359 3.78018 0.00119878 3.66147 4.28397e-05C3.54275 -0.0011131 3.42497 0.0211345 3.31486 0.0655146C3.20474 0.109895 3.10445 0.175538 3.01972 0.258692C2.06149 1.21184 1.30135 2.34518 0.783083 3.59341C0.264819 4.84164 -0.00131842 6.1801 5.14495e-06 7.53164C-0.00140135 8.93508 0.28558 10.3238 0.843145 11.6118C1.40071 12.8997 2.21697 14.0593 3.24128 15.0187C3.4137 15.1781 3.64145 15.264 3.87618 15.2582C4.11091 15.2524 4.33413 15.1553 4.49846 14.9876C4.89179 14.5942 4.84325 13.9681 4.46485 13.6059C3.6427 12.8224 2.98846 11.8799 2.54189 10.8357C2.09531 9.79146 1.86573 8.66735 1.8671 7.53164C1.8671 5.23387 2.78944 3.1502 4.28561 1.63412C4.64658 1.26692 4.68392 0.657005 4.29805 0.271139ZM6.49002 2.4656C6.32609 2.29692 6.10198 2.20011 5.8668 2.19637C5.63161 2.19264 5.40454 2.28229 5.23534 2.44568C4.56171 3.11018 4.02703 3.90209 3.66246 4.77526C3.29789 5.64843 3.11071 6.58542 3.11183 7.53164C3.11183 9.63773 4.02048 11.531 5.4681 12.8404C5.63909 12.9912 5.86155 13.0704 6.08935 13.0616C6.31715 13.0528 6.53283 12.9566 6.69167 12.7931C7.09994 12.3848 7.02401 11.7426 6.64064 11.3816C6.1153 10.8875 5.69681 10.2909 5.41101 9.62874C5.1252 8.96657 4.97815 8.25286 4.97892 7.53164C4.97892 6.10021 5.54776 4.80071 6.4726 3.84725C6.82859 3.4813 6.88709 2.86142 6.49002 2.4656ZM13.4257 2.46435C13.5896 2.29567 13.8137 2.19886 14.0489 2.19513C14.2841 2.1914 14.5111 2.28105 14.6803 2.44444C15.3541 3.10909 15.8889 3.90119 16.2535 4.77459C16.618 5.64799 16.8051 6.58521 16.8038 7.53164C16.8038 9.63773 15.8952 11.531 14.4476 12.8404C14.2766 12.9912 14.0541 13.0704 13.8263 13.0616C13.5985 13.0528 13.3828 12.9566 13.224 12.7931C12.8157 12.3848 12.8917 11.7426 13.275 11.3816C13.8004 10.8875 14.2189 10.2909 14.5047 9.62874C14.7905 8.96657 14.9375 8.25286 14.9368 7.53164C14.9368 6.10021 14.3679 4.80071 13.4431 3.84725C13.0871 3.4813 13.0286 2.86018 13.4257 2.46435ZM15.6176 0.271139C15.7007 0.18635 15.7997 0.118768 15.9089 0.0722518C16.0182 0.0257359 16.1355 0.00119878 16.2542 4.28397e-05C16.3729 -0.0011131 16.4907 0.0211345 16.6008 0.0655146C16.7109 0.109895 16.8112 0.175538 16.896 0.258692C17.8542 1.21184 18.6143 2.34518 19.1326 3.59341C19.6509 4.84164 19.917 6.1801 19.9157 7.53164C19.9171 8.93508 19.6301 10.3238 19.0725 11.6118C18.515 12.8997 17.6987 14.0593 16.6744 15.0187C16.502 15.1781 16.2742 15.264 16.0395 15.2582C15.8048 15.2524 15.5815 15.1553 15.4172 14.9876C15.0239 14.5942 15.0724 13.9681 15.4521 13.6059C16.274 12.8223 16.928 11.8797 17.3744 10.8355C17.8207 9.79132 18.0501 8.66726 18.0486 7.53164C18.0486 5.23387 17.1262 3.1502 15.6301 1.63412C15.2691 1.26692 15.2318 0.657005 15.6176 0.271139ZM9.95784 5.66455C9.46265 5.66455 8.98775 5.86126 8.6376 6.21141C8.28746 6.56156 8.09074 7.03646 8.09074 7.53164C8.09074 8.02683 8.28746 8.50173 8.6376 8.85188C8.98775 9.20203 9.46265 9.39874 9.95784 9.39874C10.453 9.39874 10.9279 9.20203 11.2781 8.85188C11.6282 8.50173 11.8249 8.02683 11.8249 7.53164C11.8249 7.03646 11.6282 6.56156 11.2781 6.21141C10.9279 5.86126 10.453 5.66455 9.95784 5.66455Z" fill="#00CB00"/>
</svg>
