<svg width="24" height="20" viewBox="0 0 24 20" fill="none" xmlns="http://www.w3.org/2000/svg">
    <path d="M23.6804 2.43529C22.8216 2.82566 21.8958 3.08219 20.9366 3.20488C21.9182 2.61375 22.6766 1.67685 23.0335 0.550348C22.1078 1.10802 21.0816 1.4984 19.9998 1.72147C19.1186 0.762265 17.8806 0.20459 16.4753 0.20459C13.8542 0.20459 11.7127 2.34606 11.7127 4.98944C11.7127 5.36866 11.7573 5.73673 11.8354 6.08248C7.86475 5.88172 4.32909 3.97447 1.9757 1.08572C1.56302 1.78839 1.3288 2.61375 1.3288 3.48372C1.3288 5.14559 2.16531 6.61785 3.45912 7.45436C2.66722 7.45436 1.93109 7.2313 1.28418 6.89669V6.93015C1.28418 9.25008 2.9349 11.1908 5.12099 11.6258C4.41925 11.8187 3.68223 11.8454 2.96836 11.7038C3.2713 12.6547 3.86459 13.4866 4.66483 14.0828C5.46507 14.679 6.43202 15.0094 7.42976 15.0276C5.73852 16.3666 3.64204 17.0903 1.48495 17.0798C1.10573 17.0798 0.726509 17.0575 0.34729 17.0129C2.46645 18.3736 4.98715 19.1655 7.68629 19.1655C16.4753 19.1655 21.3047 11.8712 21.3047 5.54712C21.3047 5.3352 21.3047 5.13444 21.2936 4.92252C22.2305 4.25331 23.0335 3.40564 23.6804 2.43529Z" fill="currentColor"/>
</svg>
